<svg width="37" height="37" viewBox="0 0 37 37" fill="none" xmlns="http://www.w3.org/2000/svg">
<circle cx="18.0471" cy="18.875" r="17.5" stroke="#2196F3"/>
<path d="M24.5829 9.0625H17.3954L17.2079 28.6875H24.4579C24.4579 25.6875 23.8199 24.7036 22.5829 23.6875C20.8329 22.25 19.5204 20.9375 19.5204 19.3125C19.5204 17.6875 21.8954 17.4375 23.5204 15.3125C24.8204 13.6125 24.6662 10.6875 24.5829 9.0625Z" fill="#2196F3"/>
<path d="M11.5112 9.0625H18.6987L18.8861 28.6875H11.6361C11.6361 25.6875 12.2742 24.7036 13.5111 23.6875C15.2611 22.25 16.5736 20.9375 16.5736 19.3125C16.5736 17.6875 14.1987 17.4375 12.5737 15.3125C11.2737 13.6125 11.4278 10.6875 11.5112 9.0625Z" fill="#2196F3"/>
</svg>
