<svg width="37" height="38" viewBox="0 0 37 38" fill="none" xmlns="http://www.w3.org/2000/svg">
<path d="M6.02395 29.1449L5.6665 29.505L6.03184 29.8571L8.28488 32.0286L8.65023 32.3807L8.99694 32.0102L20.5949 19.6167C20.9115 19.8747 21.2757 20.1061 21.6917 20.2348C22.3021 20.4235 22.9736 20.3759 23.6935 19.9805C23.7047 19.9849 23.7191 19.9911 23.7372 19.9997C23.7993 20.0292 23.8692 20.07 23.9702 20.1293L23.971 20.1298C24.0648 20.1849 24.1807 20.2529 24.3069 20.3148C24.563 20.4403 24.8965 20.5585 25.2945 20.5262C25.6525 20.4972 26.011 20.351 26.3731 20.0713C26.3779 20.0738 26.383 20.0764 26.3883 20.0793C26.4562 20.1155 26.5312 20.1614 26.6285 20.2209C26.6404 20.2282 26.6526 20.2357 26.6652 20.2433C26.7745 20.3101 26.9036 20.3881 27.0433 20.4606C27.3195 20.6039 27.6762 20.7473 28.0836 20.7461C28.5086 20.7449 28.9333 20.587 29.3347 20.2267L29.7131 19.887L29.3671 19.5144C28.7485 18.8481 28.2648 18.3646 27.3633 17.548L27.2833 17.4755L27.1806 17.4425L23.7044 16.3256L28.3029 10.7814C28.3727 10.8831 28.4373 11.0009 28.4965 11.1346C28.6361 11.4498 28.7304 11.8203 28.7916 12.1927C28.9143 12.9398 28.892 13.621 28.8859 13.7103L28.8015 14.9326L29.717 14.1184C30.0842 13.7917 30.3108 13.5435 30.5125 13.3089C30.5565 13.2576 30.5984 13.2083 30.6395 13.1599C30.7859 12.9872 30.9233 12.8252 31.1204 12.6241L31.2373 12.5048L31.259 12.3392C31.3617 11.5571 31.262 10.5053 31.0591 9.56796C30.9566 9.09419 30.8244 8.63416 30.6697 8.2367C30.5188 7.84911 30.3316 7.48175 30.1021 7.22573L30.0777 7.19849L30.0495 7.17509C29.7859 6.95578 29.4104 6.7801 29.015 6.64055C28.6094 6.49738 28.1409 6.37785 27.6593 6.28841C26.7076 6.11164 25.6417 6.04096 24.861 6.17284L24.6963 6.20066L24.5814 6.3219C24.3878 6.52622 24.2309 6.66953 24.0638 6.82224C24.0169 6.86511 23.9691 6.90871 23.9196 6.95462C23.6925 7.16482 23.4528 7.40041 23.1399 7.77945L22.36 8.72432L23.5783 8.59494C23.6674 8.58548 24.3472 8.53817 25.0984 8.63324C25.4728 8.68063 25.8465 8.76121 26.1667 8.88908C26.3024 8.94329 26.4226 9.00359 26.5267 9.06957L21.1558 13.8693L19.9115 10.4366L19.8748 10.3352L19.7994 10.2579C18.9501 9.38716 18.4491 8.92162 17.7604 8.32795L17.3753 7.99593L17.0498 8.3866C16.7046 8.80098 16.5624 9.23119 16.5769 9.65601C16.5907 10.0632 16.7472 10.4143 16.9006 10.685C16.9781 10.8219 17.0608 10.9481 17.1316 11.0549C17.1397 11.0672 17.1477 11.0791 17.1553 11.0907C17.2184 11.1858 17.267 11.2591 17.3058 11.3256C17.3088 11.3307 17.3116 11.3357 17.3143 11.3405C17.0482 11.7126 16.9153 12.0763 16.8995 12.4351C16.8819 12.834 17.0123 13.163 17.1472 13.4143C17.2136 13.538 17.2859 13.6514 17.3444 13.7431L17.3449 13.7439C17.4079 13.8426 17.4512 13.911 17.483 13.972C17.4922 13.9897 17.499 14.0039 17.5038 14.0149C17.1352 14.7489 17.1124 15.4216 17.3235 16.0247C17.4674 16.4357 17.712 16.7911 17.9815 17.098L6.02395 29.1449ZM23.6613 19.9699C23.6613 19.9698 23.6622 19.9699 23.6642 19.9704C23.6624 19.9702 23.6614 19.9699 23.6613 19.9699ZM17.5156 14.0466C17.5155 14.0466 17.5153 14.0456 17.5149 14.0438C17.5155 14.0458 17.5157 14.0467 17.5156 14.0466Z" fill="#FFC107" stroke="#4F4F4F"/>
</svg>
