<svg width="101" height="101" viewBox="0 0 101 101" fill="none" xmlns="http://www.w3.org/2000/svg">
<mask id="path-1-inside-1" fill="white">
<path fill-rule="evenodd" clip-rule="evenodd" d="M56.0741 10.0302L57.1925 12.9907L58.027 15.1995L59.6718 13.5055L62.8384 10.2444L61.6742 11.6495L63.9843 13.5636L70.7501 5.39797C88.0373 13.2681 100.056 30.6944 100.056 50.9277C100.056 78.542 77.6698 100.928 50.0555 100.928C22.4413 100.928 0.055542 78.542 0.055542 50.9277C0.055542 23.3135 22.4413 0.927734 50.0555 0.927734C50.9293 0.927734 51.7978 0.950147 52.6606 0.994429L55.0135 7.22272L52.4116 8.12339L53.3929 10.9584L56.0741 10.0302ZM55.9732 1.27426L59.1645 9.72163L65.3805 3.32004C62.3599 2.34847 59.214 1.65639 55.9732 1.27426ZM36.4572 44.1968L37.4625 41.4901L34.9072 40.395L34.544 41.1442L33.5299 43.2357L32.0419 41.4501L29.1222 37.9464L27.5923 36.1105L29.9107 35.5309L35.1662 34.217L37.8647 33.5424L36.9458 36.1678L36.485 37.4844L39.8949 39.2342C40.3166 38.9572 40.6338 38.6317 40.7441 38.3572C40.7932 38.2352 40.8081 38.1186 40.7296 37.9312C40.632 37.6985 40.3526 37.283 39.6065 36.7359L41.3806 34.3167C42.3863 35.0542 43.1165 35.865 43.4965 36.7719C43.8955 37.7241 43.8556 38.6604 43.5276 39.4764C43.3674 39.8747 43.1447 40.2324 42.8863 40.5507L45.318 41.5928L44.1362 44.3503L40.2233 42.6733L39.3355 45.0635L40.2935 45.3171L39.5258 48.2172L34.5623 46.9033L35.2068 43.9761L36.4572 44.1968ZM58.1371 16.4579C56.7036 14.7557 54.9466 14.1131 53.3887 14.5109C52.0421 14.8547 50.5891 16.2503 51.1871 18.0444C51.3862 18.6415 51.7535 19.1495 52.1996 19.5484L49.28 19.0375L47.2297 17.8314L46.7778 18.5996L41.6278 17.6984L36.5926 16.8172L40.3533 20.2795L48.817 28.0714L48.4482 28.9729L51.2249 30.1088L52.5387 26.8971L51.5166 26.479L47.6937 22.9595L48.3092 21.9132L52.7895 22.6972L53.0391 22.7409L53.2891 22.7002C54.4091 22.5179 56.1082 22.0812 57.3279 21.28C57.9311 20.8837 58.6436 20.2507 58.9033 19.301C59.1914 18.2473 58.811 17.2581 58.1371 16.4579ZM54.3117 17.4008C54.5821 17.4086 55.0877 17.5463 55.7329 18.2644L54.4291 17.7429C54.4313 17.7386 54.4475 17.706 54.4894 17.6653C54.538 17.6181 54.5938 17.5868 54.6412 17.5703C54.6761 17.5581 54.6947 17.5572 54.6947 17.5572C54.6947 17.5573 54.6613 17.559 54.5887 17.5374C54.503 17.5119 54.405 17.4651 54.3117 17.4008ZM76.1139 43.9569C76.1139 48.6131 72.5191 52.3876 68.0847 52.3876C63.6503 52.3876 60.0555 48.6131 60.0555 43.9569C60.0555 39.3008 63.6503 35.5263 68.0847 35.5263C72.5191 35.5263 76.1139 39.3008 76.1139 43.9569ZM29.9027 14.8C35.2213 11.7573 38.756 7.93252 37.7976 6.25724C36.8392 4.58197 31.7506 5.69056 26.4319 8.73334C21.1133 11.7761 17.5786 15.6009 18.537 17.2761C19.4954 18.9514 24.584 17.8428 29.9027 14.8ZM15.9989 30.6899C14.5563 34.0344 11.7872 36.0557 9.81381 35.2046C7.84046 34.3534 7.41017 30.9521 8.85273 27.6076C10.2953 24.2631 13.0644 22.2418 15.0378 23.093C17.0111 23.9441 17.4414 27.3454 15.9989 30.6899ZM22.4643 41.0737C23.9559 41.0737 25.165 39.9626 25.165 38.592C25.165 37.2213 23.9559 36.1102 22.4643 36.1102C20.9727 36.1102 19.7635 37.2213 19.7635 38.592C19.7635 39.9626 20.9727 41.0737 22.4643 41.0737ZM28.4239 21.2106C29.3388 22.3886 28.6869 24.426 26.9677 25.7614C25.2484 27.0967 23.113 27.2243 22.1981 26.0463C21.2831 24.8683 21.9351 22.8309 23.6543 21.4955C25.3735 20.1602 27.5089 20.0326 28.4239 21.2106ZM50.1285 61.5117C52.3054 61.5117 54.0701 59.747 54.0701 57.5701C54.0701 55.3932 52.3054 53.6285 50.1285 53.6285C47.9516 53.6285 46.1869 55.3932 46.1869 57.5701C46.1869 59.747 47.9516 61.5117 50.1285 61.5117ZM67.0628 63.7015C67.0628 65.7977 65.3307 67.4971 63.1942 67.4971C61.0576 67.4971 59.3256 65.7977 59.3256 63.7015C59.3256 61.6052 61.0576 59.9058 63.1942 59.9058C65.3307 59.9058 67.0628 61.6052 67.0628 63.7015ZM48.9606 75.0883C50.5731 75.0883 51.8803 73.9118 51.8803 72.4606C51.8803 71.0093 50.5731 69.8328 48.9606 69.8328C47.3481 69.8328 46.0409 71.0093 46.0409 72.4606C46.0409 73.9118 47.3481 75.0883 48.9606 75.0883ZM97.7094 48.0362C98.0958 51.5626 97.6293 54.5068 96.6676 54.6121C95.7058 54.7175 94.613 51.9442 94.2266 48.4178C93.8402 44.8914 94.3066 41.9472 95.2684 41.8419C96.2301 41.7365 97.323 44.5098 97.7094 48.0362ZM28.6392 49.8989L26.9781 49.2382L26.616 50.9888L25.7401 55.2224L25.4884 56.4385L26.6363 56.9127L32.184 59.2041L31.2272 63.4662L25.5272 61.4142L24.5111 64.2369L31.8104 66.8646L33.4097 67.4404L33.782 65.7818L35.3878 58.6286L35.6646 57.3959L34.4969 56.9136L28.9295 54.614L29.1916 53.3472L39.125 57.2979L38.8924 58.2282L41.8028 58.9558L41.9376 58.4166L42.0004 58.4416L42.3932 56.7395L42.8311 54.8417L39.9143 54.1406L39.8591 54.3614L28.6392 49.8989ZM81.3757 17.0257C81.0773 16.9179 80.7725 16.8837 80.4705 16.9346C78.9202 17.1959 78.0327 19.5991 78.4883 22.3022C78.9438 25.0053 80.5699 26.9849 82.1203 26.7236C82.6296 26.6377 83.0675 26.3207 83.4096 25.8377C83.1457 23.0789 82.5068 19.9571 81.3757 17.0257ZM67.9386 21.5117C69.5511 21.5117 70.8583 20.2045 70.8583 18.592C70.8583 16.9795 69.5511 15.6723 67.9386 15.6723C66.3261 15.6723 65.0189 16.9795 65.0189 18.592C65.0189 20.2045 66.3261 21.5117 67.9386 21.5117ZM79.4715 34.5044C79.4715 35.7138 78.4911 36.6942 77.2817 36.6942C76.0723 36.6942 75.0919 35.7138 75.0919 34.5044C75.0919 33.295 76.0723 32.3146 77.2817 32.3146C78.4911 32.3146 79.4715 33.295 79.4715 34.5044ZM86.876 58.1163C85.151 61.117 83.2598 63.8742 81.6027 66.0403C82.2504 66.4109 82.9912 66.6211 83.7782 66.6211C86.3179 66.6211 88.3767 64.4316 88.3767 61.7306C88.3767 60.2988 87.7981 59.0107 86.876 58.1163ZM74.5311 90.7136C75.037 91.8121 73.6067 93.5501 71.3364 94.5956C69.0662 95.641 66.8157 95.598 66.3099 94.4995C65.804 93.401 67.2343 91.663 69.5046 90.6176C71.7748 89.5721 74.0253 89.6151 74.5311 90.7136ZM50.7125 88.519C50.4828 88.5518 50.0615 88.6215 49.3871 88.733C48.262 88.919 46.4327 89.2215 43.6144 89.6635C44.0312 91.4891 46.7561 92.8985 50.0555 92.8985C53.6433 92.8985 56.5518 91.2319 56.5518 89.1759C56.5518 89.1438 56.5511 89.1118 56.5497 89.0798C55.5184 88.9861 54.4726 88.8655 53.5517 88.7593L53.5514 88.7592L53.5495 88.759L53.5486 88.7589C52.1567 88.5983 51.0507 88.4707 50.7125 88.519ZM33.0179 83.861C33.3148 83.3481 33.4862 82.7433 33.4862 82.0956C33.4862 81.9367 33.4759 81.7803 33.4559 81.6272C32.2557 80.8659 30.8955 79.9527 29.418 78.8876C28.1384 79.3115 27.2089 80.5874 27.2089 82.0956C27.2089 82.7322 27.3745 83.3274 27.6621 83.8346C29.2002 83.7619 31.1403 83.7896 33.0179 83.861ZM6.27203 59.3499C6.62288 59.0449 7.0727 58.8888 7.58313 58.8678C9.90249 62.3375 12.2704 65.2263 14.29 67.465C14.1775 67.6911 14.0277 67.8892 13.8392 68.053C12.5007 69.2169 9.72162 68.2121 7.63199 65.8088C5.54236 63.4055 4.93349 60.5138 6.27203 59.3499Z"/>
</mask>
<path fill-rule="evenodd" clip-rule="evenodd" d="M56.0741 10.0302L57.1925 12.9907L58.027 15.1995L59.6718 13.5055L62.8384 10.2444L61.6742 11.6495L63.9843 13.5636L70.7501 5.39797C88.0373 13.2681 100.056 30.6944 100.056 50.9277C100.056 78.542 77.6698 100.928 50.0555 100.928C22.4413 100.928 0.055542 78.542 0.055542 50.9277C0.055542 23.3135 22.4413 0.927734 50.0555 0.927734C50.9293 0.927734 51.7978 0.950147 52.6606 0.994429L55.0135 7.22272L52.4116 8.12339L53.3929 10.9584L56.0741 10.0302ZM55.9732 1.27426L59.1645 9.72163L65.3805 3.32004C62.3599 2.34847 59.214 1.65639 55.9732 1.27426ZM36.4572 44.1968L37.4625 41.4901L34.9072 40.395L34.544 41.1442L33.5299 43.2357L32.0419 41.4501L29.1222 37.9464L27.5923 36.1105L29.9107 35.5309L35.1662 34.217L37.8647 33.5424L36.9458 36.1678L36.485 37.4844L39.8949 39.2342C40.3166 38.9572 40.6338 38.6317 40.7441 38.3572C40.7932 38.2352 40.8081 38.1186 40.7296 37.9312C40.632 37.6985 40.3526 37.283 39.6065 36.7359L41.3806 34.3167C42.3863 35.0542 43.1165 35.865 43.4965 36.7719C43.8955 37.7241 43.8556 38.6604 43.5276 39.4764C43.3674 39.8747 43.1447 40.2324 42.8863 40.5507L45.318 41.5928L44.1362 44.3503L40.2233 42.6733L39.3355 45.0635L40.2935 45.3171L39.5258 48.2172L34.5623 46.9033L35.2068 43.9761L36.4572 44.1968ZM58.1371 16.4579C56.7036 14.7557 54.9466 14.1131 53.3887 14.5109C52.0421 14.8547 50.5891 16.2503 51.1871 18.0444C51.3862 18.6415 51.7535 19.1495 52.1996 19.5484L49.28 19.0375L47.2297 17.8314L46.7778 18.5996L41.6278 17.6984L36.5926 16.8172L40.3533 20.2795L48.817 28.0714L48.4482 28.9729L51.2249 30.1088L52.5387 26.8971L51.5166 26.479L47.6937 22.9595L48.3092 21.9132L52.7895 22.6972L53.0391 22.7409L53.2891 22.7002C54.4091 22.5179 56.1082 22.0812 57.3279 21.28C57.9311 20.8837 58.6436 20.2507 58.9033 19.301C59.1914 18.2473 58.811 17.2581 58.1371 16.4579ZM54.3117 17.4008C54.5821 17.4086 55.0877 17.5463 55.7329 18.2644L54.4291 17.7429C54.4313 17.7386 54.4475 17.706 54.4894 17.6653C54.538 17.6181 54.5938 17.5868 54.6412 17.5703C54.6761 17.5581 54.6947 17.5572 54.6947 17.5572C54.6947 17.5573 54.6613 17.559 54.5887 17.5374C54.503 17.5119 54.405 17.4651 54.3117 17.4008ZM76.1139 43.9569C76.1139 48.6131 72.5191 52.3876 68.0847 52.3876C63.6503 52.3876 60.0555 48.6131 60.0555 43.9569C60.0555 39.3008 63.6503 35.5263 68.0847 35.5263C72.5191 35.5263 76.1139 39.3008 76.1139 43.9569ZM29.9027 14.8C35.2213 11.7573 38.756 7.93252 37.7976 6.25724C36.8392 4.58197 31.7506 5.69056 26.4319 8.73334C21.1133 11.7761 17.5786 15.6009 18.537 17.2761C19.4954 18.9514 24.584 17.8428 29.9027 14.8ZM15.9989 30.6899C14.5563 34.0344 11.7872 36.0557 9.81381 35.2046C7.84046 34.3534 7.41017 30.9521 8.85273 27.6076C10.2953 24.2631 13.0644 22.2418 15.0378 23.093C17.0111 23.9441 17.4414 27.3454 15.9989 30.6899ZM22.4643 41.0737C23.9559 41.0737 25.165 39.9626 25.165 38.592C25.165 37.2213 23.9559 36.1102 22.4643 36.1102C20.9727 36.1102 19.7635 37.2213 19.7635 38.592C19.7635 39.9626 20.9727 41.0737 22.4643 41.0737ZM28.4239 21.2106C29.3388 22.3886 28.6869 24.426 26.9677 25.7614C25.2484 27.0967 23.113 27.2243 22.1981 26.0463C21.2831 24.8683 21.9351 22.8309 23.6543 21.4955C25.3735 20.1602 27.5089 20.0326 28.4239 21.2106ZM50.1285 61.5117C52.3054 61.5117 54.0701 59.747 54.0701 57.5701C54.0701 55.3932 52.3054 53.6285 50.1285 53.6285C47.9516 53.6285 46.1869 55.3932 46.1869 57.5701C46.1869 59.747 47.9516 61.5117 50.1285 61.5117ZM67.0628 63.7015C67.0628 65.7977 65.3307 67.4971 63.1942 67.4971C61.0576 67.4971 59.3256 65.7977 59.3256 63.7015C59.3256 61.6052 61.0576 59.9058 63.1942 59.9058C65.3307 59.9058 67.0628 61.6052 67.0628 63.7015ZM48.9606 75.0883C50.5731 75.0883 51.8803 73.9118 51.8803 72.4606C51.8803 71.0093 50.5731 69.8328 48.9606 69.8328C47.3481 69.8328 46.0409 71.0093 46.0409 72.4606C46.0409 73.9118 47.3481 75.0883 48.9606 75.0883ZM97.7094 48.0362C98.0958 51.5626 97.6293 54.5068 96.6676 54.6121C95.7058 54.7175 94.613 51.9442 94.2266 48.4178C93.8402 44.8914 94.3066 41.9472 95.2684 41.8419C96.2301 41.7365 97.323 44.5098 97.7094 48.0362ZM28.6392 49.8989L26.9781 49.2382L26.616 50.9888L25.7401 55.2224L25.4884 56.4385L26.6363 56.9127L32.184 59.2041L31.2272 63.4662L25.5272 61.4142L24.5111 64.2369L31.8104 66.8646L33.4097 67.4404L33.782 65.7818L35.3878 58.6286L35.6646 57.3959L34.4969 56.9136L28.9295 54.614L29.1916 53.3472L39.125 57.2979L38.8924 58.2282L41.8028 58.9558L41.9376 58.4166L42.0004 58.4416L42.3932 56.7395L42.8311 54.8417L39.9143 54.1406L39.8591 54.3614L28.6392 49.8989ZM81.3757 17.0257C81.0773 16.9179 80.7725 16.8837 80.4705 16.9346C78.9202 17.1959 78.0327 19.5991 78.4883 22.3022C78.9438 25.0053 80.5699 26.9849 82.1203 26.7236C82.6296 26.6377 83.0675 26.3207 83.4096 25.8377C83.1457 23.0789 82.5068 19.9571 81.3757 17.0257ZM67.9386 21.5117C69.5511 21.5117 70.8583 20.2045 70.8583 18.592C70.8583 16.9795 69.5511 15.6723 67.9386 15.6723C66.3261 15.6723 65.0189 16.9795 65.0189 18.592C65.0189 20.2045 66.3261 21.5117 67.9386 21.5117ZM79.4715 34.5044C79.4715 35.7138 78.4911 36.6942 77.2817 36.6942C76.0723 36.6942 75.0919 35.7138 75.0919 34.5044C75.0919 33.295 76.0723 32.3146 77.2817 32.3146C78.4911 32.3146 79.4715 33.295 79.4715 34.5044ZM86.876 58.1163C85.151 61.117 83.2598 63.8742 81.6027 66.0403C82.2504 66.4109 82.9912 66.6211 83.7782 66.6211C86.3179 66.6211 88.3767 64.4316 88.3767 61.7306C88.3767 60.2988 87.7981 59.0107 86.876 58.1163ZM74.5311 90.7136C75.037 91.8121 73.6067 93.5501 71.3364 94.5956C69.0662 95.641 66.8157 95.598 66.3099 94.4995C65.804 93.401 67.2343 91.663 69.5046 90.6176C71.7748 89.5721 74.0253 89.6151 74.5311 90.7136ZM50.7125 88.519C50.4828 88.5518 50.0615 88.6215 49.3871 88.733C48.262 88.919 46.4327 89.2215 43.6144 89.6635C44.0312 91.4891 46.7561 92.8985 50.0555 92.8985C53.6433 92.8985 56.5518 91.2319 56.5518 89.1759C56.5518 89.1438 56.5511 89.1118 56.5497 89.0798C55.5184 88.9861 54.4726 88.8655 53.5517 88.7593L53.5514 88.7592L53.5495 88.759L53.5486 88.7589C52.1567 88.5983 51.0507 88.4707 50.7125 88.519ZM33.0179 83.861C33.3148 83.3481 33.4862 82.7433 33.4862 82.0956C33.4862 81.9367 33.4759 81.7803 33.4559 81.6272C32.2557 80.8659 30.8955 79.9527 29.418 78.8876C28.1384 79.3115 27.2089 80.5874 27.2089 82.0956C27.2089 82.7322 27.3745 83.3274 27.6621 83.8346C29.2002 83.7619 31.1403 83.7896 33.0179 83.861ZM6.27203 59.3499C6.62288 59.0449 7.0727 58.8888 7.58313 58.8678C9.90249 62.3375 12.2704 65.2263 14.29 67.465C14.1775 67.6911 14.0277 67.8892 13.8392 68.053C12.5007 69.2169 9.72162 68.2121 7.63199 65.8088C5.54236 63.4055 4.93349 60.5138 6.27203 59.3499Z" fill="#2196F3"/>
<path d="M57.1925 12.9907L55.3216 13.6975L55.3216 13.6975L57.1925 12.9907ZM56.0741 10.0302L57.9451 9.32344L57.2577 7.50408L55.4199 8.14027L56.0741 10.0302ZM58.027 15.1995L56.156 15.9063L57.2686 18.8515L59.4618 16.5928L58.027 15.1995ZM59.6718 13.5055L58.237 12.1123L58.237 12.1123L59.6718 13.5055ZM62.8384 10.2444L64.3785 11.5205L61.4036 8.85116L62.8384 10.2444ZM61.6742 11.6495L60.1341 10.3735L58.8581 11.9135L60.3982 13.1896L61.6742 11.6495ZM63.9843 13.5636L62.7082 15.1036L64.2483 16.3797L65.5243 14.8396L63.9843 13.5636ZM70.7501 5.39797L71.5787 3.57772L70.1862 2.94376L69.21 4.12193L70.7501 5.39797ZM52.6606 0.994429L54.5315 0.287627L54.0693 -0.9359L52.7631 -1.00294L52.6606 0.994429ZM55.0135 7.22272L55.6677 9.1127L57.6113 8.43992L56.8844 6.51592L55.0135 7.22272ZM52.4116 8.12339L51.7573 6.23342L49.8674 6.88764L50.5216 8.77761L52.4116 8.12339ZM53.3929 10.9584L51.5029 11.6126L52.1571 13.5025L54.0471 12.8483L53.3929 10.9584ZM59.1645 9.72163L57.2935 10.4284L58.4061 13.3736L60.5993 11.1149L59.1645 9.72163ZM55.9732 1.27426L56.2074 -0.71198L52.9393 -1.09733L54.1023 1.98106L55.9732 1.27426ZM65.3805 3.32004L66.8154 4.7133L69.0593 2.4024L65.9929 1.4161L65.3805 3.32004ZM37.4625 41.4901L39.3374 42.1865L40.0002 40.4018L38.2503 39.6518L37.4625 41.4901ZM36.4572 44.1968L36.1096 46.1663L37.7515 46.4561L38.332 44.8931L36.4572 44.1968ZM34.9072 40.395L35.6951 38.5567L33.9404 37.8047L33.1076 39.5224L34.9072 40.395ZM34.544 41.1442L32.7443 40.2716L32.7443 40.2716L34.544 41.1442ZM33.5299 43.2357L31.9935 44.516L33.9775 46.8968L35.3295 44.1082L33.5299 43.2357ZM32.0419 41.4501L30.5055 42.7304L30.5055 42.7304L32.0419 41.4501ZM29.1222 37.9464L27.5858 39.2268L27.5858 39.2268L29.1222 37.9464ZM27.5923 36.1105L27.1072 34.1702L24.016 34.943L26.0559 37.3909L27.5923 36.1105ZM29.9107 35.5309L29.4257 33.5906L29.4257 33.5906L29.9107 35.5309ZM35.1662 34.217L35.6513 36.1573L35.6513 36.1573L35.1662 34.217ZM37.8647 33.5424L39.7524 34.2031L40.9776 30.7027L37.3796 31.6021L37.8647 33.5424ZM36.9458 36.1678L35.0581 35.5071L35.0581 35.5071L36.9458 36.1678ZM36.485 37.4844L34.5973 36.8237L34.0217 38.4683L35.5719 39.2638L36.485 37.4844ZM39.8949 39.2342L38.9817 41.0136L40.0187 41.5457L40.9929 40.9058L39.8949 39.2342ZM40.7441 38.3572L42.5998 39.1033L42.5998 39.1033L40.7441 38.3572ZM40.7296 37.9312L38.885 38.7041L38.885 38.7041L40.7296 37.9312ZM39.6065 36.7359L37.9937 35.5532L36.8109 37.166L38.4237 38.3487L39.6065 36.7359ZM41.3806 34.3167L42.5633 32.7039L40.9505 31.5211L39.7677 33.1339L41.3806 34.3167ZM43.4965 36.7719L45.3411 35.999L45.3411 35.999L43.4965 36.7719ZM43.5276 39.4764L41.6719 38.7303L41.6719 38.7303L43.5276 39.4764ZM42.8863 40.5507L41.3337 39.2898L39.6642 41.3457L42.0984 42.3889L42.8863 40.5507ZM45.318 41.5928L47.1563 42.3807L47.9441 40.5424L46.1058 39.7545L45.318 41.5928ZM44.1362 44.3503L43.3484 46.1885L45.1867 46.9764L45.9745 45.1381L44.1362 44.3503ZM40.2233 42.6733L41.0111 40.835L39.08 40.0074L38.3484 41.9769L40.2233 42.6733ZM39.3355 45.0635L37.4606 44.3671L36.6933 46.433L38.8237 46.9969L39.3355 45.0635ZM40.2935 45.3171L42.2269 45.8289L42.7387 43.8955L40.8053 43.3837L40.2935 45.3171ZM39.5258 48.2172L39.014 50.1506L40.9475 50.6624L41.4592 48.729L39.5258 48.2172ZM34.5623 46.9033L32.6091 46.4733L32.1968 48.346L34.0505 48.8367L34.5623 46.9033ZM35.2068 43.9761L35.5544 42.0065L33.666 41.6733L33.2536 43.546L35.2068 43.9761ZM53.3887 14.5109L53.8835 16.4487L53.8835 16.4487L53.3887 14.5109ZM58.1371 16.4579L56.6072 17.7462L56.6072 17.7462L58.1371 16.4579ZM51.1871 18.0444L49.2897 18.6769L49.2897 18.6769L51.1871 18.0444ZM52.1996 19.5484L51.8548 21.5185L58.7533 22.7257L53.5327 18.0575L52.1996 19.5484ZM49.28 19.0375L48.266 20.7614L48.5783 20.9451L48.9352 21.0076L49.28 19.0375ZM47.2297 17.8314L48.2438 16.1076L46.5199 15.0935L45.5058 16.8174L47.2297 17.8314ZM46.7778 18.5996L46.4331 20.5697L47.7988 20.8087L48.5017 19.6137L46.7778 18.5996ZM41.6278 17.6984L41.2831 19.6684L41.2831 19.6684L41.6278 17.6984ZM36.5926 16.8172L36.9373 14.8471L30.2236 13.6722L35.2379 18.2886L36.5926 16.8172ZM40.3533 20.2795L38.9987 21.7509L38.9987 21.7509L40.3533 20.2795ZM48.817 28.0714L50.6681 28.8287L51.1946 27.5418L50.1716 26.6001L48.817 28.0714ZM48.4482 28.9729L46.5971 28.2157L45.8399 30.0668L47.691 30.824L48.4482 28.9729ZM51.2249 30.1088L50.4676 31.9599L52.3187 32.7172L53.076 30.8661L51.2249 30.1088ZM52.5387 26.8971L54.3898 27.6544L55.1471 25.8033L53.296 25.0461L52.5387 26.8971ZM51.5166 26.479L50.1619 27.9504L50.4265 28.1939L50.7593 28.3301L51.5166 26.479ZM47.6937 22.9595L45.9699 21.9455L45.1512 23.3373L46.3391 24.4309L47.6937 22.9595ZM48.3092 21.9132L48.654 19.9431L47.2883 19.7041L46.5853 20.8992L48.3092 21.9132ZM52.7895 22.6972L53.1343 20.7272L53.1343 20.7272L52.7895 22.6972ZM53.0391 22.7409L52.6943 24.711L53.027 24.7692L53.3604 24.7149L53.0391 22.7409ZM53.2891 22.7002L52.9678 20.7262L52.9678 20.7262L53.2891 22.7002ZM57.3279 21.28L58.426 22.9515L58.426 22.9515L57.3279 21.28ZM58.9033 19.301L56.9741 18.7735L56.9741 18.7735L58.9033 19.301ZM55.7329 18.2644L54.9901 20.1214L57.2206 16.9278L55.7329 18.2644ZM54.3117 17.4008L54.3693 15.4016L47.6062 15.2068L53.1764 19.0474L54.3117 17.4008ZM54.4291 17.7429L52.6334 16.8624L51.6838 18.7989L53.6864 19.5999L54.4291 17.7429ZM54.4894 17.6653L55.8823 19.1005L55.8824 19.1004L54.4894 17.6653ZM54.6412 17.5703L55.2999 19.4587L55.2999 19.4587L54.6412 17.5703ZM54.6947 17.5572L56.6793 17.3092L56.6757 17.2811L56.6714 17.2531L54.6947 17.5572ZM54.5887 17.5374L54.0187 19.4544L54.0188 19.4545L54.5887 17.5374ZM37.7976 6.25724L36.0616 7.25039L36.0616 7.25039L37.7976 6.25724ZM29.9027 14.8L30.8958 16.536L30.8958 16.536L29.9027 14.8ZM26.4319 8.73334L25.4388 6.99735L25.4388 6.99735L26.4319 8.73334ZM18.537 17.2761L20.273 16.283L20.273 16.283L18.537 17.2761ZM9.81381 35.2046L9.0217 37.041L9.02171 37.041L9.81381 35.2046ZM15.9989 30.6899L17.8353 31.482L17.8353 31.482L15.9989 30.6899ZM8.85273 27.6076L7.01628 26.8155L7.01628 26.8155L8.85273 27.6076ZM26.9677 25.7614L28.1945 27.3409L28.1945 27.3409L26.9677 25.7614ZM28.4239 21.2106L26.8444 22.4374L26.8444 22.4374L28.4239 21.2106ZM22.1981 26.0463L20.6185 27.2732L20.6185 27.2732L22.1981 26.0463ZM23.6543 21.4955L24.8811 23.0751L24.8811 23.0751L23.6543 21.4955ZM96.6676 54.6121L96.8854 56.6002L96.8854 56.6002L96.6676 54.6121ZM94.2266 48.4178L96.2147 48.2L96.2147 48.2L94.2266 48.4178ZM95.2684 41.8419L95.0505 39.8538L95.0505 39.8538L95.2684 41.8419ZM26.9781 49.2382L27.7173 47.3798L25.5025 46.499L25.0196 48.833L26.9781 49.2382ZM28.6392 49.8989L29.3784 48.0405L29.3784 48.0405L28.6392 49.8989ZM26.616 50.9888L24.6574 50.5836L24.6574 50.5836L26.616 50.9888ZM25.7401 55.2224L27.6986 55.6276L27.6986 55.6276L25.7401 55.2224ZM25.4884 56.4385L23.5299 56.0333L23.1944 57.6549L24.7249 58.2871L25.4884 56.4385ZM26.6363 56.9127L27.3998 55.0641L27.3998 55.0641L26.6363 56.9127ZM32.184 59.2041L34.1354 59.6422L34.5044 57.9986L32.9475 57.3556L32.184 59.2041ZM31.2272 63.4662L30.5497 65.348L32.6822 66.1156L33.1786 63.9043L31.2272 63.4662ZM25.5272 61.4142L26.2047 59.5324L24.3229 58.855L23.6455 60.7368L25.5272 61.4142ZM24.5111 64.2369L22.6293 63.5594L21.9519 65.4412L23.8336 66.1187L24.5111 64.2369ZM31.8104 66.8646L32.4878 64.9828L32.4878 64.9828L31.8104 66.8646ZM33.4097 67.4404L32.7322 69.3222L34.8647 70.0898L35.3611 67.8785L33.4097 67.4404ZM33.782 65.7818L35.7334 66.2199L35.7334 66.2199L33.782 65.7818ZM35.3878 58.6286L37.3393 59.0666L37.3393 59.0666L35.3878 58.6286ZM35.6646 57.3959L37.616 57.834L37.985 56.1904L36.4281 55.5474L35.6646 57.3959ZM34.4969 56.9136L35.2604 55.0651L35.2604 55.0651L34.4969 56.9136ZM28.9295 54.614L26.9709 54.2088L26.6354 55.8304L28.1659 56.4625L28.9295 54.614ZM29.1916 53.3472L29.9307 51.4888L27.716 50.6079L27.233 52.9419L29.1916 53.3472ZM39.125 57.2979L41.0653 57.783L41.4895 56.086L39.8641 55.4395L39.125 57.2979ZM38.8924 58.2282L36.9521 57.7431L36.4671 59.6834L38.4073 60.1685L38.8924 58.2282ZM41.8028 58.9558L41.3178 60.8961L43.2581 61.3811L43.7431 59.4409L41.8028 58.9558ZM41.9376 58.4166L42.6768 56.5582L40.552 55.7131L39.9974 57.9315L41.9376 58.4166ZM42.0004 58.4416L41.2612 60.3L43.4254 61.1608L43.9492 58.8913L42.0004 58.4416ZM42.3932 56.7395L40.4444 56.2898L40.4444 56.2898L42.3932 56.7395ZM42.8311 54.8417L44.7799 55.2914L45.2255 53.3602L43.2985 52.8971L42.8311 54.8417ZM39.9143 54.1406L40.3817 52.196L38.4547 51.7328L37.974 53.6555L39.9143 54.1406ZM39.8591 54.3614L39.12 56.2198L41.2448 57.0649L41.7994 54.8464L39.8591 54.3614ZM80.4705 16.9346L80.1381 14.9624L80.1381 14.9624L80.4705 16.9346ZM81.3757 17.0257L83.2417 16.3058L82.9134 15.4549L82.0557 15.1449L81.3757 17.0257ZM78.4883 22.3022L76.5161 22.6346L76.5161 22.6346L78.4883 22.3022ZM82.1203 26.7236L82.4526 28.6958L82.4526 28.6958L82.1203 26.7236ZM83.4096 25.8377L85.0416 26.9938L85.4713 26.3872L85.4005 25.6472L83.4096 25.8377ZM81.6027 66.0403L80.0142 64.8251L78.625 66.6409L80.6095 67.7763L81.6027 66.0403ZM86.876 58.1163L88.2685 56.6807L86.4233 54.8909L85.1421 57.1195L86.876 58.1163ZM74.5311 90.7136L76.3478 89.8771L76.3478 89.8771L74.5311 90.7136ZM66.3099 94.4995L68.1265 93.663L68.1265 93.6629L66.3099 94.4995ZM49.3871 88.733L49.0608 86.7598L49.0608 86.7598L49.3871 88.733ZM50.7125 88.519L50.9953 90.4989L50.9953 90.4989L50.7125 88.519ZM43.6144 89.6635L43.3045 87.6877L41.1876 88.0197L41.6646 90.1087L43.6144 89.6635ZM56.5497 89.0798L58.5478 88.9915L58.4706 87.2461L56.7307 87.088L56.5497 89.0798ZM53.5517 88.7593L53.7809 86.7724L53.7494 86.7688L53.7178 86.7662L53.5517 88.7593ZM53.5514 88.7592L53.3122 90.7449L53.3487 90.7493L53.3853 90.7523L53.5514 88.7592ZM53.5495 88.759L53.2984 90.7432L53.3103 90.7446L53.5495 88.759ZM53.5486 88.7589L53.7998 86.7747L53.7888 86.7733L53.7779 86.7721L53.5486 88.7589ZM33.0179 83.861L32.9419 85.8596L34.1454 85.9053L34.7488 84.863L33.0179 83.861ZM33.4559 81.6272L35.4391 81.3685L35.318 80.4399L34.5272 79.9383L33.4559 81.6272ZM29.418 78.8876L30.5876 77.2653L29.7589 76.6679L28.7892 76.9891L29.418 78.8876ZM27.6621 83.8346L25.9224 84.8212L26.5287 85.8905L27.7565 85.8324L27.6621 83.8346ZM7.58313 58.8678L9.24586 57.7564L8.62228 56.8235L7.50115 56.8695L7.58313 58.8678ZM6.27203 59.3499L4.95975 57.8406L4.95974 57.8406L6.27203 59.3499ZM14.29 67.465L16.0805 68.3563L16.6875 67.1368L15.7751 66.1254L14.29 67.465ZM13.8392 68.053L12.527 66.5437L12.527 66.5437L13.8392 68.053ZM7.63199 65.8088L6.12272 67.1211L6.12272 67.1211L7.63199 65.8088ZM59.0634 12.2839L57.9451 9.32344L54.2032 10.737L55.3216 13.6975L59.0634 12.2839ZM59.8979 14.4927L59.0634 12.2839L55.3216 13.6975L56.156 15.9063L59.8979 14.4927ZM58.237 12.1123L56.5921 13.8063L59.4618 16.5928L61.1067 14.8988L58.237 12.1123ZM61.4036 8.85116L58.237 12.1123L61.1067 14.8988L64.2733 11.6377L61.4036 8.85116ZM63.2142 12.9256L64.3785 11.5205L61.2984 8.96839L60.1341 10.3735L63.2142 12.9256ZM65.2603 12.0235L62.9502 10.1095L60.3982 13.1896L62.7082 15.1036L65.2603 12.0235ZM69.21 4.12193L62.4442 12.2876L65.5243 14.8396L72.2901 6.674L69.21 4.12193ZM102.056 50.9277C102.056 29.882 89.5531 11.7606 71.5787 3.57772L69.9214 7.21821C86.5216 14.7755 98.0555 31.5068 98.0555 50.9277H102.056ZM50.0555 102.928C78.7743 102.928 102.056 79.6465 102.056 50.9277H98.0555C98.0555 77.4374 76.5652 98.9277 50.0555 98.9277V102.928ZM-1.94446 50.9277C-1.94446 79.6465 21.3367 102.928 50.0555 102.928V98.9277C23.5459 98.9277 2.05554 77.4374 2.05554 50.9277H-1.94446ZM50.0555 -1.07227C21.3367 -1.07227 -1.94446 22.2089 -1.94446 50.9277H2.05554C2.05554 24.4181 23.5459 2.92773 50.0555 2.92773V-1.07227ZM52.7631 -1.00294C51.8662 -1.04898 50.9635 -1.07227 50.0555 -1.07227V2.92773C50.8951 2.92773 51.7294 2.94927 52.5581 2.9918L52.7631 -1.00294ZM56.8844 6.51592L54.5315 0.287627L50.7896 1.70123L53.1425 7.92953L56.8844 6.51592ZM53.0658 10.0134L55.6677 9.1127L54.3593 5.33275L51.7573 6.23342L53.0658 10.0134ZM55.2829 10.3041L54.3015 7.46917L50.5216 8.77761L51.5029 11.6126L55.2829 10.3041ZM55.4199 8.14027L52.7387 9.06838L54.0471 12.8483L56.7283 11.9202L55.4199 8.14027ZM61.0354 9.01483L57.8442 0.567459L54.1023 1.98106L57.2935 10.4284L61.0354 9.01483ZM63.9456 1.92677L57.7296 8.32837L60.5993 11.1149L66.8154 4.7133L63.9456 1.92677ZM55.739 3.2605C58.8502 3.62735 61.8695 4.29163 64.7681 5.22397L65.9929 1.4161C62.8504 0.405312 59.5779 -0.31456 56.2074 -0.71198L55.739 3.2605ZM35.5877 40.7937L34.5823 43.5004L38.332 44.8931L39.3374 42.1865L35.5877 40.7937ZM34.1194 42.2333L36.6747 43.3284L38.2503 39.6518L35.6951 38.5567L34.1194 42.2333ZM36.3436 42.0167L36.7068 41.2675L33.1076 39.5224L32.7443 40.2716L36.3436 42.0167ZM35.3295 44.1082L36.3436 42.0167L32.7443 40.2716L31.7303 42.3631L35.3295 44.1082ZM30.5055 42.7304L31.9935 44.516L35.0664 41.9553L33.5784 40.1697L30.5055 42.7304ZM27.5858 39.2268L30.5055 42.7304L33.5784 40.1697L30.6586 36.666L27.5858 39.2268ZM26.0559 37.3909L27.5858 39.2268L30.6586 36.666L29.1287 34.8302L26.0559 37.3909ZM29.4257 33.5906L27.1072 34.1702L28.0774 38.0508L30.3958 37.4712L29.4257 33.5906ZM34.6811 32.2768L29.4257 33.5906L30.3958 37.4712L35.6513 36.1573L34.6811 32.2768ZM37.3796 31.6021L34.6811 32.2768L35.6513 36.1573L38.3497 35.4827L37.3796 31.6021ZM38.8335 36.8285L39.7524 34.2031L35.977 32.8817L35.0581 35.5071L38.8335 36.8285ZM38.3727 38.1451L38.8335 36.8285L35.0581 35.5071L34.5973 36.8237L38.3727 38.1451ZM40.808 37.4548L37.3981 35.705L35.5719 39.2638L38.9817 41.0136L40.808 37.4548ZM38.8885 37.6111C38.9107 37.5558 38.9326 37.513 38.9495 37.4828C38.9666 37.4524 38.981 37.4308 38.9903 37.4176C39.0079 37.3927 39.014 37.3885 39.0007 37.4022C38.9883 37.415 38.9648 37.4374 38.9286 37.4668C38.8928 37.4959 38.8487 37.5285 38.7968 37.5626L40.9929 40.9058C41.5327 40.5513 42.2613 39.9451 42.5998 39.1033L38.8885 37.6111ZM38.885 38.7041C38.8491 38.6184 38.7845 38.4286 38.7847 38.1676C38.7848 37.8991 38.8536 37.6979 38.8885 37.6111L42.5998 39.1033C42.6837 38.8944 42.7845 38.5739 42.7847 38.1698C42.7849 37.7732 42.6886 37.4313 42.5742 37.1583L38.885 38.7041ZM38.4237 38.3487C38.7005 38.5516 38.8418 38.6946 38.9029 38.7648C38.9653 38.8365 38.9334 38.8197 38.885 38.7041L42.5742 37.1583C42.2886 36.4767 41.7091 35.7977 40.7892 35.1231L38.4237 38.3487ZM39.7677 33.1339L37.9937 35.5532L41.2193 37.9186L42.9934 35.4994L39.7677 33.1339ZM45.3411 35.999C44.7727 34.6424 43.7418 33.5681 42.5633 32.7039L40.1978 35.9295C41.0308 36.5403 41.4603 37.0876 41.6519 37.5448L45.3411 35.999ZM45.3832 40.2225C45.897 38.9446 45.9541 37.4618 45.3411 35.999L41.6519 37.5448C41.837 37.9865 41.8143 38.3763 41.6719 38.7303L45.3832 40.2225ZM44.4388 41.8115C44.8047 41.3609 45.138 40.8323 45.3832 40.2225L41.6719 38.7303C41.5969 38.917 41.4848 39.1038 41.3337 39.2898L44.4388 41.8115ZM46.1058 39.7545L43.6741 38.7124L42.0984 42.3889L44.5301 43.4311L46.1058 39.7545ZM45.9745 45.1381L47.1563 42.3807L43.4797 40.805L42.2979 43.5624L45.9745 45.1381ZM39.4354 44.5116L43.3484 46.1885L44.924 42.512L41.0111 40.835L39.4354 44.5116ZM41.2103 45.7599L42.0981 43.3697L38.3484 41.9769L37.4606 44.3671L41.2103 45.7599ZM40.8053 43.3837L39.8473 43.1301L38.8237 46.9969L39.7817 47.2505L40.8053 43.3837ZM41.4592 48.729L42.2269 45.8289L38.3601 44.8053L37.5924 47.7054L41.4592 48.729ZM34.0505 48.8367L39.014 50.1506L40.0376 46.2838L35.0741 44.9699L34.0505 48.8367ZM33.2536 43.546L32.6091 46.4733L36.5155 47.3334L37.1601 44.4062L33.2536 43.546ZM36.8047 42.2272L35.5544 42.0065L34.8593 45.9457L36.1096 46.1663L36.8047 42.2272ZM53.8835 16.4487C54.5007 16.2911 55.5221 16.4575 56.6072 17.7462L59.6669 15.1696C57.8852 13.0539 55.3924 11.9351 52.8939 12.573L53.8835 16.4487ZM53.0845 17.412C53.0402 17.2793 53.0461 17.2005 53.0549 17.1539C53.0652 17.0991 53.0936 17.0216 53.1653 16.9249C53.3295 16.7034 53.624 16.5149 53.8835 16.4487L52.8939 12.573C51.8068 12.8506 50.7015 13.5319 49.9521 14.5426C49.1582 15.6133 48.7585 17.0831 49.2897 18.6769L53.0845 17.412ZM53.5327 18.0575C53.3043 17.8533 53.1569 17.6291 53.0845 17.4119L49.2897 18.6769C49.6154 19.6539 50.2027 20.4457 50.8665 21.0393L53.5327 18.0575ZM48.9352 21.0076L51.8548 21.5185L52.5444 17.5784L49.6248 17.0674L48.9352 21.0076ZM46.2157 19.5553L48.266 20.7614L50.294 17.3136L48.2438 16.1076L46.2157 19.5553ZM48.5017 19.6137L48.9536 18.8455L45.5058 16.8174L45.054 17.5856L48.5017 19.6137ZM41.2831 19.6684L46.4331 20.5697L47.1226 16.6296L41.9726 15.7283L41.2831 19.6684ZM36.2478 18.7873L41.2831 19.6684L41.9726 15.7283L36.9373 14.8471L36.2478 18.7873ZM41.7079 18.8081L37.9472 15.3458L35.2379 18.2886L38.9987 21.7509L41.7079 18.8081ZM50.1716 26.6001L41.7079 18.8081L38.9987 21.7509L47.4624 29.5428L50.1716 26.6001ZM50.2993 29.7302L50.6681 28.8287L46.9659 27.3142L46.5971 28.2157L50.2993 29.7302ZM51.9821 28.2577L49.2055 27.1218L47.691 30.824L50.4676 31.9599L51.9821 28.2577ZM50.6876 26.1399L49.3738 29.3516L53.076 30.8661L54.3898 27.6544L50.6876 26.1399ZM50.7593 28.3301L51.7815 28.7482L53.296 25.0461L52.2738 24.6279L50.7593 28.3301ZM46.3391 24.4309L50.1619 27.9504L52.8712 25.0076L49.0483 21.4881L46.3391 24.4309ZM46.5853 20.8992L45.9699 21.9455L49.4176 23.9736L50.0331 22.9272L46.5853 20.8992ZM53.1343 20.7272L48.654 19.9431L47.9645 23.8833L52.4448 24.6673L53.1343 20.7272ZM53.3838 20.7709L53.1343 20.7272L52.4448 24.6673L52.6943 24.711L53.3838 20.7709ZM52.9678 20.7262L52.7177 20.7669L53.3604 24.7149L53.6105 24.6742L52.9678 20.7262ZM56.2298 19.6084C55.3595 20.1801 53.9888 20.56 52.9678 20.7262L53.6105 24.6742C54.8294 24.4758 56.8568 23.9824 58.426 22.9515L56.2298 19.6084ZM56.9741 18.7735C56.9031 19.0333 56.6689 19.3199 56.2298 19.6084L58.426 22.9515C59.1933 22.4474 60.3842 21.468 60.8325 19.8285L56.9741 18.7735ZM56.6072 17.7462C56.8069 17.9833 56.9157 18.1934 56.9649 18.3577C57.0094 18.5067 57.0119 18.6352 56.9741 18.7735L60.8325 19.8285C61.3487 17.9405 60.6102 16.2898 59.6669 15.1696L56.6072 17.7462ZM57.2206 16.9278C56.3022 15.9056 55.3117 15.4288 54.3693 15.4016L54.2541 19.4C54.1691 19.3975 54.0993 19.3857 54.0464 19.3717C53.9935 19.3578 53.9646 19.3435 53.9595 19.3409C53.9497 19.3358 54.0525 19.3866 54.2452 19.6011L57.2206 16.9278ZM53.6864 19.5999L54.9901 20.1214L56.4757 16.4075L55.1719 15.886L53.6864 19.5999ZM53.0964 16.2302C52.8499 16.4694 52.7095 16.7073 52.6334 16.8624L56.2249 18.6235C56.1531 18.7698 56.0451 18.9425 55.8823 19.1005L53.0964 16.2302ZM53.9824 15.6819C53.6767 15.7885 53.366 15.9685 53.0963 16.2303L55.8824 19.1004C55.71 19.2678 55.5109 19.3851 55.2999 19.4587L53.9824 15.6819ZM56.6714 17.2531C56.3432 16.4248 55.4636 15.711 55.2275 15.6295C55.1303 15.6053 54.9796 15.5776 54.9269 15.5708C54.8422 15.5609 54.7753 15.5588 54.7611 15.5583C54.716 15.5568 54.6807 15.5573 54.6726 15.5574C54.6474 15.5576 54.6277 15.5584 54.6213 15.5586C54.604 15.5592 54.5901 15.56 54.5823 15.5604C54.5645 15.5614 54.5488 15.5625 54.5357 15.5636C54.5086 15.5657 54.4823 15.5683 54.4569 15.5713C54.4057 15.5774 54.354 15.5854 54.3018 15.5955C54.1971 15.6157 54.0903 15.6442 53.9824 15.6819L55.2999 19.4587C55.2269 19.4841 55.1469 19.5062 55.0602 19.5229C55.0171 19.5312 54.9722 19.5383 54.9256 19.5438C54.9025 19.5465 54.8779 19.549 54.852 19.551C54.8394 19.552 54.8241 19.5531 54.8067 19.5541C54.799 19.5545 54.7852 19.5553 54.768 19.5559C54.7616 19.5561 54.7419 19.5568 54.7168 19.5571C54.7087 19.5572 54.6734 19.5576 54.6282 19.5561C54.6141 19.5557 54.5472 19.5536 54.4625 19.5437C54.4098 19.5369 54.2591 19.5092 54.1619 19.485C53.9257 19.4035 53.0462 18.6897 52.718 17.8614L56.6714 17.2531ZM54.0188 19.4545C54.149 19.4932 54.2796 19.5216 54.4102 19.5386C54.4754 19.5471 54.5408 19.5528 54.6062 19.5555C54.6387 19.5568 54.6719 19.5575 54.7058 19.5572C54.7224 19.5571 54.7408 19.5568 54.7606 19.5562C54.7699 19.5559 54.7831 19.5554 54.7989 19.5545C54.8053 19.5542 54.8205 19.5534 54.84 19.552C54.8465 19.5515 54.872 19.5496 54.9045 19.5462C54.9143 19.5452 54.9629 19.5402 55.0242 19.5299C55.0633 19.523 55.1779 19.498 55.2529 19.4778C55.4594 19.4053 56.4757 18.4671 56.6793 17.3092L52.7101 17.8053C52.9137 16.6473 53.93 15.7092 54.1365 15.6367C54.2115 15.6165 54.3261 15.5915 54.3652 15.5846C54.4265 15.5743 54.4751 15.5693 54.4849 15.5683C54.5174 15.5648 54.5429 15.563 54.5494 15.5625C54.5688 15.5611 54.584 15.5603 54.5903 15.56C54.606 15.5592 54.619 15.5587 54.628 15.5584C54.6473 15.5577 54.6649 15.5574 54.6805 15.5573C54.7122 15.5571 54.7422 15.5577 54.7705 15.5589C54.8273 15.5612 54.8798 15.566 54.9276 15.5722C55.0234 15.5847 55.101 15.6032 55.1586 15.6203L54.0188 19.4545ZM53.1764 19.0474C53.4235 19.2177 53.7103 19.3627 54.0187 19.4544L55.1586 15.6203C55.2333 15.6425 55.2904 15.6668 55.3315 15.6869C55.3738 15.7076 55.4118 15.73 55.447 15.7543L53.1764 19.0474ZM68.0847 54.3876C73.7145 54.3876 78.1139 49.6246 78.1139 43.9569H74.1139C74.1139 47.6016 71.3237 50.3876 68.0847 50.3876V54.3876ZM58.0555 43.9569C58.0555 49.6246 62.4549 54.3876 68.0847 54.3876V50.3876C64.8457 50.3876 62.0555 47.6016 62.0555 43.9569H58.0555ZM68.0847 33.5263C62.4549 33.5263 58.0555 38.2893 58.0555 43.9569H62.0555C62.0555 40.3123 64.8457 37.5263 68.0847 37.5263V33.5263ZM78.1139 43.9569C78.1139 38.2893 73.7145 33.5263 68.0847 33.5263V37.5263C71.3237 37.5263 74.1139 40.3123 74.1139 43.9569H78.1139ZM36.0616 7.25039C35.8417 6.86598 36.0565 6.67353 35.8829 7.07178C35.7277 7.42788 35.3715 7.96987 34.7352 8.65841C33.4793 10.0174 31.4421 11.6151 28.9095 13.0641L30.8958 16.536C33.6818 14.9421 36.0714 13.1061 37.6728 11.3732C38.4652 10.5158 39.1455 9.59736 39.5497 8.67006C39.9355 7.78492 40.2327 6.48614 39.5336 5.26409L36.0616 7.25039ZM27.4251 10.4693C29.9577 9.02042 32.3675 8.07408 34.1756 7.68018C35.0916 7.48061 35.7394 7.44832 36.125 7.495C36.5563 7.5472 36.2815 7.6348 36.0616 7.25039L39.5336 5.26409C38.8345 4.04205 37.5642 3.64 36.6056 3.52398C35.6014 3.40243 34.4649 3.52334 33.3241 3.77186C31.0186 4.27413 28.2248 5.40347 25.4388 6.99735L27.4251 10.4693ZM20.273 16.283C20.4929 16.6674 20.2781 16.8599 20.4517 16.4616C20.6069 16.1055 20.9631 15.5635 21.5994 14.875C22.8553 13.516 24.8925 11.9182 27.4251 10.4693L25.4388 6.99735C22.6527 8.59123 20.2632 10.4272 18.6617 12.1601C17.8694 13.0175 17.1891 13.936 16.7849 14.8633C16.3991 15.7485 16.1019 17.0472 16.801 18.2693L20.273 16.283ZM28.9095 13.0641C26.3769 14.513 23.9671 15.4593 22.159 15.8532C21.243 16.0528 20.5952 16.0851 20.2096 16.0384C19.7783 15.9862 20.0531 15.8986 20.273 16.283L16.801 18.2693C17.5001 19.4913 18.7704 19.8934 19.729 20.0094C20.7332 20.131 21.8697 20.01 23.0105 19.7615C25.316 19.2593 28.1098 18.1299 30.8958 16.536L28.9095 13.0641ZM9.02171 37.041C10.9222 37.8607 12.8718 37.1672 14.2845 36.136C15.7396 35.0739 16.9975 33.4245 17.8353 31.482L14.1624 29.8978C13.5577 31.2998 12.7097 32.3333 11.9262 32.9052C11.1004 33.508 10.6787 33.3995 10.6059 33.3681L9.02171 37.041ZM7.01628 26.8155C6.17842 28.7581 5.84202 30.8049 6.06812 32.5921C6.28763 34.3273 7.12119 36.2213 9.0217 37.041L10.6059 33.3681C10.5331 33.3367 10.1648 33.1045 10.0365 32.0901C9.91475 31.1278 10.0845 29.8017 10.6892 28.3997L7.01628 26.8155ZM15.8299 21.2565C13.9294 20.4368 11.9798 21.1303 10.5671 22.1615C9.11199 23.2236 7.85413 24.873 7.01628 26.8155L10.6892 28.3997C11.2939 26.9977 12.1419 25.9642 12.9254 25.3924C13.7512 24.7895 14.1728 24.898 14.2457 24.9294L15.8299 21.2565ZM17.8353 31.482C18.6732 29.5395 19.0096 27.4927 18.7835 25.7054C18.564 23.9703 17.7304 22.0763 15.8299 21.2565L14.2457 24.9294C14.3185 24.9609 14.6868 25.1931 14.8151 26.2075C14.9368 27.1698 14.7671 28.4958 14.1624 29.8978L17.8353 31.482ZM23.165 38.592C23.165 38.6674 23.1357 38.7685 23.0207 38.8742C22.9029 38.9824 22.7114 39.0737 22.4643 39.0737V43.0737C24.8979 43.0737 27.165 41.223 27.165 38.592H23.165ZM22.4643 38.1102C22.7114 38.1102 22.9029 38.2015 23.0207 38.3098C23.1357 38.4154 23.165 38.5165 23.165 38.592H27.165C27.165 35.9609 24.8979 34.1102 22.4643 34.1102V38.1102ZM21.7635 38.592C21.7635 38.5165 21.7928 38.4154 21.9078 38.3098C22.0256 38.2015 22.2172 38.1102 22.4643 38.1102V34.1102C20.0307 34.1102 17.7635 35.9609 17.7635 38.592H21.7635ZM22.4643 39.0737C22.2172 39.0737 22.0256 38.9824 21.9078 38.8742C21.7928 38.7685 21.7635 38.6674 21.7635 38.592H17.7635C17.7635 41.223 20.0307 43.0737 22.4643 43.0737V39.0737ZM28.1945 27.3409C29.3313 26.4579 30.1868 25.2915 30.5884 24.0365C30.9866 22.7924 30.9831 21.2451 30.0034 19.9838L26.8444 22.4374C26.7796 22.3541 26.9077 22.4146 26.7787 22.8174C26.6533 23.2095 26.3232 23.7295 25.7408 24.1819L28.1945 27.3409ZM20.6185 27.2732C21.5982 28.5345 23.0965 28.9207 24.4005 28.8428C25.7159 28.7642 27.0577 28.2239 28.1945 27.3409L25.7408 24.1819C25.1584 24.6342 24.5729 24.8254 24.162 24.8499C23.7397 24.8751 23.7128 24.7361 23.7776 24.8195L20.6185 27.2732ZM22.4275 19.916C21.2907 20.799 20.4351 21.9654 20.0335 23.2204C19.6354 24.4646 19.6389 26.0118 20.6185 27.2732L23.7776 24.8195C23.8423 24.9028 23.7143 24.8424 23.8432 24.4395C23.9687 24.0474 24.2987 23.5274 24.8811 23.0751L22.4275 19.916ZM30.0034 19.9838C29.0237 18.7225 27.5254 18.3362 26.2214 18.4141C24.9061 18.4927 23.5643 19.033 22.4275 19.916L24.8811 23.0751C25.4635 22.6227 26.049 22.4316 26.46 22.407C26.8822 22.3818 26.9091 22.5208 26.8444 22.4374L30.0034 19.9838ZM52.0701 57.5701C52.0701 58.6424 51.2008 59.5117 50.1285 59.5117V63.5117C53.41 63.5117 56.0701 60.8515 56.0701 57.5701H52.0701ZM50.1285 55.6285C51.2008 55.6285 52.0701 56.4978 52.0701 57.5701H56.0701C56.0701 54.2886 53.41 51.6285 50.1285 51.6285V55.6285ZM48.1869 57.5701C48.1869 56.4978 49.0562 55.6285 50.1285 55.6285V51.6285C46.847 51.6285 44.1869 54.2886 44.1869 57.5701H48.1869ZM50.1285 59.5117C49.0562 59.5117 48.1869 58.6424 48.1869 57.5701H44.1869C44.1869 60.8515 46.847 63.5117 50.1285 63.5117V59.5117ZM63.1942 69.4971C66.3992 69.4971 69.0628 66.938 69.0628 63.7015H65.0628C65.0628 64.6574 64.2623 65.4971 63.1942 65.4971V69.4971ZM57.3256 63.7015C57.3256 66.938 59.9891 69.4971 63.1942 69.4971V65.4971C62.1261 65.4971 61.3256 64.6574 61.3256 63.7015H57.3256ZM63.1942 57.9058C59.9891 57.9058 57.3256 60.4649 57.3256 63.7015H61.3256C61.3256 62.7455 62.1261 61.9058 63.1942 61.9058V57.9058ZM69.0628 63.7015C69.0628 60.4649 66.3992 57.9058 63.1942 57.9058V61.9058C64.2623 61.9058 65.0628 62.7455 65.0628 63.7015H69.0628ZM49.8803 72.4606C49.8803 72.5612 49.8393 72.6952 49.6872 72.8321C49.5318 72.972 49.2804 73.0883 48.9606 73.0883V77.0883C51.4743 77.0883 53.8803 75.2094 53.8803 72.4606H49.8803ZM48.9606 71.8328C49.2804 71.8328 49.5318 71.9492 49.6872 72.0891C49.8393 72.2259 49.8803 72.3599 49.8803 72.4606H53.8803C53.8803 69.7117 51.4743 67.8328 48.9606 67.8328V71.8328ZM48.0409 72.4606C48.0409 72.3599 48.0819 72.2259 48.234 72.0891C48.3894 71.9492 48.6408 71.8328 48.9606 71.8328V67.8328C46.4469 67.8328 44.0409 69.7117 44.0409 72.4606H48.0409ZM48.9606 73.0883C48.6408 73.0883 48.3894 72.972 48.234 72.8321C48.0819 72.6952 48.0409 72.5612 48.0409 72.4606H44.0409C44.0409 75.2094 46.4469 77.0883 48.9606 77.0883V73.0883ZM96.8854 56.6002C98.1787 56.4585 98.8244 55.4405 99.0794 54.9304C99.382 54.325 99.56 53.6108 99.6694 52.92C99.8929 51.5092 99.9043 49.7061 99.6975 47.8184L95.7213 48.254C95.9008 49.8928 95.8722 51.3249 95.7187 52.2941C95.6396 52.7934 95.5448 53.0553 95.5015 53.1418C95.4107 53.3235 95.6373 52.7131 96.4498 52.624L96.8854 56.6002ZM92.2385 48.6356C92.4453 50.5233 92.8469 52.2812 93.3706 53.6102C93.627 54.2608 93.9554 54.9196 94.382 55.4451C94.7414 55.8879 95.5921 56.7419 96.8854 56.6002L96.4498 52.624C97.2622 52.535 97.6157 53.0819 97.4876 52.9242C97.4267 52.8491 97.2774 52.6139 97.0921 52.1436C96.7323 51.2307 96.3942 49.8387 96.2147 48.2L92.2385 48.6356ZM95.0505 39.8538C93.7573 39.9955 93.1116 41.0135 92.8566 41.5236C92.554 42.129 92.376 42.8432 92.2666 43.534C92.0431 44.9448 92.0317 46.7479 92.2385 48.6356L96.2147 48.2C96.0351 46.5612 96.0638 45.1291 96.2173 44.1599C96.2964 43.6606 96.3912 43.3987 96.4344 43.3122C96.5253 43.1304 96.2986 43.7409 95.4862 43.83L95.0505 39.8538ZM99.6975 47.8184C99.4907 45.9307 99.0891 44.1728 98.5654 42.8438C98.309 42.1932 97.9806 41.5344 97.554 41.0089C97.1946 40.5661 96.3438 39.712 95.0505 39.8538L95.4862 43.83C94.6738 43.919 94.3203 43.3721 94.4484 43.5298C94.5093 43.6049 94.6586 43.8401 94.8439 44.3104C95.2037 45.2233 95.5417 46.6153 95.7213 48.254L99.6975 47.8184ZM26.239 51.0967L27.9001 51.7573L29.3784 48.0405L27.7173 47.3798L26.239 51.0967ZM28.5745 51.394L28.9367 49.6435L25.0196 48.833L24.6574 50.5836L28.5745 51.394ZM27.6986 55.6276L28.5745 51.394L24.6574 50.5836L23.7815 54.8172L27.6986 55.6276ZM27.447 56.8438L27.6986 55.6276L23.7815 54.8172L23.5299 56.0333L27.447 56.8438ZM27.3998 55.0641L26.252 54.59L24.7249 58.2871L25.8728 58.7612L27.3998 55.0641ZM32.9475 57.3556L27.3998 55.0641L25.8728 58.7612L31.4205 61.0526L32.9475 57.3556ZM33.1786 63.9043L34.1354 59.6422L30.2325 58.766L29.2758 63.0281L33.1786 63.9043ZM24.8498 63.296L30.5497 65.348L31.9046 61.5844L26.2047 59.5324L24.8498 63.296ZM26.3929 64.9143L27.409 62.0917L23.6455 60.7368L22.6293 63.5594L26.3929 64.9143ZM32.4878 64.9828L25.1885 62.3551L23.8336 66.1187L31.1329 68.7464L32.4878 64.9828ZM34.0871 65.5586L32.4878 64.9828L31.1329 68.7464L32.7322 69.3222L34.0871 65.5586ZM31.8306 65.3438L31.4583 67.0023L35.3611 67.8785L35.7334 66.2199L31.8306 65.3438ZM33.4364 58.1905L31.8306 65.3438L35.7334 66.2199L37.3393 59.0666L33.4364 58.1905ZM33.7131 56.9578L33.4364 58.1905L37.3393 59.0666L37.616 57.834L33.7131 56.9578ZM33.7334 58.7621L34.901 59.2444L36.4281 55.5474L35.2604 55.0651L33.7334 58.7621ZM28.1659 56.4625L33.7334 58.7621L35.2604 55.0651L29.693 52.7655L28.1659 56.4625ZM27.233 52.9419L26.9709 54.2088L30.888 55.0192L31.1501 53.7524L27.233 52.9419ZM39.8641 55.4395L29.9307 51.4888L28.4524 55.2056L38.3858 59.1563L39.8641 55.4395ZM40.8327 58.7132L41.0653 57.783L37.1847 56.8129L36.9521 57.7431L40.8327 58.7132ZM42.2879 57.0155L39.3775 56.2879L38.4073 60.1685L41.3178 60.8961L42.2879 57.0155ZM39.9974 57.9315L39.8626 58.4707L43.7431 59.4409L43.8779 58.9017L39.9974 57.9315ZM42.7395 56.5832L42.6768 56.5582L41.1985 60.275L41.2612 60.3L42.7395 56.5832ZM40.4444 56.2898L40.0516 57.9918L43.9492 58.8913L44.3419 57.1892L40.4444 56.2898ZM40.8823 54.3919L40.4444 56.2898L44.3419 57.1892L44.7799 55.2914L40.8823 54.3919ZM39.4469 56.0852L42.3637 56.7863L43.2985 52.8971L40.3817 52.196L39.4469 56.0852ZM41.7994 54.8464L41.8546 54.6257L37.974 53.6555L37.9188 53.8763L41.7994 54.8464ZM27.9001 51.7573L39.12 56.2198L40.5983 52.503L29.3784 48.0405L27.9001 51.7573ZM80.8029 18.9068C80.771 18.9122 80.7415 18.9124 80.7185 18.91C80.6964 18.9077 80.6883 18.9039 80.6958 18.9066L82.0557 15.1449C81.4682 14.9325 80.8146 14.8484 80.1381 14.9624L80.8029 18.9068ZM80.4604 21.9698C80.28 20.8991 80.386 19.9839 80.6033 19.3956C80.8426 18.7475 81.0372 18.8673 80.8029 18.9068L80.1381 14.9624C78.3535 15.2632 77.3291 16.7152 76.851 18.0098C76.3509 19.3642 76.241 21.0022 76.5161 22.6346L80.4604 21.9698ZM81.7879 24.7514C82.0222 24.7119 81.8776 24.8888 81.4391 24.355C81.041 23.8704 80.6409 23.0406 80.4604 21.9698L76.5161 22.6346C76.7912 24.267 77.4319 25.7785 78.3483 26.8941C79.2243 27.9605 80.668 28.9966 82.4526 28.6958L81.7879 24.7514ZM81.7776 24.6816C81.7183 24.7653 81.6819 24.7903 81.6846 24.7884C81.6865 24.7871 81.6973 24.7799 81.717 24.7717C81.7371 24.7633 81.7614 24.7559 81.7879 24.7514L82.4526 28.6958C83.6144 28.5 84.4761 27.7921 85.0416 26.9938L81.7776 24.6816ZM79.5098 17.7457C80.5646 20.4794 81.1691 23.4187 81.4187 26.0282L85.4005 25.6472C85.1223 22.7391 84.449 19.4347 83.2417 16.3058L79.5098 17.7457ZM68.8583 18.592C68.8583 19.0999 68.4466 19.5117 67.9386 19.5117V23.5117C70.6557 23.5117 72.8583 21.309 72.8583 18.592H68.8583ZM67.9386 17.6723C68.4466 17.6723 68.8583 18.084 68.8583 18.592H72.8583C72.8583 15.8749 70.6557 13.6723 67.9386 13.6723V17.6723ZM67.0189 18.592C67.0189 18.084 67.4307 17.6723 67.9386 17.6723V13.6723C65.2215 13.6723 63.0189 15.8749 63.0189 18.592H67.0189ZM67.9386 19.5117C67.4307 19.5117 67.0189 19.0999 67.0189 18.592H63.0189C63.0189 21.309 65.2215 23.5117 67.9386 23.5117V19.5117ZM77.2817 38.6942C79.5957 38.6942 81.4715 36.8183 81.4715 34.5044H77.4715C77.4715 34.6092 77.3865 34.6942 77.2817 34.6942V38.6942ZM73.0919 34.5044C73.0919 36.8183 74.9677 38.6942 77.2817 38.6942V34.6942C77.1769 34.6942 77.0919 34.6092 77.0919 34.5044H73.0919ZM77.2817 30.3146C74.9677 30.3146 73.0919 32.1904 73.0919 34.5044H77.0919C77.0919 34.3996 77.1769 34.3146 77.2817 34.3146V30.3146ZM81.4715 34.5044C81.4715 32.1904 79.5957 30.3146 77.2817 30.3146V34.3146C77.3865 34.3146 77.4715 34.3996 77.4715 34.5044H81.4715ZM83.1911 67.2555C84.8958 65.0274 86.8368 62.1975 88.6099 59.1131L85.1421 57.1195C83.4652 60.0366 81.6239 62.721 80.0142 64.8251L83.1911 67.2555ZM83.7782 64.6211C83.3534 64.6211 82.9533 64.5089 82.5959 64.3043L80.6095 67.7763C81.5474 68.3129 82.629 68.6211 83.7782 68.6211V64.6211ZM86.3767 61.7306C86.3767 63.4448 85.0991 64.6211 83.7782 64.6211V68.6211C87.5367 68.6211 90.3767 65.4184 90.3767 61.7306H86.3767ZM85.4836 59.5519C86.019 60.0712 86.3767 60.8421 86.3767 61.7306H90.3767C90.3767 59.7554 89.5773 57.9501 88.2685 56.6807L85.4836 59.5519ZM72.173 96.4122C73.5209 95.7915 74.7106 94.9279 75.5191 93.9454C76.2295 93.0822 77.1027 91.5165 76.3478 89.8771L72.7145 91.5502C72.5924 91.285 72.6426 91.0836 72.6463 91.0709C72.6475 91.0668 72.6389 91.0966 72.6033 91.1592C72.5681 91.221 72.5128 91.3036 72.4305 91.4036C72.0828 91.8261 71.4222 92.3542 70.4999 92.779L72.173 96.4122ZM64.4932 95.3361C65.2482 96.9755 67.0056 97.3298 68.1233 97.3512C69.3955 97.3755 70.8251 97.0329 72.173 96.4122L70.4999 92.779C69.5775 93.2037 68.7468 93.3624 68.1997 93.3519C68.0702 93.3494 67.9715 93.3377 67.9017 93.3243C67.831 93.3107 67.8028 93.2978 67.8066 93.2995C67.8187 93.305 68.0044 93.3978 68.1265 93.663L64.4932 95.3361ZM68.668 88.8009C67.3201 89.4216 66.1304 90.2853 65.3219 91.2678C64.6115 92.1309 63.7383 93.6966 64.4932 95.3361L68.1265 93.6629C68.2486 93.9281 68.1984 94.1296 68.1947 94.1423C68.1935 94.1463 68.2021 94.1165 68.2377 94.0539C68.2729 93.9922 68.3282 93.9095 68.4105 93.8095C68.7582 93.387 69.4188 92.8589 70.3411 92.4342L68.668 88.8009ZM76.3478 89.8771C75.5928 88.2376 73.8354 87.8833 72.7177 87.862C71.4455 87.8377 70.0159 88.1802 68.668 88.8009L70.3411 92.4342C71.2635 92.0095 72.0942 91.8508 72.6413 91.8612C72.7708 91.8637 72.8695 91.8754 72.9393 91.8888C73.01 91.9024 73.0382 91.9153 73.0344 91.9136C73.0223 91.9082 72.8366 91.8154 72.7145 91.5502L76.3478 89.8771ZM49.7134 90.7062C50.4025 90.5922 50.7937 90.5277 50.9953 90.4989L50.4296 86.5391C50.172 86.5759 49.7204 86.6507 49.0608 86.7598L49.7134 90.7062ZM43.9243 91.6394C46.7505 91.1961 48.586 90.8926 49.7134 90.7062L49.0608 86.7598C47.938 86.9454 46.1148 87.2469 43.3045 87.6877L43.9243 91.6394ZM50.0555 90.8985C48.6725 90.8985 47.4841 90.6002 46.6579 90.1816C45.779 89.7362 45.5862 89.3148 45.5642 89.2184L41.6646 90.1087C42.0593 91.8378 43.4374 93.0339 44.85 93.7497C46.3153 94.4922 48.1391 94.8985 50.0555 94.8985V90.8985ZM54.5518 89.1759C54.5518 89.1793 54.5318 89.5703 53.6547 90.0729C52.8332 90.5437 51.5649 90.8985 50.0555 90.8985V94.8985C52.1339 94.8985 54.1138 94.42 55.6435 93.5435C57.1176 92.6988 58.5518 91.2285 58.5518 89.1759H54.5518ZM54.5517 89.1681C54.5518 89.1707 54.5518 89.1732 54.5518 89.1759H58.5518C58.5518 89.1143 58.5505 89.0529 58.5478 88.9915L54.5517 89.1681ZM53.3225 90.7461C54.2398 90.8519 55.3094 90.9754 56.3688 91.0716L56.7307 87.088C55.7273 86.9969 54.7053 86.8791 53.7809 86.7724L53.3225 90.7461ZM53.3853 90.7523L53.3856 90.7523L53.7178 86.7662L53.7175 86.7661L53.3853 90.7523ZM53.3103 90.7446L53.3122 90.7449L53.7907 86.7736L53.7888 86.7734L53.3103 90.7446ZM53.2975 90.7431L53.2984 90.7432L53.8007 86.7748L53.7998 86.7747L53.2975 90.7431ZM50.9953 90.4989C50.8795 90.5154 50.8494 90.5042 51.0139 90.5115C51.14 90.5171 51.3168 90.5302 51.5498 90.5519C52.0158 90.5954 52.6154 90.6645 53.3194 90.7457L53.7779 86.7721C53.0899 86.6927 52.4406 86.6177 51.9211 86.5692C51.6612 86.545 51.4112 86.5252 51.1913 86.5155C51.0097 86.5074 50.7146 86.4984 50.4296 86.5391L50.9953 90.4989ZM31.4862 82.0956C31.4862 82.388 31.4094 82.6476 31.287 82.859L34.7488 84.863C35.2203 84.0486 35.4862 83.0986 35.4862 82.0956H31.4862ZM31.4727 81.886C31.4815 81.9535 31.4862 82.0234 31.4862 82.0956H35.4862C35.4862 81.85 35.4703 81.6072 35.4391 81.3685L31.4727 81.886ZM28.2485 80.51C29.7581 81.5983 31.151 82.5336 32.3847 83.3161L34.5272 79.9383C33.3603 79.1982 32.0329 78.3071 30.5876 77.2653L28.2485 80.51ZM29.2089 82.0956C29.2089 81.4007 29.6314 80.9238 30.0469 80.7862L28.7892 76.9891C26.6454 77.6991 25.2089 79.7742 25.2089 82.0956H29.2089ZM29.4018 82.8481C29.2831 82.6387 29.2089 82.383 29.2089 82.0956H25.2089C25.2089 83.0814 25.4658 84.0161 25.9224 84.8212L29.4018 82.8481ZM33.0939 81.8624C31.1961 81.7903 29.1901 81.7602 27.5677 81.8369L27.7565 85.8324C29.2104 85.7637 31.0846 85.7889 32.9419 85.8596L33.0939 81.8624ZM7.50115 56.8695C6.62739 56.9054 5.71584 57.1832 4.95975 57.8406L7.58432 60.8592C7.57556 60.8668 7.56652 60.8731 7.5586 60.8777C7.55083 60.8822 7.54701 60.8834 7.54916 60.8827C7.55357 60.8811 7.58847 60.8693 7.66512 60.8662L7.50115 56.8695ZM15.7751 66.1254C13.8069 63.9436 11.5016 61.1309 9.24586 57.7564L5.92041 59.9793C8.30338 63.5442 10.734 66.5089 12.805 68.8047L15.7751 66.1254ZM15.1515 69.5623C15.5506 69.2153 15.8581 68.803 16.0805 68.3563L12.4996 66.5738C12.4974 66.5781 12.4984 66.5753 12.5039 66.5681C12.5096 66.5607 12.5175 66.552 12.527 66.5437L15.1515 69.5623ZM6.12272 67.1211C7.34815 68.5304 8.83734 69.6071 10.3373 70.1494C11.7654 70.6657 13.6872 70.8355 15.1515 69.5623L12.527 66.5437C12.6527 66.4344 12.5158 66.6836 11.6973 66.3877C10.9506 66.1178 10.0055 65.4904 9.14126 64.4965L6.12272 67.1211ZM4.95974 57.8406C3.49542 59.1138 3.39647 61.0406 3.70936 62.5266C4.03798 64.0874 4.8973 65.7117 6.12272 67.1211L9.14126 64.4965C8.27706 63.5026 7.78712 62.4794 7.62354 61.7025C7.44422 60.8508 7.7101 60.7498 7.58432 60.8592L4.95974 57.8406Z" fill="#4F4F4F" mask="url(#path-1-inside-1)"/>
</svg>
