<svg width="125" height="141" viewBox="0 0 125 141" fill="none" xmlns="http://www.w3.org/2000/svg">
<path fill-rule="evenodd" clip-rule="evenodd" d="M5 5.11194C19.1667 12.6119 48.1 27.6119 50.5 27.6119H57.5H68H75C77.4 27.6119 106.333 12.6119 120.5 5.11194L108.5 43.1119L115.5 64.6119L83 138.112H66.5H59H42.5L10 64.6119L17 43.1119L5 5.11194ZM39.7818 85.6596L25.5 62.1119L55.25 68.613L39.7818 85.6596ZM85.7182 85.6596L100 62.1119L70.25 68.613L85.7182 85.6596Z" fill="#2196F3"/>
<path d="M5 5.11194L6.16972 2.90247L0.779415 0.0487787L2.61604 5.86477L5 5.11194ZM120.5 5.11194L122.884 5.86477L124.721 0.0487796L119.33 2.90247L120.5 5.11194ZM108.5 43.1119L106.116 42.3591L105.875 43.1236L106.123 43.8859L108.5 43.1119ZM115.5 64.6119L117.786 65.623L118.173 64.7478L117.877 63.838L115.5 64.6119ZM83 138.112V140.612H84.6281L85.2864 139.123L83 138.112ZM42.5 138.112L40.2136 139.123L40.8719 140.612H42.5V138.112ZM10 64.6119L7.62282 63.838L7.32659 64.7478L7.71355 65.623L10 64.6119ZM17 43.1119L19.3772 43.8859L19.6254 43.1236L19.384 42.3591L17 43.1119ZM25.5 62.1119L26.0337 59.6696L20.3402 58.4254L23.3624 63.4084L25.5 62.1119ZM39.7818 85.6596L37.6442 86.9561L39.3817 89.8208L41.6332 87.3396L39.7818 85.6596ZM55.25 68.613L57.1014 70.293L60.005 67.0931L55.7837 66.1706L55.25 68.613ZM100 62.1119L102.138 63.4084L105.16 58.4254L99.4663 59.6696L100 62.1119ZM85.7182 85.6596L83.8668 87.3396L86.1183 89.8208L87.8558 86.9561L85.7182 85.6596ZM70.25 68.613L69.7163 66.1706L65.495 67.0931L68.3986 70.293L70.25 68.613ZM50.5 25.1119C50.7902 25.1119 50.882 25.1799 50.5147 25.0618C50.2507 24.9768 49.8736 24.8374 49.3757 24.6357C48.3854 24.2345 47.0474 23.6399 45.4257 22.8847C42.1895 21.3776 37.9321 19.2819 33.2873 16.9418C24.0033 12.2644 13.2443 6.64782 6.16972 2.90247L3.83028 7.32141C10.9224 11.0761 21.7134 16.7094 31.0377 21.4071C35.697 23.7545 40.0084 25.8775 43.3149 27.4173C44.9646 28.1855 46.3915 28.8214 47.4982 29.2698C48.0487 29.4929 48.5532 29.6831 48.9836 29.8215C49.3107 29.9268 49.9098 30.1119 50.5 30.1119V25.1119ZM57.5 25.1119H50.5V30.1119H57.5V25.1119ZM68 25.1119H57.5V30.1119H68V25.1119ZM75 25.1119H68V30.1119H75V25.1119ZM119.33 2.90247C112.256 6.64782 101.497 12.2644 92.2127 16.9418C87.5679 19.2819 83.3105 21.3776 80.0743 22.8847C78.4526 23.6399 77.1146 24.2345 76.1243 24.6357C75.6264 24.8374 75.2493 24.9768 74.9853 25.0618C74.618 25.1799 74.7098 25.1119 75 25.1119V30.1119C75.5902 30.1119 76.1893 29.9268 76.5164 29.8215C76.9468 29.6831 77.4513 29.4929 78.0018 29.2698C79.1085 28.8214 80.5354 28.1855 82.1851 27.4173C85.4916 25.8775 89.803 23.7545 94.4623 21.4071C103.787 16.7094 114.578 11.0761 121.67 7.32141L119.33 2.90247ZM110.884 43.8648L122.884 5.86477L118.116 4.35911L106.116 42.3591L110.884 43.8648ZM117.877 63.838L110.877 42.338L106.123 43.8859L113.123 65.3859L117.877 63.838ZM85.2864 139.123L117.786 65.623L113.214 63.6009L80.7136 137.101L85.2864 139.123ZM66.5 140.612H83V135.612H66.5V140.612ZM59 140.612H66.5V135.612H59V140.612ZM42.5 140.612H59V135.612H42.5V140.612ZM7.71355 65.623L40.2136 139.123L44.7864 137.101L12.2864 63.6009L7.71355 65.623ZM14.6228 42.338L7.62282 63.838L12.3772 65.3859L19.3772 43.8859L14.6228 42.338ZM2.61604 5.86477L14.616 43.8648L19.384 42.3591L7.38396 4.35911L2.61604 5.86477ZM23.3624 63.4084L37.6442 86.9561L41.9194 84.3632L27.6376 60.8155L23.3624 63.4084ZM55.7837 66.1706L26.0337 59.6696L24.9663 64.5543L54.7163 71.0554L55.7837 66.1706ZM41.6332 87.3396L57.1014 70.293L53.3986 66.933L37.9304 83.9796L41.6332 87.3396ZM97.8624 60.8155L83.5806 84.3632L87.8558 86.9561L102.138 63.4084L97.8624 60.8155ZM70.7837 71.0554L100.534 64.5543L99.4663 59.6696L69.7163 66.1706L70.7837 71.0554ZM87.5696 83.9796L72.1014 66.933L68.3986 70.293L83.8668 87.3396L87.5696 83.9796Z" fill="#4F4F4F"/>
</svg>
