<svg width="34" height="38" viewBox="0 0 34 38" fill="none" xmlns="http://www.w3.org/2000/svg">
<path d="M6.1875 8.48322L9 8.23322L7.6875 16.4207L8.5625 23.1082L10.75 28.6082L14.75 32.3582L18.6875 33.8582H23.125L27.125 33.0457L26.75 34.6082L24.9375 36.2332L21.125 37.2332L17.3125 37.2957L11.4375 34.6707L5.875 29.2957L2.125 21.4207L1.1875 14.9207L2.25 9.98322L6.1875 8.48322Z" fill="#2196F3"/>
<path d="M8.96875 2.23319C5.86875 2.73319 3.19792 7.29569 2.25 9.51444V10.1707L6.25 8.29572L10.3125 8.35822L14.8125 9.48322L17.875 11.6707L21.4375 15.5457L23.9375 19.7332L26.125 23.8582L27.375 27.7957C27.375 28.8999 27.3625 31.2707 27.3125 31.9207C27.2625 32.5707 26.875 33.8999 26.6875 34.4832L26.9375 35.2957C27.9167 34.4832 30.275 32.3082 31.875 30.1082C33.875 27.3582 33.3125 22.6082 32.75 20.3582C32.3 18.5582 30.7083 14.3374 29.9688 12.452C29.5417 11.8895 27.8 9.68944 24.25 5.38944C19.8125 0.0144365 12.8438 1.60819 8.96875 2.23319Z" fill="#2196F3"/>
<path d="M8.80391 2.51133C-8.59629 10.8931 7.6647 45.1185 26.204 35.6139C42.967 27.0201 25.9913 -5.44592 8.80391 2.51133Z" stroke="#4F4F4F"/>
<path d="M1.85388 10.8932C4.08194 7.39198 15.8058 4.95173 23.3388 18.3201C29.3651 29.0148 27.4766 34.3763 25.779 35.7202M9.12161 8.02856C7.42404 13.3335 7.0716 20.9812 10.1826 27.3384C12.6228 32.3251 18.2461 36.0385 27.1583 33.0677" stroke="#4F4F4F"/>
<path d="M29.3551 20.8837C26.4169 22.4345 18.8818 16.7252 18.8433 12.9517C18.8433 8.21565 26.9145 6.0377 28.7776 7.36854C31.2034 9.10128 32.1274 19.4206 29.3551 20.8837Z" fill="#FFC107" stroke="#4F4F4F"/>
<ellipse cx="22.5935" cy="12.5859" rx="1.59399" ry="1.67496" fill="#4F4F4F"/>
<ellipse cx="27.1918" cy="16.7582" rx="1.81679" ry="1.64999" fill="#4F4F4F"/>
<ellipse cx="27.586" cy="10.5227" rx="1.46104" ry="1.64801" fill="#4F4F4F"/>
</svg>
