<?xml version="1.0" standalone="no"?>
<!DOCTYPE svg PUBLIC "-//W3C//DTD SVG 20010904//EN"
 "http://www.w3.org/TR/2001/REC-SVG-20010904/DTD/svg10.dtd">
<svg version="1.0" xmlns="http://www.w3.org/2000/svg"
 width="1024.000000pt" height="1024.000000pt" viewBox="0 0 1024.000000 1024.000000"
 preserveAspectRatio="xMidYMid meet">
<metadata>
Created by potrace 1.11, written by Peter Selinger 2001-2013
</metadata>
<g transform="translate(0.000000,1024.000000) scale(0.100000,-0.100000)"
fill="#000000" stroke="none">
<path d="M2418 10234 c-4 -3 -21 -7 -40 -9 -75 -9 -203 -41 -268 -68 -14 -6
-28 -11 -31 -11 -15 -2 -154 -72 -157 -78 -2 -5 -10 -8 -18 -8 -8 0 -14 -4
-14 -9 0 -5 -10 -13 -22 -17 -12 -3 -27 -12 -34 -18 -6 -6 -22 -18 -34 -26
-59 -40 -184 -159 -230 -219 -14 -18 -34 -45 -46 -59 -38 -50 -104 -161 -104
-177 0 -8 -4 -15 -10 -15 -5 0 -10 -9 -10 -20 0 -11 -3 -20 -8 -20 -6 0 -17
-27 -36 -85 -2 -5 -6 -17 -9 -25 -3 -8 -13 -44 -22 -80 -46 -182 -44 14 -42
-4200 1 -2186 6 -3988 10 -4005 4 -16 10 -43 13 -60 14 -74 50 -188 75 -237 5
-10 9 -25 9 -33 0 -8 5 -15 10 -15 6 0 10 -7 10 -15 0 -20 81 -154 138 -229
55 -71 158 -174 232 -230 54 -42 185 -126 194 -126 3 0 29 -11 58 -24 62 -29
195 -77 206 -74 4 1 27 -4 52 -11 25 -7 59 -16 75 -19 17 -3 1243 -6 2725 -8
2853 -3 2740 -5 2920 41 36 9 71 18 78 20 7 3 16 5 20 6 4 1 23 9 42 19 19 10
38 18 43 19 28 4 179 90 239 135 14 12 40 32 57 44 82 63 251 253 265 300 4
12 12 22 17 22 5 0 9 6 9 14 0 8 3 16 8 18 6 3 76 142 78 157 0 3 5 17 11 31
15 36 50 158 58 200 3 19 9 51 13 70 9 49 9 7994 -1 8053 -4 27 -10 53 -13 59
-4 6 -9 27 -11 47 -7 46 -62 201 -101 277 -96 194 -251 368 -434 490 -37 24
-72 44 -77 44 -5 0 -11 3 -13 8 -10 24 -271 121 -368 137 -25 4 -54 10 -65 14
-25 7 -5440 13 -5447 5z"/>
</g>
</svg>
