<svg xmlns="http://www.w3.org/2000/svg" viewBox="0 0 120 120" height="120" width="120">
  <defs>
    <clipPath id="a">
      <path d="M0 90h90V0H0z"/>
    </clipPath>
  </defs>
  <g clip-path="url(#a)" transform="matrix(1.33333 0 0 -1.33333 0 120)" fill="#FFFFFF">
    <path d="M13.5 45c0 8.696 3.076 16.114 9.216 22.272 6.14 6.157 13.558 9.228 22.256 9.228 8.679 0 16.115-3.071 22.272-9.228C73.401 61.114 76.5 53.696 76.5 45c0-8.696-3.099-16.115-9.256-22.271-6.157-6.158-13.593-9.229-22.272-9.229-8.698 0-16.116 3.071-22.256 9.229C16.576 28.885 13.5 36.304 13.5 45"/>
  </g>
</svg>
