<svg xmlns="http://www.w3.org/2000/svg" viewBox="0 0 120 120" height="120" width="120">
  <defs>
    <clipPath id="a">
      <path d="M0 90h90V0H0z"/>
    </clipPath>
  </defs>
  <g clip-path="url(#a)" transform="matrix(1.33333 0 0 -1.33333 0 120)" fill="#FFFFFF">
    <path d="M40.763 7.241c-.034.072-.06.148-.102.216-5.832 9.297-11.664 18.593-17.498 27.888a4318.094 4318.094 0 0 1-6.145 9.768c-.11.176-.067.283.028.432 7.092 11.098 14.18 22.198 21.27 33.3.78 1.22 1.554 2.445 2.334 3.667.057.09.136.165.205.248l.08-.034c.006-.095.02-.19.02-.285 0-6.523 0-13.047-.006-19.57a.955.955 0 0 0-.127-.488 1778.49 1778.49 0 0 0-4.31-6.817c-2.094-3.292-4.183-6.588-6.296-9.867-.27-.419-.277-.709-.008-1.134 3.285-5.202 6.551-10.417 9.82-15.629.276-.44.544-.884.8-1.337a.932.932 0 0 0 .122-.435c.005-6.56.004-13.12.003-19.68 0-.08-.017-.162-.026-.243zM49.058 7.396v.318c0 3.87.004 7.738-.001 11.606-.003 1.933-.02 3.868-.036 5.802-.006.665-.046 1.331-.027 1.995.006.26.07.554.208.77a4122.642 4122.642 0 0 0 10.676 16.64c.244.378.158.631-.047.944-.96 1.475-1.92 2.949-2.864 4.433-2.52 3.96-5.015 7.935-7.568 11.874-.397.615-.424 1.21-.413 1.863.019 1.24.049 2.48.05 3.72.013 4.944.016 9.89.022 14.833 0 .107 0 .213.06.336.088-.143.173-.287.263-.427 3.38-5.303 6.755-10.61 10.14-15.91 4.015-6.285 8.036-12.563 12.054-18.843.373-.584.736-1.174 1.106-1.76.048-.076.097-.156.16-.218.254-.248.269-.352.07-.657-.765-1.175-1.548-2.34-2.296-3.529-1.88-2.983-3.722-5.992-5.617-8.967-4.293-6.743-8.607-13.472-12.916-20.206-.883-1.382-1.78-2.755-2.668-4.134-.102-.16-.19-.328-.283-.492l-.073.01"/>
    <path d="M44.93 35.113c-.423.672-.82 1.302-1.215 1.934-1.62 2.596-3.24 5.195-4.866 7.79-.106.168-.113.288-.003.461 1.997 3.136 3.987 6.276 5.978 9.416.028.044.063.084.115.152l.618-.984c1.818-2.872 3.632-5.746 5.46-8.61.163-.257.174-.424.002-.689-1.98-3.06-3.943-6.13-5.91-9.199l-.18-.27"/>
  </g>
</svg>
