<svg xmlns="http://www.w3.org/2000/svg" viewBox="0 0 120 120" height="120" width="120">
  <defs>
    <clipPath id="a">
      <path d="M0 90h90V0H0z"/>
    </clipPath>
  </defs>
  <g clip-path="url(#a)" transform="matrix(1.33333 0 0 -1.33333 0 120)" fill="#5a5145">
    <path d="M52.459 37.542c-2.06-2.06-4.551-3.083-7.467-3.083-2.916 0-5.405 1.034-7.46 3.09-2.06 2.059-3.089 4.544-3.085 7.455.004 2.913 1.032 5.398 3.092 7.458 2.059 2.059 4.545 3.088 7.457 3.092 2.912.004 5.397-1.026 7.456-3.086 2.055-2.055 3.089-4.544 3.089-7.46 0-2.916-1.023-5.406-3.082-7.466m27.676 8.883l-.739.279c-19.534 7.372-25.78 13.669-32.963 33.294l-.001.002c-.488 1.333-2.372 1.333-2.86 0-7.182-19.621-13.421-25.911-32.947-33.288l-.76-.287c-1.313-.496-1.313-2.353 0-2.85l.76-.287C30.151 35.911 36.389 29.621 43.571 10v-.001c.488-1.332 2.372-1.332 2.861 0v.003c7.183 19.625 13.43 25.923 32.964 33.295l.739.279c1.313.496 1.313 2.354 0 2.849"/>
  </g>
</svg>
