<svg xmlns="http://www.w3.org/2000/svg" version="1.1" viewBox="-70 -40 990 940">

   <defs>
      <path id="house" fill="#F25E22" stroke="#222"
            d="M874 467q-1 40 -11.5 78.5t-30.5 73.5t-39.5 63t-47 65t-43.5 62q-6 17 -17.5 20t-23.5 -0.5t-26 3.5q-14 8 -17 26q0 3 -3 -1q0 -1 -1 -4q-1 -2 -2 -3q-4 -10 -15 -21q-39 13 -75 13.5t-65.5 -12t-55 -32.5t-42.5 -48.5t-28.5 -59.5t-12.5 -65.5t5.5 -67t24 -64
t45.5 -56.5q41 -38 100 -47.5t111.5 7.5t92 60.5t44.5 102.5q0 22 13 39q15 20 21 -14q1 -3 1 -7q2 -30 2.5 -39t-1.5 -40t-2 -39q1 -20 21 -10q37 10 18 -36q-11 -26 -44 -74q-17 -33 -43.5 -54.5t-54 -30.5t-57 -14t-55 -10.5t-45.5 -16t-30.5 -33.5t-8.5 -59
q-6 -46 -17 -49q-6 -2 -13 3q-17 44 -37 77.5t-37.5 51t-36.5 31.5t-34 20t-29.5 15t-24 17t-16.5 26t-7.5 42.5t2.5 65.5q-12 37 -63 31q-28 -2 -43 11.5t-19 37.5t-4.5 49.5t-3 52.5t-11.5 40q-29 -26 -44.5 -65t-16.5 -83t4.5 -84t15.5 -81l-36 -41l55 -7
q55 -115 170 -185q0 -17 15 -32t34 -18t37 9q18 -7 43 -13q1 -10 11.5 -23.5t18.5 -15.5q55 11 89.5 19t83 21.5t79 26.5t68.5 33.5t61 43.5t46.5 55t35.5 70t18.5 86.5t3.5 105.5v1z"
      />
   </defs>

   <use href="#house" stroke-width="80"/>
   <use href="#house"/>
</svg>
