<svg
        xmlns="http://www.w3.org/2000/svg"
        version="1.1"
        viewBox="-50 -40 950 960"
>
    <defs>
        <path
                id="house"
                fill="#FA1C81"
                stroke="#222"
                d="M724 302v-1q33 13 64 49t47 78.5t8 73.5q-8 26 -24.5 53t-43 52t-60 33.5t-74.5 -2.5q-46 -14 -68 -18q-19 59 -61 106l-38 136l-129 -44q-26 4 -50 4q-79 0 -146.5 -39t-106.5 -106.5t-39 -146.5t39 -146.5t106.5 -106.5t146.5 -39q95 0 171 55q13 8 24 15.5t15 11.5
l5 4q6 -2 16 -5.5t38.5 -10.5t54 -11t55.5 -3.5t50 8.5zM295.5 724q80.5 0 137.5 -56.5t57 -137t-57 -137.5t-137.5 -57t-137.5 57t-57 137.5t57 137t137.5 56.5zM662.5 557q37.5 0 64.5 -27t27 -64.5t-27 -64.5t-64.5 -27t-64 27t-26.5 64.5t26.5 64.5t64 27zM672 67
q14 19 26 63t3 99q-2 17 -14.5 23.5t-41.5 11.5q-60 3 -136 25q-16 -12 -29 -19q-43 -31 -94 -47l-78 -126l142 -57q38 -23 74 -29.5t59 -1.5t44.5 18.5t29.5 22t15 17.5zM546.5 214q31.5 0 53.5 -22.5t22 -53.5t-22 -53.5t-53.5 -22.5t-53.5 22.5t-22 53.5t22 53.5
t53.5 22.5z"
        />
    </defs>

    <use href="#house" stroke-width="80"/>
    <use href="#house"/>

</svg>
