<svg xmlns="http://www.w3.org/2000/svg" version="1.1" viewBox="-50 -40 820 920">

   <defs>
      <path id="house" fill="#DBAC39" stroke="#222"
            d="M662 221q-3 3 -3 5q1 3 6 6q2 1 5 3t4 3q25 15 31 21q7 7 7.5 23t-2.5 29q-6 41 -16 72q-18 52 -54 80l-35 27q-3 2 -5 4l-1 1q-10 8 -21 14q-6 3 -13 6q-17 -26 -42 -44q-36 -23 -78 -23q-40 0 -74 21q-13 -11 -27 -19q-50 -27 -106 -27h-3q-4 -48 6 -99q14 -63 48 -109
q50 -71 175 -144l66 -39q31 -8 63 -14q27 -5 54 -8q12 -1 15 -1q21 -2 31 8q13 11 18 35q5 27 6.5 60.5t-2.5 53.5q-1 8 -4 14q-3 8 -21 21q-27 20 -28 20zM615 514l2 -1.5t3 -2.5l-1 3q-20 64 -61 110l-3 3q-5 15 -13 28q-21 30 -54.5 43.5t-68.5 5.5q-6 16 -14 30
q-29 53 -84 79q-51 26 -104.5 20.5t-101.5 -37t-74 -78.5q-50 -89 -34 -213q4 -23 9 -45q27 -116 104.5 -207.5t188.5 -147.5q44 -22 84 -37q13 -5 37 -12q6 -2 20 -5q0 -1 1 -1q-129 76 -183 151q-36 50 -51 118.5t-4 130.5q63 -8 119 23q21 12 38 28q29 -24 67.5 -26.5
t71.5 18.5q29 20 43 52h1h1q19 -4 35 -13q14 -7 26 -17zM347 700q25 -45 11 -94.5t-59 -75t-95 -11.5t-75 59.5t-11 95t59 75t95 11t75 -59.5zM501.5 627.5q15.5 -23.5 10 -51.5t-29 -43.5t-51.5 -10t-43.5 29t-10 51.5t29 43.5t51.5 10t43.5 -29z"
      />
   </defs>

   <use href="#house" stroke-width="80"/>
   <use href="#house"/>
</svg>
