<svg xmlns="http://www.w3.org/2000/svg" version="1.1" viewBox="-20 -20 740 870">

    <defs>
        <path id="house" fill="#723F98" stroke="#222"
              d="M305 818q-20 -7 -37.5 -14.5t-29 -13t-28 -16.5t-23 -15.5t-25.5 -19t-26 -19.5q-50 -37 -89 -112q-7 -3 -10.5 -0.5t-4 7t-2 8t-5.5 1.5q-10 -4 -18 -23.5t-7 -57.5q4 -119 13 -124l22 -10q-2 -1 -5 -3t-7 -8t-1.5 -12t24 -39.5t42.5 -64.5l20 -30v7q4 5 20 -2
q11 -5 39 -44t63 -89.5t57 -73.5q41 -44 84 -48q21 -1 20 9q0 2 -2 4q-8 14 29.5 54t58.5 47q5 2 10 2.5t8.5 0.5t5 -0.5t3.5 -1.5h2.5t0.5 2q-1 5 23 13.5t33 8.5q11 -1 30 -37q5 -9 -7 -25.5t-20 -15.5q-2 0 -3.5 1t-3 2.5t-1.5 2.5t-1 4t-2 5q-2 5 9 9q6 3 6 4
q-7 3 -19 0t-11 -10q2 -30 28 -35q18 -3 53.5 31t39.5 50q2 14 -21 55t-31 45t-17.5 4.5t-23 -4t-21 -7.5t-25.5 -11q19 45 59.5 99.5t71.5 85.5l31 31q-18 8 -22 12q-7 7 22 73q6 18 2.5 36t-10.5 30l-7 13q2 -13 -15 -18q-2 24 -15 46.5t-35 33.5q4 -4 4 -10.5t-3 -13.5
l-2 -6q-1 2 -2 6.5t-6 17.5t-13 25.5t-23 30.5t-34 34q-19 15 -35.5 27.5t-26 18.5t-16.5 10t-9.5 5t-2.5 2q6 5 10.5 7.5t6.5 4.5q0 6 -23.5 11.5t-59.5 5.5t-64 -9zM361 750q17 -1 50 -20q19 -11 31.5 -25t15.5 -23l3 -8q-17 -1 -25 -9q8 0 36 -17t46 -39q35 -41 43 -76
q3 -11 0 -15t-18 -3q8 -4 18 -32q6 -16 -14 -76.5t-53 -116.5q-22 -37 -44 -60.5t-34 -30t-13 -1.5q-5 13 -11 15q-3 1 -3 -3q0 -14 -11 -30q-5 -8 -7 -1q-4 10 -19 15q-6 2 -7 -1q0 -1 1 -3q6 -8 0.5 -25t-16.5 -19q-13 -3 -43.5 20t-59.5 62q-18 25 -38.5 67.5t-32 72
t-12.5 34.5q0 3 -7 -0.5t-16 -8.5t-11 -6q-4 -1 -7 22.5t-5 57t0 58.5q1 22 18.5 48t34.5 40l17 14l-7 27q0 1 0.5 2t7 3t17.5 1q18 -2 23.5 -0.5t4 12.5t30.5 32.5t62 33.5q18 7 32 10t18 3zM495 391v0q23 -43 37 -39q10 2 2 10q-8 10 -12 50q-4 45 -12 96q-8 50 -24 67
q-29 28 -52 33q-27 6 -57 -14q-10 -6 -15 -19.5t-6 -24.5t-2 -32q22 -3 34 -6q18 -7 31 -16q17 -13 36 -38q18 -25 40 -67zM192 391q22 42 40 67q19 25 36 37q18 12 30 17q13 3 35 5q-1 21 -2 33q-1 10 -6 24t-15 20q-34 19 -57 14t-52 -34q-18 -16 -25 -67q-7 -50 -11 -95
q-4 -44 -13 -50q-6 -4 0 -9q17 -12 37 33q1 3 3 5z"/>
    </defs>

    <use href="#house" stroke-width="40"/>
    <use href="#house"/>

</svg>
