<svg xmlns="http://www.w3.org/2000/svg" version="1.1" viewBox="-50 -30 1070 840">
    <defs>
        <path id="house" fill="#00ACE0" stroke="#222"
              d="M757 235q7 7 7 17t-7 17l-36 36q-7 7 -17 7t-17 -7l-160 -160q-15 -15 -37 -15t-38 15l-371 371q-7 7 -17 7t-17 -7l-36 -36q-7 -7 -7 -16.5t7 -16.5q20 -20 149 -149.5t182 -182.5q-91 -44 -121 -62q-9 -5 -12 -10.5t-1.5 -9t4.5 -6.5t6 -5l3 -1h269q53 0 90 37z
M222 549q-7 -7 -7 -17t7 -17l36 -36q7 -7 17 -7t17 7l160 160q16 15 38 15t37 -15l371 -371q7 -7 17 -7t17 7l36 36q7 7 7 17t-7 17l-331 331q91 44 121 62q9 5 12 10.5t1.5 9t-4.5 6.5t-6 5l-3 1h-268q-54 0 -91 -37zM674 392q0 18 -12 30l-142 142q-12 13 -30 13t-30 -13
l-142 -142q-13 -12 -13 -30t13 -30l142 -142q12 -12 30 -12t30 12l142 142q12 12 12 30z"
        />
    </defs>

    <use href="#house" stroke-width="80"/>
    <use href="#house"/>
</svg>
