<svg xmlns="http://www.w3.org/2000/svg" version="1.1" viewBox="-40 -40 810 940">

    <defs>
        <path id="house" fill="#6FBF45" stroke="#222"
              d="M4 351q2 -83 33 -150.5t81.5 -109.5t114 -65t130 -23.5t130.5 21.5t114 63t82 108.5t34 150.5q1 106 -42.5 210t-123.5 184.5t-180 112.5q-79 -14 -149.5 -65t-119 -120.5t-76.5 -153t-28 -163.5zM66 346q-12 55 43 122q51 60 112 76q66 17 96 -39q3 -51 -52 -122
q-55 -69 -112 -85q-62 -18 -87 48zM663 353q-18 -74 -82 -52q-55 18 -107 85q-55 72 -48 124q1 8 4 15q29 19 61 19t64 -19.5t57 -46.5t39 -61t12 -64z"
        />
    </defs>

    <use href="#house" stroke-width="80"/>
    <use href="#house"/>
</svg>
