<svg xmlns="http://www.w3.org/2000/svg" version="1.1" viewBox="-50 -40 780 930">

    <defs>
        <path id="house" fill="#EDE6C4" stroke="#222"
              d="M511 86h-1q104 77 148 200q44 124 10 252q-27 102 -97 178q-70 75 -165 111q3 -34 -14 -110q-8 -39 -21 -69q-12 -28 -23 -40l-9 -11q69 -25 120 -80q51 -54 71 -128q24 -89 -5 -175t-98 -142h-27q-22 1 -49 6q55 52 75 122q25 85 11 149q-28 124 -119 181q4 -36 -16 -98
q-4 -13 -9 -25q-4 -12 -8 -20t-8 -14q-3 -6 -5 -9l-2 -3q64 -41 82 -112q11 -45 3 -87t-33 -77q-26 8 -49 19q17 29 19 64q2 60 -38 104q-41 44 -100 47q-31 1 -58 -9q-16 53 -14 109q5 106 69 188q65 83 163 114q-119 -21 -200 -112t-87 -215q-3 -61 15 -120
q-37 -40 -39 -93q-3 -60 38 -105q40 -44 100 -47q53 -2 94 30q20 -9 46 -16q-27 -20 -66 -33q-8 -2 -14 -3q20 3 36 7q30 8 60 25q31 -7 61 -9q-24 -10 -44 -16q-57 -15 -114 -8q85 -11 167 11q24 6 47 15q77 9 143 49.5t108 104.5q-62 -72 -154 -100z"
        />
    </defs>

    <use href="#house" stroke-width="80"/>
    <use href="#house"/>
</svg>
