<svg xmlns="http://www.w3.org/2000/svg" viewBox="0 0 120 120" height="120" width="120">
  <defs>
    <clipPath id="a">
      <path d="M0 90h90V0H0z"/>
    </clipPath>
  </defs>
  <g clip-path="url(#a)" transform="matrix(1.33333 0 0 -1.33333 0 120)" fill="#5a5145">
    <path d="M55.962 59.606c0-6.084-4.933-11.016-11.017-11.016s-11.016 4.932-11.016 11.016 4.932 11.017 11.016 11.017 11.017-4.933 11.017-11.017"/>
    <path d="M61.034 63.911a16.62 16.62 0 0 0 .583-4.305c0-7.788-5.375-14.327-12.605-16.149l-4.07-10.695L40.79 43.48c-7.185 1.854-12.517 8.371-12.517 16.127 0 1.49.215 2.925.582 4.3-16.453.45-22.58 6.548-22.58 6.548l38.611-60.98 38.703 60.98s-6.209-6.089-22.555-6.543"/>
  </g>
</svg>
