<svg width="37" height="34" viewBox="0 0 37 34" fill="none" xmlns="http://www.w3.org/2000/svg">
<path d="M25.6054 15.6738L27.4711 15.9678L26.3619 21.0466L24.3032 22.6682L21.257 22.7671L19.0662 21.7225L18.11 20.2538L18.2536 16.8151L20.135 17.1362L20.0334 18.7103L20.8825 20.4934L23.0314 20.8405L24.9392 19.2699L25.6054 15.6738Z" fill="#2196F3"/>
<path d="M25.4224 16.3568L27.5568 16.9287L28.7533 11.4387L28.6846 8.19466L27.2368 6.74948L26.1135 6.17889L22.4019 5.68765L20.2661 7.42591L18.0873 17.7771L20.0248 18.3828L21.6704 10.2957L22.6838 8.05083L24.9032 7.7076L26.6194 9.24266L26.2445 12.0933L25.4224 16.3568Z" fill="#2196F3"/>
<path d="M26.182 13.0377L25.1258 18.1176C24.6611 20.3528 23.5824 21.1883 21.7753 20.8126" stroke="#4F4F4F" stroke-width="0.5"/>
<path d="M25.4638 16.4919L26.5201 11.412C26.9848 9.17683 26.3286 7.98057 24.5216 7.6048" stroke="#4F4F4F" stroke-width="0.5"/>
<path d="M20.5487 15.4699L21.6049 10.39C22.0696 8.1548 23.1483 7.31925 24.9554 7.69494" stroke="#4F4F4F" stroke-width="0.5"/>
<path d="M21.2668 12.0156L20.2106 17.0955C19.7458 19.3307 20.402 20.5269 22.2091 20.9027" stroke="#4F4F4F" stroke-width="0.5"/>
<path d="M28.2367 12.965L26.8875 19.4543C26.2938 22.3096 24.4665 23.2835 21.2219 22.6089" stroke="#4F4F4F" stroke-width="0.5"/>
<path d="M27.3191 17.3777L28.6683 10.8885C29.262 8.03315 27.9744 6.41158 24.7298 5.7369" stroke="#4F4F4F" stroke-width="0.5"/>
<path d="M18.4938 15.5428L19.843 9.05361C20.4367 6.19831 22.2639 5.22438 25.5086 5.89896" stroke="#4F4F4F" stroke-width="0.5"/>
<path d="M19.4113 11.1301L18.062 17.6194C17.4683 20.4747 18.7559 22.0962 22.0005 22.7709" stroke="#4F4F4F" stroke-width="0.5"/>
<path d="M13.7618 20.7458L13.1462 22.5314L8.33942 20.5518L7.1025 18.2413L7.53749 15.2247L8.9488 13.2502L10.562 12.5654L13.9227 13.3077L13.2778 15.104L11.7456 14.7289L9.84156 15.2533L9.12435 17.3085L10.3374 19.4615L13.7618 20.7458Z" fill="#2196F3"/>
<path d="M13.1212 20.4462L12.1851 22.4479L17.3816 24.5853L20.5877 25.0846L21.877 24.1847L23.0218 22.9053L24.154 19.3366L22.8157 16.9299L13.0045 12.9758L11.886 14.6264L19.7447 17.8112L21.778 19.2012L21.7281 21.4465L19.9167 22.868L17.1755 22.0007L13.1212 20.4462Z" fill="#2196F3"/>
<path d="M16.2565 21.7742L11.4393 19.8465C9.31972 18.9983 8.68551 17.7903 9.37121 16.0766" stroke="#4F4F4F" stroke-width="0.5"/>
<path d="M12.9809 20.4634L17.7981 22.391C19.9176 23.2392 21.2102 22.8022 21.8959 21.0886" stroke="#4F4F4F" stroke-width="0.5"/>
<path d="M14.8461 15.8024L19.6632 17.7301C21.7828 18.5783 22.417 19.7863 21.7313 21.5" stroke="#4F4F4F" stroke-width="0.5"/>
<path d="M18.1217 17.1132L13.3045 15.1855C11.185 14.3373 9.89244 14.7743 9.20667 16.4879" stroke="#4F4F4F" stroke-width="0.5"/>
<path d="M15.969 23.8099L9.81538 21.3475C7.10775 20.264 6.46811 18.2946 7.6993 15.2178" stroke="#4F4F4F" stroke-width="0.5"/>
<path d="M11.7846 22.1353L17.9382 24.5977C20.6458 25.6812 22.4674 24.6968 23.6987 21.62" stroke="#4F4F4F" stroke-width="0.5"/>
<path d="M15.1334 13.7664L21.287 16.2288C23.9946 17.3123 24.6342 19.2817 23.4031 22.3585" stroke="#4F4F4F" stroke-width="0.5"/>
<path d="M19.3178 15.441L13.1643 12.9785C10.4566 11.895 8.63501 12.8794 7.40373 15.9562" stroke="#4F4F4F" stroke-width="0.5"/>
<g filter="url(#filter0_d)">
<mask id="mask0" mask-type="alpha" maskUnits="userSpaceOnUse" x="11" y="7" width="15" height="15">
<path d="M16.252 21.5356L22.2288 18.0127L23.189 12.5508L16.0548 10.319L16.252 21.5356Z" fill="#C4C4C4"/>
</mask>
<g mask="url(#mask0)">
<path d="M25.6055 15.6739L27.4713 15.968L26.362 21.0468L24.3033 22.6684L21.2571 22.7672L19.0663 21.7227L18.1101 20.254L18.2537 16.8153L20.1351 17.1363L20.0336 18.7105L20.8826 20.4936L23.0315 20.8407L24.9393 19.2701L25.6055 15.6739Z" fill="#2196F3"/>
<path d="M25.4225 16.357L27.5569 16.9289L28.7535 11.4389L28.6848 8.19484L26.1137 6.17908L22.402 5.68783L20.2663 7.42609L18.0875 17.7773L20.002 18.4684L21.6706 10.2959L22.6839 8.05101L24.9034 7.70778L26.6196 9.24284L26.2446 12.0935L25.4225 16.357Z" fill="#2196F3"/>
<path d="M26.1822 13.0379L25.1259 18.1178C24.6612 20.353 23.5826 21.1885 21.7755 20.8128" stroke="#4F4F4F" stroke-width="0.5"/>
<path d="M25.464 16.4921L26.5202 11.4122C26.9849 9.17701 26.3288 7.98076 24.5217 7.60499" stroke="#4F4F4F" stroke-width="0.5"/>
<path d="M20.5488 15.4701L21.605 10.3902C22.0698 8.15498 23.1484 7.31943 24.9555 7.69512" stroke="#4F4F4F" stroke-width="0.5"/>
<path d="M21.2669 12.0158L20.2107 17.0957C19.746 19.3309 20.4021 20.5271 22.2092 20.9029" stroke="#4F4F4F" stroke-width="0.5"/>
<path d="M28.2368 12.9652L26.8876 19.4544C26.2939 22.3097 24.4666 23.2837 21.222 22.6091" stroke="#4F4F4F" stroke-width="0.5"/>
<path d="M27.3192 17.3779L28.6685 10.8886C29.2621 8.03333 27.9746 6.41176 24.73 5.73708" stroke="#4F4F4F" stroke-width="0.5"/>
<path d="M18.4939 15.543L19.8431 9.0538C20.4368 6.19849 22.2641 5.22457 25.5087 5.89915" stroke="#4F4F4F" stroke-width="0.5"/>
<path d="M19.4114 11.1303L18.0621 17.6195C17.4684 20.4748 18.756 22.0964 22.0006 22.7711" stroke="#4F4F4F" stroke-width="0.5"/>
</g>
</g>
<defs>
<filter id="filter0_d" x="9.93121" y="7.78772" width="19.4141" height="21.7479" filterUnits="userSpaceOnUse" color-interpolation-filters="sRGB">
<feFlood flood-opacity="0" result="BackgroundImageFix"/>
<feColorMatrix in="SourceAlpha" type="matrix" values="0 0 0 0 0 0 0 0 0 0 0 0 0 0 0 0 0 0 127 0"/>
<feOffset dy="4"/>
<feGaussianBlur stdDeviation="2"/>
<feColorMatrix type="matrix" values="0 0 0 0 0 0 0 0 0 0 0 0 0 0 0 0 0 0 0.25 0"/>
<feBlend mode="normal" in2="BackgroundImageFix" result="effect1_dropShadow"/>
<feBlend mode="normal" in="SourceGraphic" in2="effect1_dropShadow" result="shape"/>
</filter>
</defs>
</svg>
