<svg width="48" height="49" viewBox="0 0 48 49" fill="none" xmlns="http://www.w3.org/2000/svg">
<path fill-rule="evenodd" clip-rule="evenodd" d="M40.6799 1.34363C41.8091 1.55847 43.0029 2.25632 44.2835 3.39791L44.3044 3.37667C44.4353 3.50763 44.562 3.63772 44.6843 3.76696C44.807 3.88344 44.9305 4.00384 45.0548 4.12814L45.035 4.14835C46.1779 5.43023 46.8803 6.62861 47.1035 7.76628C47.3757 9.15303 46.9286 10.4073 45.8058 11.5511L44.2408 13.1452L44.2409 13.1452L39.3503 18.1269C38.2274 19.2707 36.9888 19.7335 35.6124 19.4716C34.7502 19.3076 33.8504 18.862 32.903 18.1523L31.8013 19.254C32.5414 20.2272 33.0079 21.1525 33.1822 22.0408C33.4544 23.4276 33.0073 24.6819 31.8844 25.8256L30.3195 27.4197L30.3196 27.4198L25.429 32.4015C24.3061 33.5452 23.0675 34.008 21.691 33.7462C20.8393 33.5841 19.9508 33.1472 19.016 32.4524L17.8215 33.6469C18.5616 34.6201 19.0281 35.5454 19.2024 36.4337C19.4746 37.8204 19.0275 39.0748 17.9046 40.2185L16.3397 41.8126L16.3398 41.8126L11.4492 46.7943C10.3263 47.9381 9.0877 48.4009 7.71124 48.139C6.58202 47.9242 5.38824 47.2264 4.10765 46.0848L4.08704 46.1058C3.95767 45.9764 3.83248 45.8479 3.71151 45.7202C3.58726 45.6023 3.46221 45.4804 3.33631 45.3545L3.35639 45.3341C2.21354 44.0522 1.51113 42.8538 1.28786 41.7162C1.0157 40.3294 1.4628 39.0751 2.58565 37.9314L4.15034 36.3375L4.15024 36.3374L9.04083 31.3557C10.1637 30.212 11.4023 29.7492 12.7788 30.0111C13.7014 30.1866 14.6672 30.6846 15.6881 31.4836L16.8296 30.3422C15.9841 29.2837 15.4558 28.2819 15.2677 27.3233C14.9955 25.9366 15.4426 24.6822 16.5655 23.5385L18.1301 21.9447L18.13 21.9446L23.0206 16.9629C24.1435 15.8191 25.3821 15.3563 26.7586 15.6182C27.6812 15.7937 28.647 16.2917 29.6679 17.0907L30.7243 16.0343C29.8944 14.9881 29.3751 13.9973 29.189 13.0488C28.9168 11.662 29.3639 10.4077 30.4868 9.26395L32.0515 7.67012L32.0514 7.67002L36.942 2.68833C38.0648 1.54456 39.3034 1.08176 40.6799 1.34363ZM35.4482 15.6071L36.1212 14.9341C36.7144 14.3409 36.7144 13.3791 36.1212 12.7858C35.5279 12.1926 34.5661 12.1926 33.9728 12.7858L33.1931 13.5656C33.0123 13.2249 32.9114 12.899 32.8847 12.5853C32.8272 11.91 33.1093 11.2315 33.8109 10.5168L34.8786 9.42927L37.1468 7.11881L38.2145 6.03127C38.9161 5.31661 39.5857 5.02557 40.2554 5.07738C40.8793 5.12566 41.5548 5.47474 42.3025 6.17142C43.0012 6.92058 43.354 7.59993 43.4076 8.22985C43.4652 8.90521 43.183 9.5837 42.4814 10.2984L41.4138 11.3857L39.1455 13.6964L38.078 14.7837C37.3764 15.4984 36.7067 15.7894 36.0371 15.7376C35.8458 15.7228 35.6497 15.6798 35.4482 15.6071ZM27.1724 19.5863L26.5944 20.1643C26.0011 20.7575 26.0011 21.7193 26.5944 22.3126C27.1876 22.9058 28.1495 22.9058 28.7427 22.3126L29.2926 21.7627C29.4022 22.0179 29.4659 22.2647 29.4863 22.5044C29.5438 23.1797 29.2617 23.8582 28.5601 24.5729L27.4925 25.6603L27.4925 25.6603L24.1566 29.0583C23.4551 29.7729 22.7854 30.064 22.1158 30.0122C21.9386 29.9985 21.7572 29.9605 21.5712 29.8972L22.1414 29.327C22.7346 28.7338 22.7346 27.7719 22.1414 27.1787C21.5481 26.5855 20.5863 26.5855 19.993 27.1787L19.2927 27.879C19.0987 27.5242 18.9911 27.1854 18.9633 26.8599C18.9058 26.1845 19.188 25.506 19.8896 24.7913L20.9573 23.7038L23.2255 21.3933L24.2931 20.3058C24.9947 19.5911 25.6644 19.3001 26.334 19.3519C26.6033 19.3728 26.8822 19.4496 27.1724 19.5863ZM12.6146 36.7055C12.0214 36.1122 12.0214 35.1504 12.6146 34.5571L13.1926 33.9792C12.9024 33.8425 12.6235 33.7656 12.3542 33.7448C11.6846 33.693 11.0149 33.984 10.3134 34.6987L9.24566 35.7862L6.97749 38.0967L5.9098 39.1842C5.20821 39.8989 4.92603 40.5774 4.98355 41.2527C5.03714 41.8821 5.38934 42.5607 6.08673 43.309C6.83527 44.007 7.51148 44.3567 8.13597 44.405C8.80563 44.4569 9.47526 44.1658 10.1769 43.4512L11.2444 42.3638L13.5127 40.0532L14.5803 38.9658C15.2819 38.2511 15.564 37.5726 15.5065 36.8973C15.4861 36.6576 15.4224 36.4107 15.3128 36.1556L14.7629 36.7055C14.1697 37.2987 13.2078 37.2987 12.6146 36.7055Z" fill="#2196F3"/>
<path d="M44.2835 3.39791L43.9508 3.77114L44.3065 4.08824L44.6403 3.74818L44.2835 3.39791ZM40.6799 1.34363L40.5864 1.83482L40.5864 1.83482L40.6799 1.34363ZM44.3044 3.37667L44.6579 3.02312L44.3011 2.66627L43.9476 3.02641L44.3044 3.37667ZM44.6843 3.76696L44.3212 4.11069L44.3304 4.12038L44.3401 4.12956L44.6843 3.76696ZM45.0548 4.12814L45.4116 4.47841L45.7587 4.12488L45.4084 3.77458L45.0548 4.12814ZM45.035 4.14835L44.6782 3.79808L44.3505 4.13191L44.6618 4.48108L45.035 4.14835ZM47.1035 7.76628L47.5942 7.66999L47.5942 7.66999L47.1035 7.76628ZM45.8058 11.5511L45.449 11.2008L45.449 11.2008L45.8058 11.5511ZM44.2408 13.1452L43.884 12.7949L43.537 13.1484L43.8873 13.4987L44.2408 13.1452ZM44.2409 13.1452L44.5977 13.4955L44.9447 13.142L44.5944 12.7917L44.2409 13.1452ZM39.3503 18.1269L38.9935 17.7766L38.9935 17.7766L39.3503 18.1269ZM35.6124 19.4716L35.5189 19.9628L35.5189 19.9628L35.6124 19.4716ZM32.903 18.1523L33.2028 17.7521L32.8559 17.4923L32.5495 17.7987L32.903 18.1523ZM31.8013 19.254L31.4477 18.9005L31.139 19.2092L31.4033 19.5567L31.8013 19.254ZM33.1822 22.0408L32.6916 22.1371L32.6916 22.1371L33.1822 22.0408ZM31.8844 25.8256L32.2412 26.1759L32.2412 26.1759L31.8844 25.8256ZM30.3195 27.4197L29.9627 27.0694L29.6156 27.423L29.966 27.7733L30.3195 27.4197ZM30.3196 27.4198L30.6764 27.77L31.0234 27.4165L30.6731 27.0662L30.3196 27.4198ZM25.429 32.4015L25.7858 32.7517L25.7858 32.7517L25.429 32.4015ZM21.691 33.7462L21.5976 34.2373L21.5976 34.2373L21.691 33.7462ZM19.016 32.4524L19.3142 32.0511L18.9677 31.7936L18.6624 32.0989L19.016 32.4524ZM17.8215 33.6469L17.4679 33.2933L17.1592 33.6021L17.4235 33.9496L17.8215 33.6469ZM19.2024 36.4337L18.7118 36.53L18.7118 36.53L19.2024 36.4337ZM17.9046 40.2185L17.5478 39.8682L17.5478 39.8682L17.9046 40.2185ZM16.3397 41.8126L15.9829 41.4623L15.6358 41.8158L15.9862 42.1661L16.3397 41.8126ZM16.3398 41.8126L16.6966 42.1629L17.0436 41.8094L16.6933 41.4591L16.3398 41.8126ZM11.4492 46.7943L11.0924 46.4441L11.0924 46.4441L11.4492 46.7943ZM7.71124 48.139L7.80469 47.6478L7.80469 47.6478L7.71124 48.139ZM4.10765 46.0848L4.44037 45.7116L4.08468 45.3945L3.75086 45.7345L4.10765 46.0848ZM4.08704 46.1058L3.73348 46.4593L4.09031 46.8162L4.44383 46.4561L4.08704 46.1058ZM3.71151 45.7202L4.0745 45.3763L4.06532 45.3667L4.05564 45.3575L3.71151 45.7202ZM3.33631 45.3545L2.97949 45.0043L2.63246 45.3578L2.98276 45.7081L3.33631 45.3545ZM3.35639 45.3341L3.7132 45.6843L4.0409 45.3505L3.7296 45.0013L3.35639 45.3341ZM1.28786 41.7162L0.79722 41.8125L0.79722 41.8125L1.28786 41.7162ZM2.58565 37.9314L2.22885 37.5811L2.22885 37.5811L2.58565 37.9314ZM4.15034 36.3375L4.50714 36.6878L4.85419 36.3343L4.50389 35.984L4.15034 36.3375ZM4.15024 36.3374L3.79344 35.9872L3.44638 36.3407L3.79669 36.691L4.15024 36.3374ZM9.04083 31.3557L9.39764 31.706L9.39764 31.706L9.04083 31.3557ZM12.7788 30.0111L12.6853 30.5022L12.6853 30.5022L12.7788 30.0111ZM15.6881 31.4836L15.38 31.8773L15.7286 32.1502L16.0417 31.8371L15.6881 31.4836ZM16.8296 30.3422L17.1831 30.6957L17.4993 30.3795L17.2202 30.0301L16.8296 30.3422ZM15.2677 27.3233L14.777 27.4196L14.777 27.4196L15.2677 27.3233ZM16.5655 23.5385L16.9223 23.8888L16.9223 23.8888L16.5655 23.5385ZM18.1301 21.9447L18.4869 22.2949L18.834 21.9414L18.4837 21.5911L18.1301 21.9447ZM18.13 21.9446L17.7732 21.5943L17.4262 21.9478L17.7765 22.2981L18.13 21.9446ZM23.0206 16.9629L22.6638 16.6126L22.6638 16.6126L23.0206 16.9629ZM26.7586 15.6182L26.6651 16.1094L26.6651 16.1094L26.7586 15.6182ZM29.6679 17.0907L29.3598 17.4845L29.7084 17.7573L30.0215 17.4443L29.6679 17.0907ZM30.7243 16.0343L31.0779 16.3879L31.393 16.0727L31.1161 15.7236L30.7243 16.0343ZM29.189 13.0488L29.6796 12.9525L29.6796 12.9525L29.189 13.0488ZM30.4868 9.26395L30.8436 9.61422L30.8436 9.61422L30.4868 9.26395ZM32.0515 7.67012L32.4083 8.02039L32.7553 7.66687L32.405 7.31657L32.0515 7.67012ZM32.0514 7.67002L31.6946 7.31975L31.3475 7.67327L31.6978 8.02358L32.0514 7.67002ZM36.942 2.68833L37.2988 3.0386L37.2988 3.0386L36.942 2.68833ZM35.4482 15.6071L35.0947 15.2535L34.5379 15.8103L35.2786 16.0774L35.4482 15.6071ZM33.9728 12.7858L33.6193 12.4323L33.6193 12.4323L33.9728 12.7858ZM33.1931 13.5656L32.7515 13.8L33.0685 14.3973L33.5466 13.9191L33.1931 13.5656ZM32.8847 12.5853L33.3829 12.5429L33.3829 12.5429L32.8847 12.5853ZM33.8109 10.5168L33.4541 10.1665L33.4541 10.1665L33.8109 10.5168ZM34.8786 9.42927L35.2354 9.77955L35.2354 9.77954L34.8786 9.42927ZM37.1468 7.11881L36.79 6.76853L36.79 6.76854L37.1468 7.11881ZM38.2145 6.03127L38.5713 6.38155L38.5713 6.38155L38.2145 6.03127ZM40.2554 5.07738L40.2168 5.57589L40.2168 5.57589L40.2554 5.07738ZM42.3025 6.17142L42.6681 5.8304L42.6561 5.81757L42.6433 5.80562L42.3025 6.17142ZM43.4076 8.22985L43.9058 8.18742L43.9058 8.18742L43.4076 8.22985ZM42.4814 10.2984L42.8382 10.6487L42.8382 10.6486L42.4814 10.2984ZM41.4138 11.3857L41.057 11.0355L41.057 11.0355L41.4138 11.3857ZM39.1455 13.6964L39.5023 14.0467L39.5023 14.0466L39.1455 13.6964ZM38.078 14.7837L37.7212 14.4335L37.7212 14.4335L38.078 14.7837ZM36.0371 15.7376L35.9985 16.2361L35.9985 16.2361L36.0371 15.7376ZM27.1724 19.5863L27.5259 19.9398L28.0288 19.437L27.3854 19.134L27.1724 19.5863ZM26.5944 22.3126L26.2408 22.6661L26.2408 22.6661L26.5944 22.3126ZM28.7427 22.3126L29.0963 22.6661L29.0963 22.6661L28.7427 22.3126ZM29.2926 21.7627L29.752 21.5653L29.4607 20.8875L28.939 21.4092L29.2926 21.7627ZM29.4863 22.5044L28.9881 22.5468L28.9881 22.5468L29.4863 22.5044ZM28.5601 24.5729L28.2033 24.2226L28.2033 24.2226L28.5601 24.5729ZM27.4925 25.6603L27.139 26.0139L27.4958 26.3707L27.8493 26.0106L27.4925 25.6603ZM27.4925 25.6603L27.8461 25.3067L27.4892 24.9499L27.1357 25.31L27.4925 25.6603ZM24.1566 29.0583L23.7998 28.708L23.7998 28.708L24.1566 29.0583ZM22.1158 30.0122L22.1543 29.5137L22.1543 29.5137L22.1158 30.0122ZM21.5712 29.8972L21.2177 29.5436L20.6496 30.1116L21.4101 30.3705L21.5712 29.8972ZM22.1414 27.1787L21.7878 27.5323L21.7878 27.5323L22.1414 27.1787ZM19.2927 27.879L18.854 28.1189L19.1743 28.7045L19.6463 28.2326L19.2927 27.879ZM18.9633 26.8599L19.4615 26.8174L19.4615 26.8174L18.9633 26.8599ZM19.8896 24.7913L19.5328 24.4411L19.5328 24.4411L19.8896 24.7913ZM20.9573 23.7038L21.3141 24.0541L21.3141 24.0541L20.9573 23.7038ZM23.2255 21.3933L22.8687 21.0431L22.8687 21.0431L23.2255 21.3933ZM24.2931 20.3058L24.6499 20.6561L24.65 20.6561L24.2931 20.3058ZM26.334 19.3519L26.3726 18.8534L26.3726 18.8534L26.334 19.3519ZM12.6146 34.5571L12.9681 34.9107L12.9681 34.9107L12.6146 34.5571ZM12.6146 36.7055L12.261 37.059L12.261 37.059L12.6146 36.7055ZM13.1926 33.9792L13.5461 34.3327L14.049 33.8299L13.4056 33.5268L13.1926 33.9792ZM12.3542 33.7448L12.3928 33.2463L12.3928 33.2463L12.3542 33.7448ZM10.3134 34.6987L10.6701 35.049L10.6702 35.049L10.3134 34.6987ZM9.24566 35.7862L8.88887 35.4359L8.88886 35.436L9.24566 35.7862ZM6.97749 38.0967L7.33429 38.447L7.3343 38.447L6.97749 38.0967ZM5.9098 39.1842L5.553 38.8339L5.553 38.834L5.9098 39.1842ZM4.98355 41.2527L5.48175 41.2103L5.48175 41.2103L4.98355 41.2527ZM6.08673 43.309L5.72095 43.6499L5.73291 43.6627L5.74573 43.6747L6.08673 43.309ZM8.13597 44.405L8.0974 44.9036L8.0974 44.9036L8.13597 44.405ZM10.1769 43.4512L9.82006 43.1009L9.82005 43.1009L10.1769 43.4512ZM11.2444 42.3638L11.6012 42.7141L11.6012 42.7141L11.2444 42.3638ZM13.5127 40.0532L13.1559 39.7029L13.1559 39.7029L13.5127 40.0532ZM14.5803 38.9658L14.9371 39.3161L14.9371 39.3161L14.5803 38.9658ZM15.5065 36.8973L15.0083 36.9397L15.0083 36.9397L15.5065 36.8973ZM15.3128 36.1556L15.7722 35.9582L15.4809 35.2804L14.9592 35.8021L15.3128 36.1556ZM14.7629 36.7055L15.1165 37.059L15.1165 37.059L14.7629 36.7055ZM44.6162 3.02468C43.3041 1.85499 42.0293 1.0914 40.7733 0.852445L40.5864 1.83482C41.5889 2.02554 42.7017 2.65765 43.9508 3.77114L44.6162 3.02468ZM43.9476 3.02641L43.9267 3.04765L44.6403 3.74818L44.6612 3.72693L43.9476 3.02641ZM45.0474 3.42322C44.9218 3.29051 44.7919 3.15715 44.6579 3.02312L43.9508 3.73022C44.0787 3.85811 44.2022 3.98493 44.3212 4.11069L45.0474 3.42322ZM45.4084 3.77458C45.2811 3.64737 45.1546 3.52394 45.0286 3.40435L44.3401 4.12956C44.4595 4.24293 44.5799 4.36031 44.7013 4.4817L45.4084 3.77458ZM45.3918 4.49861L45.4116 4.47841L44.698 3.77787L44.6782 3.79808L45.3918 4.49861ZM47.5942 7.66999C47.3464 6.4076 46.5794 5.12933 45.4082 3.81561L44.6618 4.48108C45.7763 5.73114 46.4141 6.84962 46.6129 7.86257L47.5942 7.66999ZM46.1626 11.9014C47.3778 10.6635 47.904 9.24847 47.5942 7.66999L46.6129 7.86257C46.8474 9.05758 46.4794 10.1512 45.449 11.2008L46.1626 11.9014ZM44.5976 13.4955L46.1626 11.9014L45.449 11.2008L43.884 12.7949L44.5976 13.4955ZM44.5944 12.7917L44.5944 12.7916L43.8873 13.4987L43.8873 13.4988L44.5944 12.7917ZM39.7071 18.4772L44.5977 13.4955L43.8841 12.7949L38.9935 17.7766L39.7071 18.4772ZM35.5189 19.9628C37.0916 20.262 38.492 19.7149 39.7071 18.4772L38.9935 17.7766C37.9629 18.8265 36.886 19.205 35.7058 18.9804L35.5189 19.9628ZM32.6032 18.5525C33.5882 19.2903 34.5577 19.7799 35.5189 19.9628L35.7058 18.9804C34.9426 18.8352 34.1126 18.4337 33.2028 17.7521L32.6032 18.5525ZM32.1548 19.6076L33.2566 18.5058L32.5495 17.7987L31.4477 18.9005L32.1548 19.6076ZM33.6729 21.9445C33.479 20.9568 32.9678 19.9618 32.1993 18.9513L31.4033 19.5567C32.1151 20.4926 32.5368 21.3482 32.6916 22.1371L33.6729 21.9445ZM32.2412 26.1759C33.4565 24.938 33.9827 23.523 33.6729 21.9445L32.6916 22.1371C32.9261 23.3321 32.5581 24.4257 31.5276 25.4754L32.2412 26.1759ZM30.6763 27.77L32.2412 26.1759L31.5276 25.4754L29.9627 27.0694L30.6763 27.77ZM30.6731 27.0662L30.6731 27.0662L29.966 27.7733L29.966 27.7733L30.6731 27.0662ZM25.7858 32.7517L30.6764 27.77L29.9628 27.0695L25.0722 32.0512L25.7858 32.7517ZM21.5976 34.2373C23.1703 34.5366 24.5707 33.9894 25.7858 32.7517L25.0722 32.0512C24.0415 33.101 22.9647 33.4795 21.7845 33.255L21.5976 34.2373ZM18.7177 32.8537C19.6902 33.5766 20.6479 34.0567 21.5976 34.2373L21.7845 33.255C21.0306 33.1115 20.2113 32.7179 19.3142 32.0511L18.7177 32.8537ZM18.175 34.0005L19.3695 32.806L18.6624 32.0989L17.4679 33.2933L18.175 34.0005ZM19.6931 36.3374C19.4992 35.3497 18.988 34.3547 18.2195 33.3442L17.4235 33.9496C18.1353 34.8855 18.557 35.7411 18.7118 36.53L19.6931 36.3374ZM18.2614 40.5688C19.4767 39.3309 20.0029 37.9159 19.6931 36.3374L18.7118 36.53C18.9463 37.725 18.5783 38.8186 17.5478 39.8682L18.2614 40.5688ZM16.6965 42.1629L18.2614 40.5688L17.5478 39.8682L15.9829 41.4623L16.6965 42.1629ZM16.6933 41.4591L16.6933 41.459L15.9862 42.1661L15.9862 42.1662L16.6933 41.4591ZM11.806 47.1446L16.6966 42.1629L15.983 41.4624L11.0924 46.4441L11.806 47.1446ZM7.61779 48.6302C9.19051 48.9294 10.5909 48.3823 11.806 47.1446L11.0924 46.4441C10.0617 47.4939 8.98489 47.8724 7.80469 47.6478L7.61779 48.6302ZM3.77494 46.458C5.08705 47.6277 6.36181 48.3913 7.61779 48.6302L7.80469 47.6478C6.80224 47.4571 5.68943 46.825 4.44037 45.7116L3.77494 46.458ZM4.44383 46.4561L4.46445 46.4351L3.75086 45.7345L3.73025 45.7555L4.44383 46.4561ZM3.34852 46.0641C3.47274 46.1952 3.60108 46.3269 3.73348 46.4593L4.4406 45.7522C4.31426 45.6259 4.19222 45.5006 4.0745 45.3763L3.34852 46.0641ZM2.98276 45.7081C3.11161 45.8369 3.2398 45.9619 3.36738 46.0829L4.05564 45.3575C3.93472 45.2427 3.8128 45.1239 3.68986 45.001L2.98276 45.7081ZM2.99958 44.9838L2.97949 45.0043L3.69312 45.7048L3.7132 45.6843L2.99958 44.9838ZM0.79722 41.8125C1.04497 43.0748 1.81194 44.3531 2.98318 45.6668L3.7296 45.0013C2.61513 43.7513 1.9773 42.6328 1.7785 41.6199L0.79722 41.8125ZM2.22885 37.5811C1.01362 38.819 0.487431 40.234 0.79722 41.8125L1.7785 41.6199C1.54397 40.4249 1.91199 39.3313 2.94245 38.2816L2.22885 37.5811ZM3.79353 35.9873L2.22885 37.5811L2.94245 38.2816L4.50714 36.6878L3.79353 35.9873ZM3.79669 36.691L3.79678 36.6911L4.50389 35.984L4.50379 35.9839L3.79669 36.691ZM8.68403 31.0055L3.79344 35.9872L4.50704 36.6877L9.39764 31.706L8.68403 31.0055ZM12.8722 29.5199C11.2995 29.2206 9.8991 29.7678 8.68403 31.0055L9.39764 31.706C10.4283 30.6562 11.5051 30.2777 12.6853 30.5022L12.8722 29.5199ZM15.9963 31.0898C14.9387 30.2622 13.9003 29.7155 12.8722 29.5199L12.6853 30.5022C13.5025 30.6577 14.3956 31.107 15.38 31.8773L15.9963 31.0898ZM16.476 29.9886L15.3346 31.13L16.0417 31.8371L17.1831 30.6957L16.476 29.9886ZM14.777 27.4196C14.9861 28.485 15.5646 29.5596 16.4389 30.6542L17.2202 30.0301C16.4037 29.0078 15.9255 28.0789 15.7583 27.227L14.777 27.4196ZM16.2086 23.1882C14.9934 24.4261 14.4672 25.8411 14.777 27.4196L15.7583 27.227C15.5238 26.032 15.8918 24.9384 16.9223 23.8888L16.2086 23.1882ZM17.7733 21.5944L16.2086 23.1882L16.9223 23.8888L18.4869 22.2949L17.7733 21.5944ZM17.7765 22.2981L17.7766 22.2982L18.4837 21.5911L18.4836 21.591L17.7765 22.2981ZM22.6638 16.6126L17.7732 21.5943L18.4868 22.2948L23.3774 17.3131L22.6638 16.6126ZM26.852 15.127C25.2793 14.8278 23.8789 15.3749 22.6638 16.6126L23.3774 17.3131C24.4081 16.2633 25.4849 15.8848 26.6651 16.1094L26.852 15.127ZM29.9761 16.697C28.9185 15.8693 27.8801 15.3226 26.852 15.127L26.6651 16.1094C27.4823 16.2648 28.3754 16.7141 29.3598 17.4845L29.9761 16.697ZM30.3708 15.6808L29.3144 16.7372L30.0215 17.4443L31.0779 16.3879L30.3708 15.6808ZM28.6983 13.1451C28.9052 14.1993 29.4739 15.2625 30.3326 16.345L31.1161 15.7236C30.3149 14.7137 29.845 13.7954 29.6796 12.9525L28.6983 13.1451ZM30.13 8.91367C28.9147 10.1515 28.3886 11.5666 28.6983 13.1451L29.6796 12.9525C29.4451 11.7575 29.8131 10.6639 30.8436 9.61422L30.13 8.91367ZM31.6947 7.31984L30.13 8.91367L30.8436 9.61422L32.4083 8.02039L31.6947 7.31984ZM31.6978 8.02358L31.6979 8.02367L32.405 7.31657L32.4049 7.31647L31.6978 8.02358ZM36.5852 2.33805L31.6946 7.31975L32.4082 8.0203L37.2988 3.0386L36.5852 2.33805ZM40.7733 0.852445C39.2006 0.553231 37.8002 1.10035 36.5852 2.33805L37.2988 3.0386C38.3294 1.98878 39.4062 1.61029 40.5864 1.83482L40.7733 0.852445ZM35.7676 14.5806L35.0947 15.2535L35.8018 15.9606L36.4747 15.2877L35.7676 14.5806ZM35.7676 13.1394C36.1656 13.5373 36.1656 14.1826 35.7676 14.5806L36.4747 15.2877C37.2632 14.4992 37.2632 13.2208 36.4747 12.4323L35.7676 13.1394ZM34.3264 13.1394C34.7244 12.7414 35.3696 12.7414 35.7676 13.1394L36.4747 12.4323C35.6862 11.6438 34.4078 11.6438 33.6193 12.4323L34.3264 13.1394ZM33.5466 13.9191L34.3264 13.1394L33.6193 12.4323L32.8395 13.212L33.5466 13.9191ZM32.3865 12.6278C32.4199 13.0197 32.5447 13.4106 32.7515 13.8L33.6347 13.3311C33.4798 13.0392 33.4029 12.7782 33.3829 12.5429L32.3865 12.6278ZM33.4541 10.1665C32.6884 10.9465 32.3126 11.7606 32.3865 12.6278L33.3829 12.5429C33.3417 12.0593 33.5303 11.5164 34.1677 10.8671L33.4541 10.1665ZM34.5218 9.07899L33.4541 10.1665L34.1677 10.8671L35.2354 9.77955L34.5218 9.07899ZM36.79 6.76854L34.5218 9.079L35.2354 9.77954L37.5036 7.46908L36.79 6.76854ZM37.8577 5.68099L36.79 6.76853L37.5036 7.46909L38.5713 6.38155L37.8577 5.68099ZM40.2939 4.57887C39.4285 4.51191 38.6229 4.90155 37.8577 5.681L38.5713 6.38155C39.2093 5.73166 39.7429 5.53923 40.2168 5.57589L40.2939 4.57887ZM42.6433 5.80562C41.8549 5.07095 41.0771 4.63947 40.2939 4.57887L40.2168 5.57589C40.6814 5.61184 41.2547 5.87852 41.9616 6.53723L42.6433 5.80562ZM43.9058 8.18742C43.8389 7.40087 43.4052 6.62072 42.6681 5.8304L41.9368 6.51245C42.5971 7.22044 42.8691 7.79899 42.9095 8.27228L43.9058 8.18742ZM42.8382 10.6486C43.6039 9.86865 43.9797 9.05453 43.9058 8.18742L42.9095 8.27228C42.9506 8.75588 42.7621 9.29876 42.1246 9.94809L42.8382 10.6486ZM41.7706 11.736L42.8382 10.6487L42.1246 9.94808L41.057 11.0355L41.7706 11.736ZM39.5023 14.0466L41.7706 11.736L41.057 11.0355L38.7887 13.3461L39.5023 14.0466ZM38.4348 15.134L39.5023 14.0467L38.7887 13.3461L37.7212 14.4335L38.4348 15.134ZM35.9985 16.2361C36.864 16.3031 37.6696 15.9135 38.4348 15.134L37.7212 14.4335C37.0832 15.0833 36.5495 15.2758 36.0757 15.2391L35.9985 16.2361ZM35.2786 16.0774C35.5185 16.1639 35.7586 16.2176 35.9985 16.2361L36.0757 15.2391C35.9331 15.2281 35.781 15.1956 35.6178 15.1367L35.2786 16.0774ZM26.9479 20.5178L27.5259 19.9398L26.8188 19.2327L26.2408 19.8107L26.9479 20.5178ZM26.9479 21.959C26.55 21.561 26.55 20.9158 26.9479 20.5178L26.2408 19.8107C25.4523 20.5992 25.4523 21.8776 26.2408 22.6661L26.9479 21.959ZM28.3892 21.959C27.9912 22.357 27.3459 22.357 26.9479 21.959L26.2408 22.6661C27.0293 23.4546 28.3078 23.4546 29.0963 22.6661L28.3892 21.959ZM28.939 21.4092L28.3892 21.959L29.0963 22.6661L29.6461 22.1163L28.939 21.4092ZM29.9845 22.462C29.959 22.1627 29.8801 21.8637 29.752 21.5653L28.8332 21.9601C28.9242 22.172 28.9728 22.3667 28.9881 22.5468L29.9845 22.462ZM28.9169 24.9232C29.6826 24.1432 30.0584 23.3291 29.9845 22.462L28.9881 22.5468C29.0293 23.0304 28.8407 23.5733 28.2033 24.2226L28.9169 24.9232ZM27.8493 26.0106L28.9169 24.9232L28.2033 24.2226L27.1357 25.31L27.8493 26.0106ZM27.139 26.0138L27.139 26.0139L27.8461 25.3068L27.8461 25.3067L27.139 26.0138ZM24.5135 29.4086L27.8493 26.0106L27.1357 25.31L23.7998 28.708L24.5135 29.4086ZM22.0772 30.5107C22.9426 30.5776 23.7483 30.188 24.5135 29.4086L23.7998 28.708C23.1619 29.3579 22.6282 29.5503 22.1543 29.5137L22.0772 30.5107ZM21.4101 30.3705C21.6325 30.4462 21.8549 30.4935 22.0772 30.5107L22.1543 29.5137C22.0222 29.5034 21.882 29.4748 21.7323 29.4238L21.4101 30.3705ZM21.7878 28.9735L21.2177 29.5436L21.9248 30.2507L22.4949 29.6806L21.7878 28.9735ZM21.7878 27.5323C22.1858 27.9302 22.1858 28.5755 21.7878 28.9735L22.4949 29.6806C23.2834 28.8921 23.2834 27.6136 22.4949 26.8251L21.7878 27.5323ZM20.3466 27.5323C20.7446 27.1343 21.3898 27.1343 21.7878 27.5323L22.4949 26.8251C21.7064 26.0366 20.428 26.0366 19.6395 26.8251L20.3466 27.5323ZM19.6463 28.2326L20.3466 27.5323L19.6395 26.8251L18.9392 27.5254L19.6463 28.2326ZM18.4651 26.9023C18.4998 27.3092 18.6331 27.7148 18.854 28.1189L19.7314 27.6391C19.5644 27.3336 19.4823 27.0616 19.4615 26.8174L18.4651 26.9023ZM19.5328 24.4411C18.7671 25.2211 18.3913 26.0352 18.4651 26.9023L19.4615 26.8174C19.4204 26.3338 19.6089 25.791 20.2464 25.1416L19.5328 24.4411ZM20.6005 23.3535L19.5328 24.4411L20.2464 25.1416L21.3141 24.0541L20.6005 23.3535ZM22.8687 21.0431L20.6005 23.3535L21.3141 24.0541L23.5823 21.7436L22.8687 21.0431ZM23.9364 19.9555L22.8687 21.0431L23.5823 21.7436L24.6499 20.6561L23.9364 19.9555ZM26.3726 18.8534C25.5072 18.7864 24.7015 19.1761 23.9363 19.9555L24.65 20.6561C25.2879 20.0062 25.8216 19.8138 26.2955 19.8504L26.3726 18.8534ZM27.3854 19.134C27.0486 18.9753 26.7108 18.8796 26.3726 18.8534L26.2955 19.8504C26.4958 19.8659 26.7158 19.9239 26.9593 20.0386L27.3854 19.134ZM12.261 34.2036C11.4725 34.9921 11.4725 36.2705 12.261 37.059L12.9681 36.3519C12.5702 35.9539 12.5702 35.3087 12.9681 34.9107L12.261 34.2036ZM12.839 33.6256L12.261 34.2036L12.9681 34.9107L13.5461 34.3327L12.839 33.6256ZM12.3157 34.2433C12.516 34.2588 12.736 34.3168 12.9795 34.4315L13.4056 33.5268C13.0688 33.3682 12.731 33.2725 12.3928 33.2463L12.3157 34.2433ZM10.6702 35.049C11.3082 34.3991 11.8418 34.2066 12.3157 34.2433L12.3928 33.2463C11.5274 33.1793 10.7217 33.569 9.95655 34.3484L10.6702 35.049ZM9.60245 36.1365L10.6701 35.049L9.95656 34.3484L8.88887 35.4359L9.60245 36.1365ZM7.3343 38.447L9.60246 36.1365L8.88886 35.436L6.62069 37.7464L7.3343 38.447ZM6.26659 39.5345L7.33429 38.447L6.6207 37.7464L5.553 38.8339L6.26659 39.5345ZM5.48175 41.2103C5.44056 40.7267 5.62914 40.1838 6.2666 39.5345L5.553 38.834C4.78727 39.6139 4.4115 40.4281 4.48535 41.2952L5.48175 41.2103ZM6.45251 42.9681C5.79353 42.261 5.52201 41.6831 5.48175 41.2103L4.48535 41.2952C4.55227 42.081 4.98515 42.8604 5.72095 43.6499L6.45251 42.9681ZM8.17454 43.9065C7.70947 43.8706 7.13556 43.6034 6.42773 42.9433L5.74573 43.6747C6.53498 44.4107 7.31348 44.8429 8.0974 44.9036L8.17454 43.9065ZM9.82005 43.1009C9.18205 43.7508 8.6484 43.9432 8.17454 43.9065L8.0974 44.9036C8.96285 44.9705 9.76846 44.5809 10.5337 43.8014L9.82005 43.1009ZM10.8876 42.0135L9.82006 43.1009L10.5336 43.8014L11.6012 42.7141L10.8876 42.0135ZM13.1559 39.7029L10.8876 42.0135L11.6012 42.7141L13.8695 40.4034L13.1559 39.7029ZM14.2235 38.6155L13.1559 39.7029L13.8695 40.4034L14.9371 39.3161L14.2235 38.6155ZM15.0083 36.9397C15.0495 37.4233 14.8609 37.9662 14.2235 38.6155L14.9371 39.3161C15.7028 38.5361 16.0786 37.7219 16.0047 36.8548L15.0083 36.9397ZM14.8534 36.353C14.9444 36.5649 14.993 36.7596 15.0083 36.9397L16.0047 36.8548C15.9792 36.5556 15.9003 36.2566 15.7722 35.9582L14.8534 36.353ZM15.1165 37.059L15.6663 36.5092L14.9592 35.8021L14.4094 36.3519L15.1165 37.059ZM12.261 37.059C13.0495 37.8475 14.328 37.8475 15.1165 37.059L14.4094 36.3519C14.0114 36.7499 13.3661 36.7499 12.9681 36.3519L12.261 37.059Z" fill="#4F4F4F"/>
</svg>
