<svg width="21" height="28" viewBox="0 0 21 28" fill="none" xmlns="http://www.w3.org/2000/svg">
<path d="M19.9086 8.25977C19.9086 9.24479 19.7205 10.1745 19.3442 11.0488C18.9789 11.9121 18.4698 12.6702 17.8168 13.3232C17.1749 13.9652 16.4168 14.4743 15.5424 14.8506C14.6791 15.2269 13.755 15.415 12.77 15.415C12.4269 15.415 12.1225 15.4759 11.8569 15.5977C11.6023 15.7194 11.3865 15.891 11.2094 16.1123C11.0434 16.3226 10.9161 16.5716 10.8276 16.8594C10.739 17.1471 10.6948 17.457 10.6948 17.7891V19.0508H5.94672V17.7227C5.95778 16.7487 6.12933 15.8301 6.46136 14.9668C6.80446 14.1035 7.27484 13.3564 7.8725 12.7256C8.48122 12.0837 9.20062 11.5801 10.0307 11.2148C10.8608 10.8385 11.7739 10.6504 12.77 10.6504C13.102 10.6504 13.4119 10.5895 13.6996 10.4678C13.9874 10.346 14.2364 10.18 14.4467 9.96973C14.6681 9.74837 14.8396 9.49382 14.9614 9.20605C15.0942 8.90723 15.1606 8.5918 15.1606 8.25977C15.1606 7.92773 15.0942 7.61784 14.9614 7.33008C14.8396 7.04232 14.6681 6.79329 14.4467 6.58301C14.2364 6.36165 13.9874 6.1901 13.6996 6.06836C13.4119 5.94661 13.102 5.88574 12.77 5.88574H1.86273V1.12109H12.77C13.755 1.12109 14.6791 1.30924 15.5424 1.68555C16.4168 2.06185 17.1749 2.5765 17.8168 3.22949C18.4698 3.87142 18.9789 4.62402 19.3442 5.4873C19.7205 6.35059 19.9086 7.27474 19.9086 8.25977ZM11.1762 23.2344C11.1762 23.6328 11.0987 24.0091 10.9438 24.3633C10.7999 24.7064 10.6007 25.0052 10.3461 25.2598C10.0916 25.5143 9.79274 25.7135 9.44965 25.8574C9.10655 26.0124 8.74131 26.0898 8.35394 26.0898C7.96657 26.0898 7.5958 26.0124 7.24164 25.8574C6.89854 25.7135 6.59418 25.5143 6.32855 25.2598C6.07399 25.0052 5.86924 24.7064 5.71429 24.3633C5.57041 24.0091 5.49847 23.6328 5.49847 23.2344C5.49847 22.847 5.57041 22.4818 5.71429 22.1387C5.86924 21.7956 6.07399 21.4967 6.32855 21.2422C6.59418 20.9876 6.89854 20.7884 7.24164 20.6445C7.5958 20.4896 7.96657 20.4121 8.35394 20.4121C8.74131 20.4121 9.10655 20.4896 9.44965 20.6445C9.79274 20.7884 10.0916 20.9876 10.3461 21.2422C10.6007 21.4967 10.7999 21.7956 10.9438 22.1387C11.0987 22.4818 11.1762 22.847 11.1762 23.2344Z" fill="#2196F3"/>
<path d="M19.3442 11.0488L18.4256 10.6535L18.4232 10.6592L19.3442 11.0488ZM17.8168 13.3232L18.5239 14.0303L17.8168 13.3232ZM15.5424 14.8506L15.1471 13.932L15.1428 13.9339L15.5424 14.8506ZM11.8569 15.5977L11.4402 14.6886L11.4328 14.692L11.4254 14.6955L11.8569 15.5977ZM11.2094 16.1123L10.4285 15.4876L10.4245 15.4927L11.2094 16.1123ZM10.6948 19.0508V20.0508H11.6948V19.0508H10.6948ZM5.94672 19.0508H4.94672V20.0508H5.94672V19.0508ZM5.94672 17.7227L4.94672 17.7113V17.7227H5.94672ZM6.46136 14.9668L5.53201 14.5974L5.52802 14.6078L6.46136 14.9668ZM7.8725 12.7256L7.14687 12.0375L7.14654 12.0378L7.8725 12.7256ZM10.0307 11.2148L10.4335 12.1302L10.4436 12.1256L10.0307 11.2148ZM14.9614 9.20605L14.0476 8.79992L14.0439 8.80813L14.0404 8.81641L14.9614 9.20605ZM14.9614 7.33008L14.0404 7.71972L14.0467 7.73453L14.0534 7.74914L14.9614 7.33008ZM14.4467 6.58301L13.7217 7.27176L13.7394 7.29035L13.758 7.30801L14.4467 6.58301ZM1.86273 5.88574H0.862732V6.88574H1.86273V5.88574ZM1.86273 1.12109V0.121094H0.862732V1.12109H1.86273ZM15.5424 1.68555L15.1428 2.60225L15.1471 2.60409L15.5424 1.68555ZM17.8168 3.22949L17.1037 3.93053L17.1097 3.93662L17.1158 3.94262L17.8168 3.22949ZM19.3442 5.4873L18.4232 5.87697L18.4275 5.88689L19.3442 5.4873ZM10.9438 24.3633L10.0276 23.9625L10.0246 23.9695L10.0216 23.9766L10.9438 24.3633ZM10.3461 25.2598L9.63902 24.5527L10.3461 25.2598ZM9.44965 25.8574L9.06292 24.9352L9.05042 24.9405L9.03806 24.9461L9.44965 25.8574ZM7.24164 25.8574L7.64246 24.9413L7.63543 24.9382L7.62836 24.9352L7.24164 25.8574ZM6.32855 25.2598L5.62145 25.9669L5.62897 25.9744L5.63665 25.9818L6.32855 25.2598ZM5.71429 24.3633L4.78783 24.7397L4.79504 24.7574L4.80292 24.7749L5.71429 24.3633ZM5.71429 22.1387L4.80292 21.7271L4.79734 21.7394L4.7921 21.7519L5.71429 22.1387ZM6.32855 21.2422L5.63665 20.5202L5.62897 20.5276L5.62145 20.5351L6.32855 21.2422ZM7.24164 20.6445L7.62836 21.5667L7.63543 21.5638L7.64246 21.5607L7.24164 20.6445ZM9.44965 20.6445L9.03806 21.5559L9.05042 21.5615L9.06292 21.5667L9.44965 20.6445ZM10.9438 22.1387L10.0216 22.5254L10.0268 22.5379L10.0324 22.5503L10.9438 22.1387ZM18.9086 8.25977C18.9086 9.11369 18.7463 9.9084 18.4256 10.6535L20.2627 11.4442C20.6946 10.4406 20.9086 9.37589 20.9086 8.25977H18.9086ZM18.4232 10.6592C18.1074 11.4057 17.6703 12.0556 17.1097 12.6161L18.5239 14.0303C19.2694 13.2849 19.8505 12.4185 20.2651 11.4385L18.4232 10.6592ZM17.1097 12.6161C16.5617 13.1642 15.9108 13.6034 15.1471 13.932L15.9377 15.7691C16.9227 15.3452 17.7881 14.7662 18.5239 14.0303L17.1097 12.6161ZM15.1428 13.9339C14.4114 14.2527 13.6239 14.415 12.77 14.415V16.415C13.886 16.415 14.9469 16.2011 15.942 15.7673L15.1428 13.9339ZM12.77 14.415C12.3079 14.415 11.8574 14.4974 11.4402 14.6886L12.2735 16.5067C12.3876 16.4544 12.5458 16.415 12.77 16.415V14.415ZM11.4254 14.6955C11.0343 14.8826 10.6993 15.1492 10.4285 15.4876L11.9903 16.737C12.0737 16.6327 12.1703 16.5562 12.2883 16.4998L11.4254 14.6955ZM10.4245 15.4927C10.173 15.8112 9.99222 16.1739 9.8718 16.5653L11.7834 17.1535C11.84 16.9693 11.9138 16.8339 11.9943 16.7319L10.4245 15.4927ZM9.8718 16.5653C9.7511 16.9576 9.69476 17.3675 9.69476 17.7891H11.6948C11.6948 17.5466 11.727 17.3367 11.7834 17.1535L9.8718 16.5653ZM9.69476 17.7891V19.0508H11.6948V17.7891H9.69476ZM10.6948 18.0508H5.94672V20.0508H10.6948V18.0508ZM6.94672 19.0508V17.7227H4.94672V19.0508H6.94672ZM6.94665 17.734C6.95644 16.8726 7.1076 16.0723 7.39471 15.3258L5.52802 14.6078C5.15107 15.5879 4.95913 16.6248 4.94678 17.7113L6.94665 17.734ZM7.39066 15.3361C7.6901 14.5827 8.09408 13.9457 8.59845 13.4133L7.14654 12.0378C6.4556 12.7672 5.91883 13.6243 5.53207 14.5975L7.39066 15.3361ZM8.59812 13.4137C9.11306 12.8706 9.72189 12.4432 10.4334 12.1302L9.62796 10.2995C8.67935 10.7169 7.84938 11.2967 7.14687 12.0375L8.59812 13.4137ZM10.4436 12.1256C11.1323 11.8134 11.9029 11.6504 12.77 11.6504V9.65039C11.6448 9.65039 10.5893 9.86368 9.61781 10.3041L10.4436 12.1256ZM12.77 11.6504C13.2273 11.6504 13.6706 11.5659 14.0893 11.3887L13.31 9.54681C13.1531 9.61318 12.9766 9.65039 12.77 9.65039V11.6504ZM14.0893 11.3887C14.4896 11.2194 14.8479 10.9828 15.1538 10.6768L13.7396 9.26262C13.625 9.37727 13.4853 9.47266 13.31 9.54681L14.0893 11.3887ZM15.1538 10.6768C15.4661 10.3646 15.7103 10.0023 15.8823 9.59569L14.0404 8.81641C13.9689 8.98534 13.8701 9.13215 13.7396 9.26262L15.1538 10.6768ZM15.8752 9.61219C16.0657 9.1835 16.1606 8.7295 16.1606 8.25977H14.1606C14.1606 8.45409 14.1226 8.63095 14.0476 8.79992L15.8752 9.61219ZM16.1606 8.25977C16.1606 7.79009 16.0657 7.33642 15.8693 6.91102L14.0534 7.74914C14.1227 7.89925 14.1606 8.06538 14.1606 8.25977H16.1606ZM15.8823 6.94044C15.7083 6.52916 15.4588 6.16518 15.1355 5.85801L13.758 7.30801C13.8773 7.4214 13.9709 7.55547 14.0404 7.71972L15.8823 6.94044ZM15.1717 5.89426C14.8645 5.57092 14.5006 5.32139 14.0893 5.14739L13.31 6.98933C13.4742 7.05881 13.6083 7.15239 13.7217 7.27176L15.1717 5.89426ZM14.0893 5.14739C13.6706 4.97027 13.2273 4.88574 12.77 4.88574V6.88574C12.9766 6.88574 13.1531 6.92296 13.31 6.98933L14.0893 5.14739ZM12.77 4.88574H1.86273V6.88574H12.77V4.88574ZM2.86273 5.88574V1.12109H0.862732V5.88574H2.86273ZM1.86273 2.12109H12.77V0.121094H1.86273V2.12109ZM12.77 2.12109C13.6239 2.12109 14.4114 2.28341 15.1428 2.60224L15.942 0.768851C14.9469 0.335083 13.886 0.121094 12.77 0.121094V2.12109ZM15.1471 2.60409C15.9072 2.93123 16.5562 3.37359 17.1037 3.93053L18.53 2.52845C17.7936 1.7794 16.9263 1.19247 15.9377 0.767004L15.1471 2.60409ZM17.1158 3.94262C17.6727 4.49003 18.108 5.13198 18.4232 5.87694L20.2651 5.09766C19.8499 4.11607 19.267 3.2528 18.5179 2.51637L17.1158 3.94262ZM18.4275 5.88689C18.7463 6.61834 18.9086 7.40579 18.9086 8.25977H20.9086C20.9086 7.14369 20.6946 6.08283 20.2609 5.08772L18.4275 5.88689ZM10.1762 23.2344C10.1762 23.4992 10.1256 23.7386 10.0276 23.9625L11.8599 24.7641C12.0719 24.2796 12.1762 23.7664 12.1762 23.2344H10.1762ZM10.0216 23.9766C9.92621 24.204 9.79868 24.393 9.63902 24.5527L11.0532 25.9669C11.4027 25.6174 11.6736 25.2088 11.866 24.75L10.0216 23.9766ZM9.63902 24.5527C9.47937 24.7123 9.29036 24.8398 9.06292 24.9352L9.83637 26.7796C10.2951 26.5872 10.7038 26.3163 11.0532 25.9669L9.63902 24.5527ZM9.03806 24.9461C8.82811 25.0409 8.6036 25.0898 8.35394 25.0898V27.0898C8.87902 27.0898 9.38499 26.9839 9.86123 26.7688L9.03806 24.9461ZM8.35394 25.0898C8.10424 25.0898 7.86996 25.0408 7.64246 24.9413L6.84082 26.7736C7.32165 26.9839 7.82891 27.0898 8.35394 27.0898V25.0898ZM7.62836 24.9352C7.39711 24.8382 7.19649 24.7065 7.02046 24.5378L5.63665 25.9818C5.99187 26.3222 6.39997 26.5888 6.85491 26.7796L7.62836 24.9352ZM7.03566 24.5527C6.87034 24.3873 6.73323 24.1899 6.62567 23.9517L4.80292 24.7749C5.00526 25.2229 5.27765 25.6231 5.62145 25.9669L7.03566 24.5527ZM6.64076 23.9869C6.54749 23.7573 6.49847 23.5093 6.49847 23.2344H4.49847C4.49847 23.7563 4.59334 24.2609 4.78783 24.7397L6.64076 23.9869ZM6.49847 23.2344C6.49847 22.9742 6.54608 22.741 6.63649 22.5254L4.7921 21.7519C4.59475 22.2225 4.49847 22.7198 4.49847 23.2344H6.49847ZM6.62567 22.5503C6.73323 22.3121 6.87034 22.1146 7.03566 21.9493L5.62145 20.5351C5.27765 20.8789 5.00526 21.2791 4.80292 21.7271L6.62567 22.5503ZM7.02046 21.9642C7.19649 21.7955 7.39711 21.6637 7.62836 21.5667L6.85491 19.7223C6.39997 19.9131 5.99187 20.1798 5.63665 20.5202L7.02046 21.9642ZM7.64246 21.5607C7.86996 21.4612 8.10424 21.4121 8.35394 21.4121V19.4121C7.82891 19.4121 7.32165 19.518 6.84082 19.7284L7.64246 21.5607ZM8.35394 21.4121C8.6036 21.4121 8.82811 21.4611 9.03806 21.5559L9.86123 19.7332C9.38499 19.5181 8.87902 19.4121 8.35394 19.4121V21.4121ZM9.06292 21.5667C9.29036 21.6621 9.47937 21.7896 9.63902 21.9493L11.0532 20.5351C10.7038 20.1856 10.2951 19.9147 9.83637 19.7223L9.06292 21.5667ZM9.63902 21.9493C9.79868 22.109 9.92621 22.298 10.0216 22.5254L11.866 21.7519C11.6736 21.2932 11.4027 20.8845 11.0532 20.5351L9.63902 21.9493ZM10.0324 22.5503C10.1272 22.7602 10.1762 22.9847 10.1762 23.2344H12.1762C12.1762 22.7093 12.0702 22.2033 11.8552 21.7271L10.0324 22.5503Z" fill="#4F4F4F"/>
</svg>
