<svg width="33" height="33" viewBox="0 0 33 33" fill="none" xmlns="http://www.w3.org/2000/svg">
<path d="M11.0241 9.91544C12.5993 16.2163 11.3152 18.3494 8.41252 23.4237C9.20509 22.1199 11.2694 19.9154 14.2743 19.9154C18.2743 19.9154 18.7743 21.6654 19.5243 22.9154C20.2743 24.1654 18.4605 18.4315 25.7743 18.1655C32.6491 17.9154 32.0243 22.9155 30.7743 27.9155C29.5243 32.9155 7.58667 33.1029 0.524053 26.9155C0.149155 17.1029 4.52406 5.66546 10.2741 2.41546C16.0241 -0.834542 17.7108 1.93278 18.0866 3.85298C18.6492 6.72784 17.0242 9.29031 11.0241 9.91544Z" fill="#2196F3"/>
<path d="M11.0241 9.91544C12.6241 16.3154 11.2741 18.4155 8.2743 23.6654C8.94097 22.4154 11.0743 19.9154 14.2743 19.9154C18.2743 19.9154 18.7743 21.6654 19.5243 22.9154C20.2743 24.1654 18.4605 18.4315 25.7743 18.1655C32.6491 17.9154 32.0243 22.9155 30.7743 27.9155C29.5243 32.9155 7.58667 33.1029 0.524053 26.9155C0.149155 17.1029 4.52406 5.66546 10.2741 2.41546C16.0241 -0.834542 17.7108 1.93278 18.0866 3.85298C18.6492 6.72784 17.0242 9.29031 11.0241 9.91544Z" stroke="#4F4F4F"/>
</svg>
