<svg width="101" height="100" viewBox="0 0 101 100" fill="none" xmlns="http://www.w3.org/2000/svg">
<path fill-rule="evenodd" clip-rule="evenodd" d="M56.5186 9.1025L57.637 12.0629L58.4714 14.2718L60.1163 12.5778L63.2829 9.3167L62.1186 10.7218L64.4287 12.6359L71.1945 4.47023C88.4818 12.3404 100.5 29.7667 100.5 50C100.5 77.6142 78.1142 100 50.5 100C22.8858 100 0.5 77.6142 0.5 50C0.5 22.3858 22.8858 0 50.5 0C51.3738 0 52.2423 0.0224126 53.105 0.0666941L55.458 6.29499L52.856 7.19566L53.8373 10.0306L56.5186 9.1025ZM56.4177 0.346525L59.6089 8.7939L65.825 2.3923C62.8044 1.42074 59.6585 0.72866 56.4177 0.346525ZM36.9016 43.269L37.907 40.5624L35.3517 39.4672L34.9884 40.2165L33.9744 42.3079L32.4864 40.5223L29.5667 37.0187L28.0368 35.1828L30.3552 34.6032L35.6107 33.2893L38.3091 32.6147L37.3903 35.2401L36.9294 36.5567L40.3393 38.3065C40.761 38.0295 41.0782 37.7039 41.1886 37.4295C41.2377 37.3074 41.2525 37.1908 41.174 37.0035C41.0765 36.7707 40.797 36.3553 40.0509 35.8081L41.825 33.3889C42.8308 34.1265 43.561 34.9373 43.941 35.8441C44.34 36.7964 44.3001 37.7327 43.972 38.5486C43.8119 38.9469 43.5892 39.3046 43.3307 39.6229L45.7624 40.6651L44.5807 43.4225L40.6677 41.7455L39.7799 44.1358L40.738 44.3894L39.9703 47.2895L35.0068 45.9756L35.6513 43.0484L36.9016 43.269ZM58.5815 15.5301C57.1481 13.828 55.391 13.1854 53.8332 13.5831C52.4866 13.9269 51.0335 15.3226 51.6316 17.1167C51.8306 17.7138 52.1979 18.2218 52.6441 18.6207L49.7245 18.1098L47.6742 16.9037L47.2223 17.6719L42.0723 16.7706L37.037 15.8895L40.7978 19.3517L49.2615 27.1437L48.8927 28.0452L51.6693 29.1811L52.9832 25.9694L51.961 25.5512L48.1382 22.0318L48.7537 20.9855L53.234 21.7695L53.4835 21.8132L53.7336 21.7725C54.8535 21.5902 56.5526 21.1535 57.7723 20.3522C58.3755 19.956 59.0881 19.3229 59.3477 18.3733C59.6358 17.3196 59.2554 16.3304 58.5815 15.5301ZM54.7562 16.4731C55.0265 16.4809 55.5321 16.6185 56.1774 17.3367L54.8736 16.8152C54.8757 16.8108 54.892 16.7782 54.9338 16.7376C54.9824 16.6904 55.0383 16.6591 55.0856 16.6425C55.1205 16.6304 55.1392 16.6295 55.1392 16.6295C55.1392 16.6295 55.1057 16.6312 55.0331 16.6096C54.9474 16.5842 54.8494 16.5374 54.7562 16.4731ZM76.5584 43.0292C76.5584 47.6853 72.9636 51.4599 68.5292 51.4599C64.0948 51.4599 60.5 47.6853 60.5 43.0292C60.5 38.3731 64.0948 34.5985 68.5292 34.5985C72.9636 34.5985 76.5584 38.3731 76.5584 43.0292ZM30.3471 13.8723C35.6658 10.8295 39.2005 7.00478 38.2421 5.32951C37.2836 3.65424 32.1951 4.76282 26.8764 7.8056C21.5577 10.8484 18.023 14.6731 18.9815 16.3484C19.9399 18.0237 25.0285 16.9151 30.3471 13.8723ZM16.4433 29.7622C15.0008 33.1067 12.2316 35.128 10.2583 34.2768C8.28492 33.4257 7.85463 30.0244 9.29719 26.6799C10.7398 23.3354 13.5089 21.3141 15.4822 22.1653C17.4556 23.0164 17.8859 26.4177 16.4433 29.7622ZM22.9087 40.146C24.4003 40.146 25.6095 39.0349 25.6095 37.6642C25.6095 36.2936 24.4003 35.1825 22.9087 35.1825C21.4172 35.1825 20.208 36.2936 20.208 37.6642C20.208 39.0349 21.4172 40.146 22.9087 40.146ZM28.8683 20.2829C29.7833 21.4609 29.1313 23.4983 27.4121 24.8337C25.6929 26.169 23.5575 26.2966 22.6425 25.1186C21.7276 23.9406 22.3795 21.9032 24.0988 20.5678C25.818 19.2325 27.9534 19.1049 28.8683 20.2829ZM50.573 60.5839C52.7498 60.5839 54.5146 58.8192 54.5146 56.6423C54.5146 54.4654 52.7498 52.7007 50.573 52.7007C48.3961 52.7007 46.6313 54.4654 46.6313 56.6423C46.6313 58.8192 48.3961 60.5839 50.573 60.5839ZM67.5072 62.7737C67.5072 64.87 65.7752 66.5693 63.6386 66.5693C61.5021 66.5693 59.77 64.87 59.77 62.7737C59.77 60.6775 61.5021 58.9781 63.6386 58.9781C65.7752 58.9781 67.5072 60.6775 67.5072 62.7737ZM49.4051 74.1606C51.0176 74.1606 52.3248 72.9841 52.3248 71.5328C52.3248 70.0816 51.0176 68.9051 49.4051 68.9051C47.7925 68.9051 46.4854 70.0816 46.4854 71.5328C46.4854 72.9841 47.7925 74.1606 49.4051 74.1606ZM98.1538 47.1085C98.5402 50.6349 98.0738 53.579 97.1121 53.6844C96.1503 53.7898 95.0574 51.0165 94.671 47.4901C94.2847 43.9636 94.7511 41.0195 95.7128 40.9141C96.6746 40.8087 97.7675 43.582 98.1538 47.1085ZM29.0837 48.9712L27.4226 48.3105L27.0604 50.0611L26.1845 54.2946L25.9329 55.5108L27.0808 55.9849L32.6284 58.2764L31.6716 62.5385L25.9717 60.4865L24.9555 63.3091L32.2548 65.9369L33.8541 66.5126L34.2265 64.8541L35.8323 57.7008L36.109 56.4682L34.9414 55.9859L29.3739 53.6863L29.636 52.4194L39.5694 56.3702L39.3369 57.3004L42.2473 58.028L42.3821 57.4889L42.4448 57.5138L42.8376 55.8117L43.2756 53.9139L40.3588 53.2128L40.3036 53.4336L29.0837 48.9712ZM81.8202 16.098C81.5217 15.9901 81.2169 15.956 80.915 16.0069C79.3646 16.2682 78.4771 18.6713 78.9327 21.3745C79.3883 24.0776 81.0144 26.0571 82.5647 25.7959C83.0741 25.71 83.5119 25.3929 83.8541 24.9099C83.5901 22.1511 82.9513 19.0294 81.8202 16.098ZM68.3831 20.5839C69.9956 20.5839 71.3028 19.2767 71.3028 17.6642C71.3028 16.0517 69.9956 14.7445 68.3831 14.7445C66.7706 14.7445 65.4634 16.0517 65.4634 17.6642C65.4634 19.2767 66.7706 20.5839 68.3831 20.5839ZM79.9159 33.5766C79.9159 34.786 78.9355 35.7664 77.7262 35.7664C76.5168 35.7664 75.5364 34.786 75.5364 33.5766C75.5364 32.3673 76.5168 31.3869 77.7262 31.3869C78.9355 31.3869 79.9159 32.3673 79.9159 33.5766ZM87.3205 57.1886C85.5955 60.1893 83.7043 62.9465 82.0471 65.1126C82.6948 65.4831 83.4356 65.6934 84.2226 65.6934C86.7623 65.6934 88.8212 63.5038 88.8212 60.8029C88.8212 59.3711 88.2426 58.0829 87.3205 57.1886ZM74.9756 89.7859C75.4815 90.8844 74.0511 92.6224 71.7809 93.6679C69.5107 94.7133 67.2602 94.6703 66.7543 93.5718C66.2485 92.4733 67.6788 90.7353 69.949 89.6898C72.2193 88.6444 74.4697 88.6874 74.9756 89.7859ZM51.1569 87.5912C50.9273 87.6241 50.5059 87.6937 49.8315 87.8052C48.7065 87.9913 46.8771 88.2938 44.0588 88.7358C44.4756 90.5613 47.2005 91.9708 50.5 91.9708C54.0878 91.9708 56.9963 90.3041 56.9963 88.2482C56.9963 88.216 56.9956 88.184 56.9942 88.1521C55.9628 88.0584 54.917 87.9378 53.9962 87.8315L53.9959 87.8315L53.994 87.8313L53.9931 87.8312C52.6012 87.6705 51.4952 87.5429 51.1569 87.5912ZM33.4624 82.9333C33.7593 82.4204 33.9307 81.8155 33.9307 81.1679C33.9307 81.0089 33.9204 80.8526 33.9004 80.6995C32.7001 79.9382 31.3399 79.025 29.8625 77.9599C28.5829 78.3838 27.6533 79.6597 27.6533 81.1679C27.6533 81.8045 27.8189 82.3997 28.1066 82.9069C29.6447 82.8342 31.5848 82.8619 33.4624 82.9333ZM6.71649 58.4222C7.06734 58.1171 7.51716 57.961 8.02759 57.9401C10.3469 61.4098 12.7149 64.2985 14.7345 66.5373C14.6219 66.7634 14.4721 66.9615 14.2837 67.1253C12.9452 68.2891 10.1661 67.2843 8.07645 64.8811C5.98682 62.4778 5.37795 59.586 6.71649 58.4222Z" fill="black"/>
</svg>
