<svg width="38" height="32" viewBox="0 0 38 32" fill="none" xmlns="http://www.w3.org/2000/svg">
<path d="M13.1094 23.9081C11.6948 27.3052 2.89305 22.5837 5.87945 31.2492L1.00695 31.2492C0.849556 26.267 3.25985 1.44411 19.2674 1.0062C34.5376 0.588453 35.5135 21.4013 37 31.2492H31.0192C32.3308 29.0931 32.1474 27.08 31.0192 25.7506C29.4556 23.9081 27.2236 26.5911 24.007 24.3482C27.6262 23.4281 29.7699 19.8775 29.1936 18.6107C28.6173 17.344 25.6709 20.3227 23.5431 19.8051C27.3387 15.492 26.5335 11.1821 24.6933 10.7764C22.853 10.3706 20.8916 14.8105 19.2674 17.8046C18.1672 15.2712 16.4121 9.10863 14.0525 9.97386C11.6929 10.8391 12.6897 17.1568 15.2045 19.5176C11.0064 19.5176 11.0138 16.7682 9.59918 17.8046C8.56899 18.5594 8.02743 23.4474 13.1094 23.9081Z" fill="#FFC107" stroke="#4F4F4F"/>
</svg>
