<svg width="97" height="88" viewBox="0 0 97 88" fill="none" xmlns="http://www.w3.org/2000/svg">
<path fill-rule="evenodd" clip-rule="evenodd" d="M21.0005 15.4998C14.2832 24.7762 11.863 34.0527 8.89632 45.4239C7.22577 51.827 5.38193 58.8944 2.49995 67C-3.50024 79.5 3.32152 90.3794 11 87.5C14.1937 86.3023 16.75 83.3513 18.9234 80.8424C22.1937 77.0671 24.597 74.2928 27 80C31 89.5 35 89.5 41 83C49.2027 74.1137 51.5 74.9999 54.5 81.4998C57.5 87.9998 62.5 89.9998 68.5 81.4998C74.5 72.9998 76.5004 74 81.0004 80C85.5004 86 100 81.5 95.5 70.5C93.9882 66.8045 92.1943 64.0119 90.3836 61.1933C86.8045 55.6221 83.16 49.949 81.5 37C79.1477 18.6502 67.0284 -0.000211424 49.0006 -0.00012207C37.0006 -6.25908e-05 29.0341 4.40578 21.0005 15.4998ZM33.6877 19.3042C42.0697 17.649 44.5843 22.6144 42.0697 37.5107C38.7169 52.407 25.3057 53.2346 21.1147 48.2691C16.9237 43.3037 25.3057 20.9593 33.6877 19.3042ZM52.9303 37.5107C50.4157 22.6144 52.9303 17.649 61.3122 19.3042C69.6942 20.9593 78.0762 43.3037 73.8852 48.2691C69.6943 53.2346 56.283 52.407 52.9303 37.5107Z" fill="#2196F3"/>
</svg>
