<svg width="38" height="38" viewBox="0 0 38 38" fill="none" xmlns="http://www.w3.org/2000/svg">
<mask id="path-1-inside-1" fill="white">
<path fill-rule="evenodd" clip-rule="evenodd" d="M15.6267 20.8769V23.7783L34.0021 23.7783V27.405V27.6468V33.2078H30.1336V27.6468H28.1994V33.2078H24.3309L24.3309 27.6468L15.6267 27.6468V30.5482H5.95544V20.8769H15.6267ZM11.8979 26.6797V24.7454H9.96368V26.6797H11.8979Z"/>
</mask>
<path fill-rule="evenodd" clip-rule="evenodd" d="M15.6267 20.8769V23.7783L34.0021 23.7783V27.405V27.6468V33.2078H30.1336V27.6468H28.1994V33.2078H24.3309L24.3309 27.6468L15.6267 27.6468V30.5482H5.95544V20.8769H15.6267ZM11.8979 26.6797V24.7454H9.96368V26.6797H11.8979Z" fill="#FFC107"/>
<path d="M15.6267 23.7783H14.6267V24.7783L15.6267 24.7783L15.6267 23.7783ZM15.6267 20.8769H16.6267V19.8769H15.6267V20.8769ZM34.0021 23.7783H35.0021V22.7783L34.0021 22.7783L34.0021 23.7783ZM34.0021 33.2078V34.2078H35.0021V33.2078H34.0021ZM30.1336 33.2078H29.1336V34.2078H30.1336V33.2078ZM30.1336 27.6468H31.1336V26.6468H30.1336V27.6468ZM28.1994 27.6468V26.6468H27.1994V27.6468H28.1994ZM28.1994 33.2078V34.2078H29.1994V33.2078H28.1994ZM24.3309 33.2078L23.3309 33.2078L23.3309 34.2078H24.3309V33.2078ZM24.3309 27.6468L25.3309 27.6468L25.3309 26.6468L24.3309 26.6468L24.3309 27.6468ZM15.6267 27.6468L15.6267 26.6468L14.6267 26.6468V27.6468H15.6267ZM15.6267 30.5482V31.5482H16.6267V30.5482H15.6267ZM5.95544 30.5482H4.95544V31.5482H5.95544V30.5482ZM5.95544 20.8769V19.8769H4.95544V20.8769H5.95544ZM11.8979 24.7454H12.8979V23.7454H11.8979V24.7454ZM11.8979 26.6797V27.6797H12.8979V26.6797H11.8979ZM9.96368 24.7454V23.7454H8.96368V24.7454H9.96368ZM9.96368 26.6797H8.96368V27.6797H9.96368V26.6797ZM16.6267 23.7783V20.8769H14.6267V23.7783H16.6267ZM34.0021 22.7783L15.6267 22.7783L15.6267 24.7783L34.0021 24.7783L34.0021 22.7783ZM35.0021 27.405V23.7783H33.0021V27.405H35.0021ZM35.0021 27.6468V27.405H33.0021V27.6468H35.0021ZM35.0021 33.2078V27.6468H33.0021V33.2078H35.0021ZM30.1336 34.2078H34.0021V32.2078H30.1336V34.2078ZM29.1336 27.6468V33.2078H31.1336V27.6468H29.1336ZM28.1994 28.6468H30.1336V26.6468H28.1994V28.6468ZM29.1994 33.2078V27.6468H27.1994V33.2078H29.1994ZM24.3309 34.2078H28.1994V32.2078H24.3309V34.2078ZM23.3309 27.6468L23.3309 33.2078L25.3309 33.2078L25.3309 27.6468L23.3309 27.6468ZM15.6267 28.6468L24.3309 28.6468L24.3309 26.6468L15.6267 26.6468L15.6267 28.6468ZM16.6267 30.5482V27.6468H14.6267V30.5482H16.6267ZM5.95544 31.5482H15.6267V29.5482H5.95544V31.5482ZM4.95544 20.8769V30.5482H6.95544V20.8769H4.95544ZM15.6267 19.8769H5.95544V21.8769H15.6267V19.8769ZM10.8979 24.7454V26.6797H12.8979V24.7454H10.8979ZM9.96368 25.7454H11.8979V23.7454H9.96368V25.7454ZM10.9637 26.6797V24.7454H8.96368V26.6797H10.9637ZM11.8979 25.6797H9.96368V27.6797H11.8979V25.6797Z" fill="#9E9E9E" mask="url(#path-1-inside-1)"/>
<path d="M27.5074 16.0949L13.7307 37.0593L21.0799 19.6425L12.6941 19.296L24.9765 0.584198L19.6242 15.2254L27.5074 16.0949Z" fill="#2196F3" stroke="#9E9E9E"/>
</svg>
