<svg width="38" height="40" viewBox="0 0 38 40" fill="none" xmlns="http://www.w3.org/2000/svg">
<path d="M7.8983 15.1374C8.0523 15.9074 6.74335 16.0999 6.06963 16.0999C6.34233 15.9716 6.80109 15.609 6.4546 15.1856C6.02724 14.6632 5.15473 15.7106 4.66933 16.2932L4.64999 16.3165C4.23667 16.8124 3.59129 17.3511 4.07252 18.4579C4.55375 19.5647 7.36894 18.3136 8.86075 17.6398C10.3074 16.9865 10.4488 16.918 11.1707 16.4849C11.8925 16.0518 11.315 15.5224 10.3526 16.0518C9.3901 16.5811 8.57201 17.3992 8.62013 16.5811C8.66826 15.763 9.60666 14.3915 9.51041 14.0547C9.41416 13.7178 9.7029 13.0441 9.87133 12.7313C8.13891 12.7313 7.12832 9.94016 7.56143 10.4214C7.90792 10.8064 9.79113 11.1593 10.6894 11.2876L11.7962 10.8545L11.3631 10.0364L12.6143 10.5176C13.1196 10.3251 13.1678 10.2048 13.3362 9.84391C13.3121 7.89494 14.1783 7.14903 14.8521 6.45125C14.5441 7.14422 15.1969 9.26644 15.6461 9.94016C15.8065 10.1647 16.1947 10.4791 16.4642 9.94016C16.7337 9.40118 17.5389 8.75313 17.9079 8.49647L17.7635 10.277C18.5816 10.5337 20.3718 11.124 20.9877 11.432C21.6037 11.74 21.2444 12.3623 20.9877 12.635C21.1481 12.4746 21.5556 12.0768 21.9021 11.7688C22.2486 11.4608 22.6881 11.4801 22.8645 11.5282L22.9127 10.662L23.3458 10.7101L25.6075 9.12207L24.8376 8.83333L24.0195 9.26644L23.9232 10.1327C23.4741 9.94016 22.6143 9.65142 22.7683 10.0364C22.9608 10.5176 21.4208 11.9613 21.8058 11.0951C22.1138 10.4021 21.3567 10.1968 20.9396 10.1808C20.6509 10.3412 20.0734 10.585 20.0734 10.277C20.0734 9.96904 19.6243 9.50705 19.3997 9.31456L18.8703 9.74767L18.3891 8.30398C18.1485 8.17565 17.5325 7.86125 16.9935 7.63026C16.3198 7.34152 16.9935 5.99408 16.9935 6.37906C16.9935 6.76405 18.1485 7.2934 18.6297 6.90842C19.0147 6.60043 18.6939 6.20261 18.4853 6.0422C17.8918 5.83367 16.7048 5.30111 16.7048 4.83913C16.7048 4.37715 15.9027 3.55585 15.5017 3.20295C15.999 2.94629 17.1379 2.43298 17.7154 2.43298C18.4372 2.43298 20.0734 3.20295 20.4584 2.76984C20.8434 2.33674 20.7952 1.85551 20.0734 1.80738C19.4959 1.76889 18.7741 2.08008 18.4853 2.24049C18.6297 1.98384 19.0821 1.39353 19.7365 1.08554C20.391 0.777553 21.6454 0.957212 22.1908 1.08554C22.7041 1.08554 23.827 1.05667 24.212 0.941173C24.6932 0.796804 26.1369 0.89305 26.7144 0.989296C27.2918 1.08554 28.4468 2.14424 28.7837 2.14424C29.1205 2.14424 28.8077 1.75926 28.519 1.1096C29.6258 1.27803 29.1205 1.95175 29.7942 2.96233C30.3332 3.7708 31.2139 4.17343 31.4545 4.23759C31.2459 4.30176 30.6027 4.53114 30.7567 5.22411C30.9492 6.09032 31.671 5.60909 32.2485 5.99408C32.7105 6.30206 32.7297 6.95653 32.6816 7.24527C32.5533 7.06882 32.1619 6.71592 31.6229 6.71592C31.0839 6.71592 31.0454 7.55005 31.0936 7.96712L32.0079 8.49647L31.4304 9.02582C31.1657 9.43487 31.0984 9.98828 31.4064 10.1808C31.7913 10.4214 32.056 10.4214 33.235 10.1808C32.6094 11.2876 31.7673 11.1914 30.877 11.2635C30.3958 12.1779 29.9386 12.0094 29.3611 12.3944C28.8991 12.7024 28.9761 13.2286 29.0724 13.4531C29.0243 13.8381 27.032 15.6668 26.7625 15.8593C26.4256 16.0999 26.2331 16.7977 26.4256 17.2308C26.6181 17.6639 27.8784 18.5974 28.0618 18.2414C28.4709 17.4473 29.1927 18.1451 30.3477 18.3857C31.2716 18.5782 31.8956 18.1531 32.1041 17.9767C31.9598 18.0248 31.4785 18.1018 30.7086 18.0248C29.7461 17.9286 28.9498 17.2591 28.6874 16.918C28.2062 16.2924 28.3024 15.5705 28.928 14.7524C29.4285 14.098 29.9707 14.1589 30.1792 14.2712C30.0188 14.4637 29.5321 15.0593 29.698 15.3299C30.1552 16.0758 31.9598 15.3299 32.7779 15.3059C33.5609 15.2828 35.8577 15.1374 36.5796 16.9661C37.3014 18.7948 35.0878 20.2866 34.4862 20.5513C33.8255 20.842 32.0079 21.1047 31.2379 21.0084C30.468 20.9122 30.9011 21.4897 29.4093 21.4897C27.9174 21.4897 27.7731 21.634 27.4843 21.7784C27.2533 21.8939 25.9765 21.7624 25.3669 21.6821L23.8751 23.0296C25.8 22.0671 26.9261 22.1441 28.928 22.4521C31.4304 22.8371 32.2966 25.4357 32.3929 27.0719C32.4891 28.7081 30.8529 29.6706 30.5642 31.1143C30.3332 32.2692 31.0134 33.8733 31.3823 34.531L29.6499 34.0016L29.1205 34.8197C28.8478 34.547 28.2158 34.0016 27.8693 34.0016C27.5228 34.0016 26.8908 34.7395 26.6181 35.1085L25.8963 32.6542H24.6932C25.0942 32.1409 26.0021 30.9795 26.4256 30.4405C26.8491 29.9016 26.6342 27.9061 26.4738 26.9757C26.4417 27.1361 26.1272 27.3174 25.5112 27.6253C24.8953 27.9333 24.0034 27.9702 23.5864 27.8419C23.2976 28.5477 22.4699 30.2288 21.469 31.3067C20.468 32.3847 18.5575 32.8226 16.8972 32.8707L17.8116 34.5791V35.8303L18.8703 37.0815L17.5229 37.659L16.8492 38.5252L16.1754 38.044H15.213L13.3843 38.5252C13.5768 38.2044 13.981 37.4665 14.058 37.0815C14.135 36.6965 13.4485 34.3545 13.0956 33.2317C12.6464 33.2317 10.9893 33.5294 9.73894 33.6166C9.92341 34.0939 10.3405 35.0651 10.533 35.1325C10.7736 35.2167 9.14943 34.8318 8.75242 34.4227C8.35541 34.0137 8.05464 35.4814 8.15088 35.7942C8.24713 36.107 7.1403 35.0844 7.1403 34.6032C6.97187 34.6032 6.3583 34.7355 5.64849 34.9641C5.97332 34.4227 6.57085 33.8452 7.1403 33.3279C6.78341 32.8507 6.06963 31.8529 6.06963 31.6797C6.06963 31.4631 7.30873 32.1248 7.69372 32.3414C8.06667 32.173 9.94346 31.8 8.03058 30.2721C9.08928 29.8631 10.0397 30.7172 10.2202 31.0421C11.6596 30.7471 12.2891 30.8108 13.3229 30.9155L13.3843 30.9218C13.3201 30.4405 13.2881 29.2856 13.673 28.5156C14.058 27.7456 15.1809 26.719 15.6942 26.302L12.7106 23.9921C11.9406 24.0241 10.2082 24.1845 9.43822 24.5695C8.47577 25.0508 6.06963 26.2057 6.4546 27.1682C6.76258 27.9381 7.28873 27.489 7.51331 27.1682C7.41706 27.6173 6.99358 28.5156 6.06963 28.5156C4.91469 28.5156 4.1447 27.3607 4.62593 25.532C5.01092 24.069 6.96792 22.7409 7.8983 22.2596C6.26212 22.2275 3.29368 22.3835 1.95504 21.4415C0.655681 20.5272 -0.210437 17.3992 2.50853 15.4262C5.9922 12.8982 7.70581 14.175 7.8983 15.1374Z" fill="#FFC107" stroke="#4F4F4F"/>
</svg>
