<svg width="38" height="36" viewBox="0 0 38 36" fill="none" xmlns="http://www.w3.org/2000/svg">
<path d="M5.34248 4.74738C14.6015 -4.1809 25.786 5.05406 29.2614 9.65385C32.6346 6.58732 35.0878 9.04054 36.0078 11.1871C36.9277 13.3337 34.1678 16.7069 32.9412 17.3202C31.5698 18.0059 32.6346 20.3867 32.9412 21C33.2479 21.6133 34.4745 22.5333 34.4745 23.4532C34.4745 24.1892 33.1457 25.2931 32.6346 25.5998C32.6346 26.5198 33.8949 27.1071 34.4745 28.5C35.0541 29.8929 36.5 29 37 30.5C37.5 32 35.4497 32.2901 34.1678 32.6528C32.0281 33.2582 31.8703 32.5278 31.5141 30.8782L31.5 30.8129C31 28.5 27.4215 27.4397 26.8082 27.7464C26.1949 28.053 26.1949 29.5863 25.8882 30.8129C25.5816 32.0395 23.435 32.0395 23.7416 33.2661C23.908 33.9313 24.0483 35.106 22.8217 35.4127C21.5951 35.7193 19.4485 32.9594 19.4485 32.6528C19.4485 31.9245 21.2884 30.8129 21.5951 29.8929C21.9017 28.973 21.9017 28.3597 21.5951 27.4397C17.9152 26.622 15.462 26.1646 8.40901 24.6798C2.58259 23.4532 -3.24385 13.027 5.34248 4.74738Z" fill="#2196F3" stroke="#4F4F4F"/>
</svg>
