<svg width="53" height="53" viewBox="0 0 53 53" fill="none" xmlns="http://www.w3.org/2000/svg">
<path d="M4.99734 33.8425C5.33679 34.7308 5.47257 35.7556 6.08359 36.4389C11.8543 42.9981 23.5994 45.6627 31.7464 42.3148C45.664 36.5072 49.8732 18.1278 39.6217 6.99086C37.2455 4.46284 34.3262 2.48142 31.95 0.5C41.5905 0.841624 53.3357 13.0718 52.4531 27.7616C51.5026 42.7931 37.6529 54.2033 22.9884 52.2902C8.79923 50.4455 -0.84128 37.1221 0.652319 26.6001C1.60279 27.625 2.41748 28.5132 3.23217 29.4014C8.12032 34.5258 16.0636 35.9606 22.3095 32.9543C28.6234 29.8797 31.1353 22.5006 27.9445 16.1464C25.772 11.8419 25.093 11.227 19.9333 9.17726C21.0196 8.83563 21.7664 8.49401 22.5132 8.35736C31.339 7.26416 39.3501 14.7116 39.3501 23.9354C39.3501 32.3394 32.4932 40.0601 24.2105 40.9483C16.6067 41.7682 10.1571 39.4452 4.86156 33.9109C4.58999 33.7742 4.25054 33.5692 3.91108 33.3643L3.97897 33.2959C4.31843 33.5009 4.65788 33.6376 4.99734 33.8425Z" fill="#2196F3"/>
</svg>
