<svg width="64" height="88" viewBox="0 0 64 88" fill="none" xmlns="http://www.w3.org/2000/svg">
<path fill-rule="evenodd" clip-rule="evenodd" d="M6 0C2.68629 0 0 2.68629 0 6V82C0 85.3137 2.68629 88 6 88H57.5C60.8137 88 63.5 85.3137 63.5 82V6C63.5 2.68629 60.8137 0 57.5 0H6ZM49 44C49 53.3888 41.3888 61 32 61C22.6112 61 15 53.3888 15 44C15 34.6112 22.6112 27 32 27C41.3888 27 49 34.6112 49 44ZM57 44C57 57.8071 45.8071 69 32 69C18.1929 69 7 57.8071 7 44C7 30.1929 18.1929 19 32 19C45.8071 19 57 30.1929 57 44Z" fill="#2196F3"/>
</svg>
