<svg width="24" height="33" viewBox="0 0 24 33" fill="none" xmlns="http://www.w3.org/2000/svg">
<rect y="0.25" width="24" height="32" rx="4" fill="#FFC107"/>
<path d="M5.877 6.315C6.22833 5.98633 6.61367 5.67467 7.033 5.38C7.46367 5.08533 7.92833 4.82467 8.427 4.598C8.937 4.37133 9.481 4.19567 10.059 4.071C10.6483 3.935 11.283 3.867 11.963 3.867C12.8583 3.867 13.6857 3.99733 14.445 4.258C15.2157 4.51866 15.8787 4.887 16.434 5.363C16.9893 5.839 17.4257 6.417 17.743 7.097C18.0603 7.777 18.219 8.542 18.219 9.392C18.219 10.2533 18.0887 10.9957 17.828 11.619C17.5787 12.2423 17.2557 12.792 16.859 13.268C16.4737 13.7327 16.0487 14.1407 15.584 14.492C15.1307 14.832 14.7 15.155 14.292 15.461C13.884 15.767 13.5327 16.073 13.238 16.379C12.9547 16.685 12.7903 17.025 12.745 17.399L12.439 20H10.365L10.161 17.178C10.1157 16.668 10.212 16.226 10.45 15.852C10.688 15.4667 10.9997 15.1097 11.385 14.781C11.7703 14.441 12.1953 14.1123 12.66 13.795C13.1247 13.4663 13.5553 13.1037 13.952 12.707C14.36 12.3103 14.7 11.8627 14.972 11.364C15.244 10.854 15.38 10.2477 15.38 9.545C15.38 9.05767 15.2837 8.61566 15.091 8.219C14.8983 7.82233 14.6377 7.488 14.309 7.216C13.9803 6.93267 13.5893 6.71733 13.136 6.57C12.694 6.42267 12.218 6.349 11.708 6.349C11.0167 6.349 10.4217 6.434 9.923 6.604C9.43567 6.774 9.022 6.961 8.682 7.165C8.342 7.369 8.06433 7.556 7.849 7.726C7.645 7.896 7.475 7.981 7.339 7.981C7.05567 7.981 6.83467 7.85067 6.676 7.59L5.877 6.315ZM9.192 26.63C9.192 26.3353 9.243 26.0577 9.345 25.797C9.45833 25.5363 9.60567 25.3097 9.787 25.117C9.97967 24.9243 10.2063 24.7713 10.467 24.658C10.7277 24.5447 11.0053 24.488 11.3 24.488C11.5947 24.488 11.8723 24.5447 12.133 24.658C12.3937 24.7713 12.6203 24.9243 12.813 25.117C13.0057 25.3097 13.1587 25.5363 13.272 25.797C13.3853 26.0577 13.442 26.3353 13.442 26.63C13.442 26.936 13.3853 27.2193 13.272 27.48C13.1587 27.7293 13.0057 27.9503 12.813 28.143C12.6203 28.3357 12.3937 28.483 12.133 28.585C11.8723 28.6983 11.5947 28.755 11.3 28.755C11.0053 28.755 10.7277 28.6983 10.467 28.585C10.2063 28.483 9.97967 28.3357 9.787 28.143C9.60567 27.9503 9.45833 27.7293 9.345 27.48C9.243 27.2193 9.192 26.936 9.192 26.63Z" fill="#2196F3"/>
</svg>
