<svg width="101" height="102" viewBox="0 0 101 102" fill="none" xmlns="http://www.w3.org/2000/svg">
<path d="M48.5575 31.6986C16.2583 14.9313 -6.15322 47.6277 2.41592 82.8391C2.41592 50.9811 23.5092 32.537 44.6025 48.466C47.7665 47.7953 48.997 34.4932 48.5575 31.6986Z" fill="#5a5145"/>
<path d="M52.5987 31.6986C84.8979 14.9313 107.309 47.6277 98.7403 82.8391C98.7403 50.9811 77.647 32.537 56.5537 48.466C53.3897 47.7953 52.1593 34.4932 52.5987 31.6986Z" fill="#5a5145"/>
<path fill-rule="evenodd" clip-rule="evenodd" d="M50.5782 0.5C49.6258 7.16667 46.2924 22.2143 40.5782 29.0714C41.6403 32.966 41.1775 36.0711 40.801 38.597C40.5699 40.1478 40.3713 41.4802 40.5782 42.6429C40.9707 44.8489 39.4203 46.7878 37.3065 49.4311C33.6883 53.9559 28.4194 60.545 28.4194 74.0714C28.4194 89.0714 44.848 98.3571 50.5623 101.214C56.2766 98.3571 72.7369 89.0714 72.7369 74.0714C72.7369 61.5767 68.1227 56.1246 64.5553 51.9095C62.0047 48.8956 59.9892 46.5142 60.5782 42.6429C60.7514 41.5039 60.56 40.207 60.3383 38.7049C59.9627 36.1593 59.5 33.0245 60.5782 29.0714C54.8639 22.2143 51.5305 7.16667 50.5782 0.5ZM45.7651 56.9504C42.6368 59.9344 39.1493 63.2611 39.1494 72.6429C39.1495 84.3533 45.7926 88.7562 50.1099 91.6176C50.2693 91.7233 50.4255 91.8268 50.5782 91.9286C50.7308 91.8268 50.887 91.7233 51.0464 91.6176C55.3637 88.7563 62.0068 84.3533 62.0069 72.6429C62.007 63.2611 58.5195 59.9344 55.3912 56.9504C53.0364 54.7041 50.885 52.6519 50.5782 48.3571C50.2713 52.6519 48.12 54.7041 45.7651 56.9504Z" fill="#5a5145"/>
</svg>
