<svg width="100" height="100" viewBox="0 0 100 100" fill="none" xmlns="http://www.w3.org/2000/svg">
<path fill-rule="evenodd" clip-rule="evenodd" d="M33.3489 96.5947C14.1062 89.8024 0.265015 71.5666 0 50.0619C2.2926 52.7375 5.69629 54.433 9.49609 54.433C16.3997 54.433 21.9961 48.8365 21.9961 41.933C21.9961 38.0752 20.2484 34.6255 17.5017 32.3326C23.7911 22.7952 31.881 14.361 42.0055 6.44469C42.0031 6.50989 42.001 6.57523 41.9994 6.64069L41.9976 6.72748L41.9965 6.82973L41.9961 6.93297C41.9961 13.8365 47.5925 19.433 54.4961 19.433C61.3997 19.433 66.9961 13.8365 66.9961 6.93297C66.9961 5.20093 66.6438 3.55118 66.007 2.05144C85.6829 8.69785 99.8726 27.2564 99.9952 49.1467C97.7682 45.7081 93.8978 43.433 89.4961 43.433C82.5925 43.433 76.9961 49.0294 76.9961 55.933C76.9961 59.7908 78.7438 63.2404 81.4905 65.5334C75.201 75.0708 67.1112 83.5049 56.9867 91.4213C56.9929 91.2593 56.9961 91.0965 56.9961 90.933C56.9961 84.0294 51.3997 78.433 44.4961 78.433C37.5925 78.433 31.9961 84.0294 31.9961 90.933C31.9961 92.9709 32.4839 94.8949 33.3489 96.5947ZM54.5815 99.2255C74.4805 97.4163 91.0116 83.9481 97.2875 65.7082C95.1508 67.4136 92.4425 68.433 89.4961 68.433C89.1262 68.433 88.76 68.4169 88.3983 68.3854C78.4954 80.5546 65.7886 91.6315 54.5815 99.2255ZM3.52368 30.9494C9.97888 14.7334 24.6758 2.69252 42.4413 0C31.7354 7.52631 19.921 18.019 10.5939 29.4805C10.2322 29.449 9.86597 29.433 9.49609 29.433C7.33301 29.433 5.29822 29.9824 3.52368 30.9494ZM49.4961 61.433C56.3997 61.433 61.9961 55.8365 61.9961 48.933C61.9961 42.0294 56.3997 36.433 49.4961 36.433C42.5925 36.433 36.9961 42.0294 36.9961 48.933C36.9961 55.8365 42.5925 61.433 49.4961 61.433ZM27.9961 68.933C27.9961 73.0751 24.6382 76.433 20.4961 76.433C16.354 76.433 12.9961 73.0751 12.9961 68.933C12.9961 64.7908 16.354 61.433 20.4961 61.433C24.6382 61.433 27.9961 64.7908 27.9961 68.933Z" fill="#5a5145"/>
</svg>
