<?xml version="1.0" standalone="no"?>
<svg xmlns="http://www.w3.org/2000/svg" version="1.1" viewBox="25 0 950 950">
   <path fill="white"
d="M714 497q-74 0 -135 -40q0 5 -6 8q-9 4 -16 -2l-10 -10q-11 8 -22 19q-13 12 -22 27l9 9q7 6 2 16q-5 11 -13 3l-11 -11l-15 15l10 10q9 9 0 18t-18 0l-5 -5l-209 226q3 8 -3 14q-9 9 -18 0l-6 -7q12 40 -17.5 69.5t-70.5 17.5q-14 5 -25 14q-7 6 -12 14l10 10q7 7 -3 13
q-10 5 -16 -2l-7 -7q-6 5 -12 6q-29 8 -32 5q-4 -4 4 -33q2 -6 6 -12l-7 -7q-6 -6 -1 -15q5 -11 12 -4l9 8q8 -4 13 -12q10 -11 14 -26q-11 -39 18 -68q30 -30 70 -18l-5 -5q-9 -9 0 -18q5 -5 13 -3l226 -209l-5 -5q-9 -9 0 -17.5t18 0.5l10 10l15 -16l-11 -11q-8 -7 3 -13
q10 -5 17 2l8 9q14 -8 27 -21q11 -11 19 -23l-10 -10q-6 -6 -2 -16q3 -6 8 -6q-41 -61 -41 -135q0 -102 72 -174t173.5 -72t173 72t71.5 173.5t-71.5 173t-173.5 71.5zM714 47q-85 0 -145 60t-60 145t60 145t145 60t145 -60t60 -145t-60 -145t-145 -60z" />
</svg>
