<?xml version="1.0" standalone="no"?>
<svg xmlns="http://www.w3.org/2000/svg" version="1.1" viewBox="100 -80 820 950">
    <path fill="white"
          d="M910 469h-13q-5 5 -9.5 7t-6.5 4q-6 2 -5 2q-34 20 -54.5 47t-29.5 58.5t-7 65.5t12 68q10 0 11.5 7.5t1.5 17.5q0 -5 -2.5 -7t-4.5 -4q-4 -2 -6 -2q-31 -9 -53.5 -10.5t-52.5 -1.5q-42 0 -72.5 9t-61.5 29q-42 24 -66 66l-13 26l-12 -26q-10 -11 -13 -20.5t-13 -18.5
q-10 -10 -28 -26.5t-37 -26.5q-20 0 -34 -6t-33 -6h-106l-13 12q5 -5 7 -9l4 -8q2 -6 2 -8q5 -5 7 -10.5t4 -9.5q2 -6 2 -8v-79q-10 0 -11.5 -1.5t-1.5 -11.5q-10 10 -26 19t-26 9h-41q10 0 11.5 -2t1.5 -13q10 0 11.5 -14.5t1.5 -24.5q11 -8 6 -18q-1 -3 -6 -8v-107
q11 -40 29 -78t38 -67q30 -20 59.5 -38.5t59.5 -28.5h27q-11 0 -14.5 6.5t-12.5 6.5q-20 31 -28.5 62t2.5 71q0 39 38 80h15q11 11 26.5 18.5t25.5 7.5h66q-5 0 -7 2.5t-4 4.5q-2 4 -2 6q-10 10 -19.5 11.5t-19.5 1.5q-11 10 -20.5 11.5t-18.5 1.5h-54q0 10 1.5 19t10.5 9
q11 19 28 36t38 30t44.5 20t47.5 7q21 0 40 -8.5t39 -19.5q31 -20 50.5 -41t29.5 -52q10 -49 -6.5 -97t-45.5 -88q-11 -29 -27.5 -57.5t-26.5 -48.5q-40 -39 -56 -87t3 -106q21 -40 56 -66t77 -26h26q-60 19 -80 78v62q10 22 28.5 41t38.5 39h13q24 12 50 17.5t52 5.5
q19 0 36.5 -2.5t34.5 -7.5l13 -13v13q-10 15 -15.5 23.5t-9 16t-6.5 16t-8 23.5q-10 30 -6.5 67.5t32.5 77.5q20 20 32.5 33.5t27.5 34.5z"/>
</svg>
