<svg width="52" height="52" viewBox="0 0 52 52" fill="none" xmlns="http://www.w3.org/2000/svg">
<path d="M4.49734 33.3425C4.83679 34.2308 4.97257 35.2556 5.58359 35.9389C11.3543 42.4981 23.0994 45.1627 31.2464 41.8148C45.164 36.0072 49.3732 17.6278 39.1217 6.49086C36.7455 3.96284 33.8262 1.98142 31.45 0C41.0905 0.341624 52.8357 12.5718 51.9531 27.2616C51.0026 42.2931 37.1529 53.7033 22.4884 51.7902C8.29923 49.9455 -1.34128 36.6221 0.152319 26.1001C1.10279 27.125 1.91748 28.0132 2.73217 28.9014C7.62032 34.0258 15.5636 35.4606 21.8095 32.4543C28.1234 29.3797 30.6353 22.0006 27.4445 15.6464C25.272 11.3419 24.593 10.727 19.4333 8.67726C20.5196 8.33563 21.2664 7.99401 22.0132 7.85736C30.839 6.76416 38.8501 14.2116 38.8501 23.4354C38.8501 31.8394 31.9932 39.5601 23.7105 40.4483C16.1067 41.2682 9.65705 38.9452 4.36156 33.4109C4.08999 33.2742 3.75054 33.0692 3.41108 32.8643L3.47897 32.7959C3.81843 33.0009 4.15788 33.1376 4.49734 33.3425Z" fill="#5A5145"/>
</svg>
