<?xml version="1.0" encoding="UTF-8"?>
<svg id="Layer_1" xmlns="http://www.w3.org/2000/svg" viewBox="0 0 80 99.5">
    <defs>
        <style>.cls-1{fill:#5A5145;}</style>
    </defs>
    <path class="cls-1"
          d="m34.45,2.3c3.06-.97,6.51-1.49,10.34-1.57,3.83-.08,7.58.26,11.25,1.03,3.67.77,7.13,1.84,10.4,3.21,3.27,1.37,6.03,3.09,8.28,5.14,2.26,2.06,3.71,4.22,4.35,6.47-1.05-2.18-3.41-3.99-7.07-5.44-3.67-1.45-7.88-2.24-12.64-2.36-4.76-.12-9.59.59-14.51,2.12-9.6,3.15-15.76,10.37-18.5,21.66-2.34-1.61-4.92-3.15-7.74-4.6-2.82-1.45-4.47-1.85-4.96-1.21,1.61,1.78,3.47,3.43,5.56,4.96,2.1,1.53,3.83,2.54,5.2,3.03,2.01.81,3.99,1.43,5.93,1.88,1.94.44,3.43.77,4.47.97,1.05.2,1.69.47,1.94.79l-.97.12c-.16.08-.38.26-.67.54-.28.28-.46.71-.54,1.27l-.24,1.09c-.08.73-.16,1.37-.24,1.94l-.12,2.54c-.08,1.13-.06,2.34.06,3.63.12,1.29.3,2.74.54,4.36.24,1.61.62,3.47,1.15,5.57.52,2.1,1.19,4.32,2,6.65,1.13,3.47,2.36,6.5,3.69,9.08,1.33,2.58,2.52,4.6,3.57,6.05,1.05,1.45,2.32,2.74,3.81,3.87,1.49,1.13,2.68,1.92,3.57,2.36.89.44,2.13.99,3.75,1.63.32.16-.4,1.05-2.18,2.66-1.77,1.61-3.69,3.21-5.74,4.78s-3.25,2.32-3.57,2.24c-.08,0-.24-.02-.48-.06-.24-.04-.42-.08-.54-.12-.12-.04-.34-.18-.67-.42-.32-.24-.62-.54-.91-.91-.28-.36-.67-.93-1.15-1.69-.48-.77-1.01-1.67-1.57-2.72-6.13-11.86-10.08-22.1-11.85-30.73-.97-4.6-2-8.27-3.08-11.01-1.09-2.74-2.48-5.61-4.17-8.59-.81-1.29-1.96-2.66-3.45-4.11-1.49-1.45-3.04-2.9-4.66-4.36-1.61-1.45-2.58-2.34-2.9-2.66-.08.16-.16.28-.24.36-.24.4-.42,1.25-.54,2.54-.12,1.29-.3,2.02-.54,2.18-.32.24-.59.3-.79.18-.2-.12-.75-.46-1.63-1.03-.48-.32-.93-.64-1.33-.97-1.45-1.05-2.32-1.75-2.6-2.12-.28-.36-.26-.67.06-.91,0-.08.38-.42,1.15-1.03.77-.6,1.51-1.35,2.24-2.24-.16-.16-.89-.6-2.18-1.33-.32-.16-.5-.36-.54-.6-.04-.24.02-.52.18-.85l.48-.85c.08-.24.3-.58.67-1.03.36-.44.58-.74.67-.91.32-.48.6-.89.85-1.21.24-.32.54-.68.91-1.09.36-.4.62-.62.79-.67.16-.04.32-.02.48.06,1.29,1.53,2.06,2.42,2.3,2.66.64-.64,1.07-1.37,1.27-2.18.2-.81.22-1.41.06-1.81l-.24-.73c.32-.32.79-.77,1.39-1.33.6-.56,1.81-1.59,3.63-3.09,1.81-1.49,3.63-2.86,5.44-4.11,1.81-1.25,3.95-2.56,6.41-3.93,2.46-1.37,4.78-2.38,6.95-3.02Z"/>
</svg>
