<?xml version="1.0" standalone="no"?>
<svg xmlns="http://www.w3.org/2000/svg" version="1.1"
     viewBox="-10 -10 704 840">
    <path fill="white"
          d="M683 357q-5 120 -66.5 228t-160.5 180q-41 38 -83.5 45.5t-69.5 -8.5t-69 -53q20 -55 26.5 -209.5t-1 -306t-25.5 -203.5q53 -24 101 -26.5t101 13.5t100.5 49t81 76.5t51.5 99.5q17 52 14 115zM634 284q-4 -27 -21 -44q-15 -16 -47 -15q-24 1 -50 13q-68 30 -102 87
q-66 110 -43 146q31 28 68 22q45 -7 75 -25t55 -45q28 -29 47 -69q19 -42 18 -70zM142 686q-49 -48 -83 -112q-33 -64 -46 -135q-13 -70 -6.5 -138.5t41.5 -130.5t94 -104q-14 52 -15 304q-1 253 15 316z"/>
</svg>
