<?xml version="1.0" standalone="no"?>
<svg xmlns="http://www.w3.org/2000/svg" version="1.1" viewBox="80 0 890 820">
    <path fill="white"
          d="M770 473q11 0 20 -8.5t20 -16.5q15 -10 21 -24t6.5 -25.5t0.5 -18.5q0 -10 -1 -23.5t-1 -28.5q-10 -25 -25.5 -41.5t-32 -31.5t-30 -31.5t-18.5 -42.5q-3 -10 -3 -21q0 -9 3.5 -24.5t13 -35t23.5 -36t29 -26.5q21 -11 40.5 -20t39.5 -9q20 11 37 23t17 32
q-21 -11 -34.5 -15t-21.5 -4q-12 0 -24 5q-20 0 -32.5 13t-16.5 29t-4 29q0 7 1.5 20.5t11.5 28.5q15 15 30 25.5t28.5 20t25.5 20t22 25.5q19 15 27.5 39t9.5 41t1 25q0 20 -3.5 44t-8.5 49q-9 41 -22.5 74.5t-43.5 71.5q0 11 -9 21.5t-17 18.5q-5 0 -8 2.5t-5.5 5t-5.5 5
t-7 2.5q-11 8 -14 18.5t-14 21.5q-3 3 -6 7q-2 4 -4 8.5t-2 9.5v40l-28 41l-132 -307l-12 -278zM108 422v-14q11 0 27.5 1.5t27.5 12.5q19 20 28 40.5t9 50.5q0 10 -4 22.5t-7.5 26t-4 22t-0.5 11.5q0 12 4 25q20 38 50 53.5t68 26.5q20 4 42 4t41.5 -5t36 -14.5t26.5 -24.5
l-132 -106l106 -121l158 95l120 278l-120 -41q-9 9 -19 10.5t-18 1.5h-69q-10 0 -20 4.5t-21 10t-23.5 10t-27.5 4.5q-20 0 -46 -9t-45 -20q-36 -4 -67 -14.5t-54.5 -29t-37 -46.5t-13.5 -67q0 -15 7.5 -38t14.5 -48t9 -39t2 -19q0 -16 -8 -28q-11 -11 -20 -18.5t-20 -7.5z
M360 9l187 81l25 369l-132 -66zM240 276l66 -252l94 369l-120 120z"/>
</svg>
