<?xml version="1.0" standalone="no"?>
<svg xmlns="http://www.w3.org/2000/svg" version="1.1" viewBox="5 5 940 790">
    <path fill="white"
          d="M257 80q10 -36 42.5 -54t68.5 -8t54 42.5t8 68.5q-12 43 -53 59q1 27 20 41q37 -1 73 9q43 12 78.5 40.5t55.5 66t26.5 82t-6.5 88.5q-2 5 -4 11q13 14 29 23q26 -42 73 -61t96 -5q61 18 91 72.5t13 114.5t-71.5 90.5t-114.5 13.5t-90.5 -71.5t-13.5 -114.5
q-20 -8 -38 -9q-40 59 -108.5 84.5t-139.5 5.5q-16 -5 -32 -12q-23 52 -74.5 77t-107.5 9q-60 -17 -90.5 -72t-13.5 -115q15 -52 59 -82.5t97 -27.5q1 -27 8 -54q16 -55 55 -95t92 -57q12 -16 2 -46q-11 0 -22 -3q-36 -10 -54 -42.5t-8 -68.5z"/>
</svg>
