<?xml version="1.0" standalone="no"?>
<svg xmlns="http://www.w3.org/2000/svg" version="1.1" viewBox="-10 0 971 800">
   <path fill="#5A5145"
d="M734 145q50 19 92 51.5t69.5 75t42 91t13 101t-19.5 103t-51 92t-75 69.5t-90.5 42.5t-101.5 13t-103 -19.5q-63 -23 -111 -67t-74 -100t-31.5 -121t17.5 -128l86 39q-5 30 10 56t44 36q26 9 51 2t42 -27l154 70l15 -39q27 -73 26.5 -155t-32.5 -152q-12 -24 -26 -47
q27 5 53 14zM247 315v-1q-29 79 -30 157t31 154q11 24 25 46q-26 -5 -52 -15q-50 -19 -91 -52t-68.5 -75.5t-41.5 -91t-12 -101.5t20.5 -103.5t52 -91.5t76 -68t91 -41.5t101.5 -12.5t103 21q62 23 109.5 67.5t73 100.5t31 120t-17.5 127l-85 -40q6 -30 -9 -57t-44 -38
q-26 -9 -51.5 -2t-42.5 27l-153 -73z" />
</svg>
