<?xml version="1.0" encoding="iso-8859-1"?>
<!-- Uploaded to: SVG Repo, www.svgrepo.com, Generator: SVG Repo Mixer Tools -->
<svg fill="#000000" height="800px" width="800px" version="1.1" id="Layer_1" xmlns="http://www.w3.org/2000/svg" xmlns:xlink="http://www.w3.org/1999/xlink" 
	 viewBox="0 0 512.006 512.006" xml:space="preserve">
<g>
	<g>
		<g>
			<path d="M212.265,390.248l-60.331,60.331c-25.012,25.012-65.517,25.012-90.508,0.005c-24.996-24.996-24.996-65.505-0.005-90.496
				l120.683-120.683c24.991-24.992,65.5-24.992,90.491,0c8.331,8.331,21.839,8.331,30.17,0c8.331-8.331,8.331-21.839,0-30.17
				c-41.654-41.654-109.177-41.654-150.831,0L31.252,329.918c-41.654,41.654-41.654,109.177,0,150.831
				c41.649,41.676,109.177,41.676,150.853,0l60.331-60.331c8.331-8.331,8.331-21.839,0-30.17S220.596,381.917,212.265,390.248z"/>
			<path d="M480.756,182.08c41.654-41.654,41.654-109.177,0-150.831c-41.653-41.653-109.173-41.653-150.848-0.005l-72.389,72.389
				c-8.331,8.331-8.331,21.839,0,30.17s21.839,8.331,30.17,0l72.384-72.384c25.008-24.992,65.521-24.992,90.513,0
				c24.991,24.991,24.991,65.5,0,90.491L317.85,284.646c-24.992,24.992-65.5,24.992-90.491,0c-8.331-8.331-21.839-8.331-30.17,0
				s-8.331,21.839,0,30.17c41.654,41.654,109.177,41.654,150.831,0L480.756,182.08z"/>
			<path d="M399.099,368.926c-8.331-8.331-21.839-8.331-30.17,0c-8.331,8.331-8.331,21.839,0,30.17l63.979,63.979
				c8.331,8.331,21.839,8.331,30.17,0c8.331-8.331,8.331-21.839,0-30.17L399.099,368.926z"/>
			<path d="M112.946,143.113c8.331,8.331,21.839,8.331,30.17,0s8.331-21.839,0-30.17L79.073,48.9c-8.331-8.331-21.839-8.331-30.17,0
				c-8.331,8.331-8.331,21.839,0,30.17L112.946,143.113z"/>
			<path d="M490.67,320h-64c-11.782,0-21.333,9.551-21.333,21.333c0,11.782,9.551,21.333,21.333,21.333h64
				c11.782,0,21.333-9.551,21.333-21.333C512.003,329.551,502.452,320,490.67,320z"/>
			<path d="M170.67,106.667c11.782,0,21.333-9.551,21.333-21.333v-64C192.003,9.551,182.452,0,170.67,0
				c-11.782,0-21.333,9.551-21.333,21.333v64C149.336,97.115,158.888,106.667,170.67,106.667z"/>
			<path d="M21.336,192h64c11.782,0,21.333-9.551,21.333-21.333c0-11.782-9.551-21.333-21.333-21.333h-64
				c-11.782,0-21.333,9.551-21.333,21.333C0.003,182.449,9.554,192,21.336,192z"/>
			<path d="M341.336,405.333c-11.782,0-21.333,9.551-21.333,21.333v64c0,11.782,9.551,21.333,21.333,21.333
				c11.782,0,21.333-9.551,21.333-21.333v-64C362.67,414.885,353.118,405.333,341.336,405.333z"/>
		</g>
	</g>
</g>
</svg>