<svg width="111" height="127" viewBox="0 0 111 127" fill="none" xmlns="http://www.w3.org/2000/svg">
<path d="M84.36 88.4577C81.8229 82.7711 67.8686 73.9254 65.9657 79.6119C64.0629 85.2985 62.7943 106.149 45.0343 106.149C27.2743 106.149 19.0286 85.9303 16.4914 70.1343C13.9543 54.3383 15.8571 27.1692 32.3486 24.0099C48.84 20.8507 53.28 37.9104 55.8171 39.1741C58.3543 40.4378 69.7714 30.9602 69.1371 25.9055C68.5028 20.8507 55.8172 0 36.1543 0C16.4914 0 0 19.5871 0 58.1293C0 96.6716 18.3943 127 46.9371 127C75.48 127 86.8971 94.1443 84.36 88.4577Z" fill="#5A5145"/>
<path d="M103.242 40.3437C89.2809 44.6678 85.9277 40.175 77.6731 31.285C77.0644 30.6295 75.9098 31.0473 75.7254 31.9226C73.4589 42.6763 57.911 48.1737 52.4454 47.4821C51.727 47.3912 50.8193 47.8011 50.6285 48.4997C47.8965 58.5066 41.5526 62.1972 32.998 67.3643C32.0526 67.9354 32.619 69.4298 33.7154 69.2961C42.732 68.196 49.0822 69.5073 54.7891 74.0533C55.5848 74.6871 58.2501 74.0549 59.1212 73.5293C64.3695 70.3619 80.6653 71.1543 91.5214 81.9309C92.3446 82.7481 94.4367 81.7121 94.188 80.5791C92.9256 74.8288 92.3401 68.9183 93.3609 63C94.5346 56.1951 97.832 49.3799 104.666 42.7861C105.516 41.9656 104.371 39.9942 103.242 40.3437Z" fill="#5A5145"/>
</svg>
