<svg width="101" height="102" viewBox="0 0 101 102" fill="none" xmlns="http://www.w3.org/2000/svg">
<path fill-rule="evenodd" clip-rule="evenodd" d="M21.2541 38.91C21.2541 35.3015 21.8818 31.841 23.033 28.6339L19.0024 21.5951C18.5521 20.8087 18.3269 20.4155 18.3616 20.093C18.3919 19.8117 18.5399 19.5564 18.769 19.3904C19.0316 19.2 19.4847 19.2 20.3909 19.2H28.5158C31.049 16.2411 34.1424 13.785 37.6297 12H8.03272C7.12652 12 6.67341 12 6.41082 12.1904C6.18176 12.3564 6.03376 12.6117 6.00349 12.893C5.96878 13.2155 6.19394 13.6087 6.64425 14.3951L21.2712 39.9389C21.2599 39.5974 21.2541 39.2544 21.2541 38.91ZM39.3284 15.1675C42.104 13.7602 45.1605 12.8349 48.3903 12.5C49.2832 12.4074 50.1894 12.36 51.1066 12.36C52.0329 12.36 52.948 12.4084 53.8495 12.5028C53.9526 12.5136 54.0554 12.525 54.1581 12.537C54.1838 12.54 54.2094 12.543 54.2351 12.5461C59.7749 13.2095 64.7866 15.6129 68.7195 19.2C72.5372 22.682 75.3383 27.2795 76.6192 32.4837C77.1257 34.5414 77.3945 36.694 77.3945 38.91C77.3945 42.4085 76.7245 45.749 75.507 48.8077C74.5724 51.1557 73.3152 53.3377 71.7908 55.2976C68.4109 59.643 63.7177 62.897 58.315 64.4494C56.0243 65.1076 53.6062 65.46 51.1066 65.46C48.4502 65.46 45.8858 65.0621 43.4687 64.322C32.6753 61.0173 24.8186 50.8903 24.8186 38.91C24.8186 38.7813 24.8195 38.6529 24.8213 38.5247C24.8484 36.6014 25.078 34.7275 25.4895 32.9239C27.2654 25.1406 32.4292 18.6655 39.3284 15.1675ZM65.8931 51.2153C67.2301 49.5784 68.3058 47.7157 69.0556 45.6924C69.8379 43.5818 70.2656 41.2963 70.2656 38.91C70.2656 28.2233 61.6878 19.56 51.1066 19.56C40.5253 19.56 31.9475 28.2233 31.9475 38.91C31.9475 49.5967 40.5253 58.26 51.1066 58.26C57.0599 58.26 62.3791 55.5176 65.8931 51.2153ZM82.8543 21.5951L79.0411 28.2543C80.2806 31.5673 80.959 35.1587 80.959 38.91C80.959 39.0371 80.9582 39.164 80.9566 39.2907L95.2124 14.3951C95.6627 13.6087 95.8879 13.2155 95.8532 12.893C95.8229 12.6117 95.6749 12.3564 95.4459 12.1904C95.1833 12 94.7302 12 93.824 12H64.5835C68.0707 13.785 71.1642 16.2411 73.6973 19.2H81.4658C82.372 19.2 82.8251 19.2 83.0877 19.3904C83.3168 19.5564 83.4648 19.8117 83.495 20.093C83.5298 20.4155 83.3046 20.8087 82.8543 21.5951ZM55.8959 68.674C59.6494 68.0627 63.1688 66.7445 66.3157 64.8591L52.3168 89.3061C51.8617 90.1009 51.6341 90.4984 51.3364 90.6314C51.0767 90.7475 50.7799 90.7475 50.5203 90.6314C50.2226 90.4984 49.995 90.1009 49.5399 89.3061L35.3477 64.5216C38.5234 66.5189 42.0977 67.9306 45.9224 68.607L49.5399 74.9244C49.995 75.7192 50.2226 76.1166 50.5203 76.2497C50.7799 76.3657 51.0767 76.3657 51.3364 76.2497C51.6341 76.1166 51.8617 75.7192 52.3168 74.9244L55.8959 68.674Z" fill="#5A5145"/>
</svg>
