<svg width="132" height="132" viewBox="0 0 132 132" fill="none" xmlns="http://www.w3.org/2000/svg">
<ellipse cx="43.706" cy="43.2512" rx="26.8366" ry="18.1818" transform="rotate(-45 43.706 43.2512)" fill="#5a5145"/>
<path fill-rule="evenodd" clip-rule="evenodd" d="M71.0829 30.5427C74.0008 39.5912 70.4365 51.6618 61.2766 60.8217C52.1168 69.9815 40.0462 73.5458 30.9976 70.628C32.0855 73.5058 33.7459 76.1459 35.9922 78.3922C45.9328 88.3328 63.5847 86.7979 75.4188 74.9638C87.2529 63.1297 88.7878 45.4779 78.8472 35.5373C76.6008 33.2909 73.9607 31.6306 71.0829 30.5427Z" fill="#5a5145"/>
<path fill-rule="evenodd" clip-rule="evenodd" d="M43.7966 103.339C47.3453 90.8731 55.1399 77.6722 66.6334 66.1787C78.127 54.6851 91.3281 46.8904 103.794 43.3418C118.635 59.3602 117.765 84.901 101.56 101.105C85.3559 117.31 59.815 118.18 43.7966 103.339Z" fill="#5a5145"/>
</svg>
