<?xml version="1.0" standalone="no"?>
<svg xmlns="http://www.w3.org/2000/svg" version="1.1" viewBox="90 -10 880 850">
   <path fill="#5a5145"
d="M178 417q38 14 81 14q62 0 116 -23t94.5 -63.5t64 -94t23.5 -115.5q0 -35 -10 -67.5t-24 -62.5q51 41 81.5 97.5t30.5 125.5q0 43 -13.5 80.5t-36.5 71.5q66 -47 143.5 -74t163.5 -27q11 0 21 1.5t22 2.5q6 27 10.5 54.5t4.5 56.5q0 89 -34 167.5t-92.5 137t-137 92.5
t-168.5 34q-38 0 -75.5 -7.5t-71.5 -19.5q1 -93 31 -174t84 -148q-32 19 -67 31t-74 12q-78 0 -140.5 -38t-100.5 -100q35 22 74 36zM215 88q57 -56 129 -88l34 28q22 22 35 50.5t13 62.5q0 32 -12.5 61t-34 50.5t-50 34t-61.5 12.5t-62 -12.5t-51 -34.5v1l-30 -35
q33 -73 90 -130z" />
</svg>
