<svg width="86" height="100" viewBox="0 0 86 100" fill="none" xmlns="http://www.w3.org/2000/svg">
<path d="M47.2011 0V20.25C54.3678 23.8333 67.7126 35.25 67.7126 52C67.7126 72.2747 51.4023 78 43 78C34.5977 78 18.2874 72.2747 18.2874 52C18.2874 35.5 31.6322 23.8333 38.7989 20.25V0C25.8659 2.66667 0 21 0 57C0 94.5 32 100 43 100C54 100 86 94.5 86 57C86 21 60.1341 2.66667 47.2011 0Z" fill="#5A5145"/>
<path d="M58.8161 52C58.8161 45.2 48.272 33.75 43 28.25C37.728 33.75 27.1839 45.2 27.1839 52C27.1839 60.5 33.3621 66.5 43 66.5C52.6379 66.5 58.8161 60.5 58.8161 52Z" fill="#5A5145"/>
</svg>
